<svg width="97" height="97" fill="none" xmlns="http://www.w3.org/2000/svg"><g opacity=".8" filter="url(#a)"><circle cx="48.5" cy="44.5" r="44.5" fill="#F8D6CB"/></g><path d="M60.327 34.464a15.307 15.307 0 0 0-5.004-3.313A15.498 15.498 0 0 0 49.407 30c-8.505 0-15.438 6.826-15.438 15.202 0 2.684.717 5.292 2.057 7.593l-2.181 7.886 8.178-2.117a15.63 15.63 0 0 0 7.384 1.856c8.506 0 15.438-6.827 15.438-15.203 0-4.065-1.605-7.885-4.518-10.754Zm-10.92 23.38c-2.305 0-4.564-.614-6.543-1.765l-.467-.276-4.86 1.258 1.293-4.663-.312-.476a12.536 12.536 0 0 1-1.963-6.72c0-6.964 5.764-12.64 12.837-12.64 3.427 0 6.651 1.32 9.066 3.713a12.543 12.543 0 0 1 2.787 4.1 12.39 12.39 0 0 1 .967 4.843c.031 6.965-5.733 12.626-12.805 12.626Zm7.041-9.45c-.39-.184-2.29-1.105-2.632-1.243-.359-.123-.608-.184-.873.184-.265.384-.997 1.243-1.215 1.488-.218.261-.452.292-.841.092-.39-.184-1.636-.598-3.1-1.887-1.153-1.012-1.916-2.255-2.15-2.638-.218-.384-.031-.583.172-.783.17-.168.389-.444.576-.66.187-.214.265-.383.39-.628.124-.261.062-.476-.032-.66-.093-.184-.872-2.056-1.184-2.823-.311-.736-.638-.644-.872-.66h-.748c-.265 0-.67.093-1.028.476-.343.384-1.34 1.304-1.34 3.176 0 1.871 1.387 3.682 1.574 3.927.187.26 2.726 4.096 6.59 5.737.918.4 1.635.63 2.196.798.919.292 1.76.246 2.43.154.748-.108 2.29-.92 2.601-1.81.327-.89.327-1.642.218-1.81-.109-.17-.342-.246-.732-.43Z" fill="#620D09"/><defs><filter id="a" x="0" y="0" width="97" height="97" filterUnits="userSpaceOnUse" color-interpolation-filters="sRGB"><feFlood flood-opacity="0" result="BackgroundImageFix"/><feColorMatrix in="SourceAlpha" values="0 0 0 0 0 0 0 0 0 0 0 0 0 0 0 0 0 0 127 0" result="hardAlpha"/><feOffset dy="4"/><feGaussianBlur stdDeviation="2"/><feComposite in2="hardAlpha" operator="out"/><feColorMatrix values="0 0 0 0 0.384314 0 0 0 0 0.0509804 0 0 0 0 0.0352941 0 0 0 1 0"/><feBlend in2="BackgroundImageFix" result="effect1_dropShadow_40_647"/><feBlend in="SourceGraphic" in2="effect1_dropShadow_40_647" result="shape"/></filter></defs></svg>