<svg width="97" height="97" fill="none" xmlns="http://www.w3.org/2000/svg"><g opacity=".8" filter="url(#a)"><circle cx="48.5" cy="44.5" r="44.5" fill="#F8D6CB"/></g><path d="M64.488 36.985c.736 2.706.736 8.356.736 8.356s0 5.65-.736 8.356a4.393 4.393 0 0 1-3.123 3.07c-2.753.723-12.253.723-12.253.723s-9.495 0-12.253-.722c-1.523-.404-2.718-1.58-3.123-3.071C33 50.99 33 45.34 33 45.34s0-5.65.736-8.356a4.393 4.393 0 0 1 3.123-3.071c2.758-.723 12.253-.723 12.253-.723s9.5 0 12.253.723c1.523.404 2.718 1.58 3.123 3.07ZM45.89 50.656l9.667-5.315-9.667-5.316v10.631Z" fill="#620D09"/><defs><filter id="a" x="0" y="0" width="97" height="97" filterUnits="userSpaceOnUse" color-interpolation-filters="sRGB"><feFlood flood-opacity="0" result="BackgroundImageFix"/><feColorMatrix in="SourceAlpha" values="0 0 0 0 0 0 0 0 0 0 0 0 0 0 0 0 0 0 127 0" result="hardAlpha"/><feOffset dy="4"/><feGaussianBlur stdDeviation="2"/><feComposite in2="hardAlpha" operator="out"/><feColorMatrix values="0 0 0 0 0.384314 0 0 0 0 0.0509804 0 0 0 0 0.0352941 0 0 0 1 0"/><feBlend in2="BackgroundImageFix" result="effect1_dropShadow_40_650"/><feBlend in="SourceGraphic" in2="effect1_dropShadow_40_650" result="shape"/></filter></defs></svg>