<svg width="99" height="22" viewBox="0 0 99 22" fill="none" xmlns="http://www.w3.org/2000/svg">
<path d="M98 2.56V1.35289L97.1464 2.20645L90.9264 8.42645L90.9202 8.43268L90.9142 8.43914C90.8913 8.4637 90.8637 8.4834 90.833 8.49707C90.8024 8.51073 90.7693 8.51808 90.7357 8.51867C90.7021 8.51926 90.6688 8.51309 90.6377 8.50051C90.6065 8.48794 90.5783 8.46922 90.5545 8.44548C90.5308 8.42174 90.5121 8.39347 90.4995 8.36234C90.4869 8.33121 90.4807 8.29786 90.4813 8.2643C90.4819 8.23073 90.4893 8.19763 90.5029 8.16696C90.5166 8.13629 90.5363 8.10869 90.5609 8.08581L90.5673 8.07979L90.5736 8.07355L96.7936 1.85355L97.6471 1H96.44H90.25C90.1837 1 90.1201 0.973661 90.0732 0.926777C90.0263 0.879892 90 0.816304 90 0.75C90 0.683696 90.0263 0.620108 90.0732 0.573223C90.1201 0.526339 90.1837 0.5 90.25 0.5H98.25C98.3163 0.5 98.3799 0.52634 98.4268 0.573223C98.4737 0.620107 98.5 0.683695 98.5 0.75V8.75C98.5 8.81631 98.4737 8.87989 98.4268 8.92678C98.3799 8.97366 98.3163 9 98.25 9C98.1837 9 98.1201 8.97366 98.0732 8.92678C98.0263 8.87989 98 8.81631 98 8.75V2.56ZM81.25 1C80.388 1 79.5614 1.34241 78.9519 1.9519C78.3424 2.5614 78 3.38805 78 4.25V17.75C78 18.612 78.3424 19.4386 78.9519 20.0481C79.5614 20.6576 80.388 21 81.25 21H94.75C95.612 21 96.4386 20.6576 97.0481 20.0481C97.6576 19.4386 98 18.612 98 17.75V13.25C98 13.1837 98.0263 13.1201 98.0732 13.0732C98.1201 13.0263 98.1837 13 98.25 13C98.3163 13 98.3799 13.0263 98.4268 13.0732C98.4737 13.1201 98.5 13.1837 98.5 13.25V17.75C98.5 18.7446 98.1049 19.6984 97.4016 20.4016C96.6984 21.1049 95.7446 21.5 94.75 21.5H81.25C80.2554 21.5 79.3016 21.1049 78.5983 20.4016C77.8951 19.6984 77.5 18.7446 77.5 17.75V4.25C77.5 3.25544 77.8951 2.30161 78.5983 1.59835C79.3016 0.895088 80.2554 0.5 81.25 0.5H85.75C85.8163 0.5 85.8799 0.526339 85.9268 0.573223C85.9737 0.620108 86 0.683696 86 0.75C86 0.816304 85.9737 0.879892 85.9268 0.926777C85.8799 0.973661 85.8163 1 85.75 1H81.25Z" fill="black" stroke="url(#paint0_linear_560_188)"/>
<path d="M9.4834 16.6289L10.2581 17.2613L10.4841 16.9844L10.4834 16.6269L9.4834 16.6289ZM8.6748 17.3584L9.21806 18.198L9.22205 18.1954L8.6748 17.3584ZM5.58105 18.1758L5.56929 19.1758H5.58105V18.1758ZM4.21875 17.9297L3.85435 18.8609L3.85888 18.8627L4.21875 17.9297ZM1.6875 15.1699L2.62227 14.8144L2.61777 14.8031L1.6875 15.1699ZM1.18652 12.5508L0.186435 12.5508L0.186612 12.5641L1.18652 12.5508ZM1.18652 10.459L0.186523 10.4451V10.459H1.18652ZM1.30957 9.18457L0.326943 8.99867L0.325059 9.00925L1.30957 9.18457ZM1.66992 7.92773L2.60119 8.29214L2.60397 8.28487L1.66992 7.92773ZM3.07617 5.87988L3.71638 6.64814L3.7234 6.64218L3.07617 5.87988ZM4.13086 5.25586L3.77372 4.3218L3.76908 4.32359L4.13086 5.25586ZM6.95215 5.2998L6.58281 6.22911L6.58686 6.2307L6.95215 5.2998ZM8.17383 6.05566L8.86225 5.33036L8.85596 5.32438L8.84955 5.31851L8.17383 6.05566ZM9.02637 7.21582L8.13193 7.66304L8.13433 7.66779L9.02637 7.21582ZM9.46582 8.66602V9.66602H10.608L10.457 8.53385L9.46582 8.66602ZM9 8.66602L8.02294 8.87897L8.19447 9.66602H9V8.66602ZM7.81348 6.39844L8.50604 5.67701L8.49884 5.67024L7.81348 6.39844ZM4.2627 5.71289L3.89657 4.78231L3.8913 4.78441L4.2627 5.71289ZM3.32227 6.28418L3.97179 7.04459L3.97963 7.03775L3.32227 6.28418ZM2.08301 8.15625L1.14543 7.80844L1.14365 7.81331L2.08301 8.15625ZM1.77539 9.29883L2.75926 9.47771L2.75973 9.47513L1.77539 9.29883ZM1.66113 10.4414L0.661255 10.4258L0.661133 10.4336V10.4414H1.66113ZM1.66113 12.5508H0.661133V12.5582L0.661244 12.5657L1.66113 12.5508ZM1.77539 13.7549L0.789766 13.9238L0.790179 13.9262L1.77539 13.7549ZM2.0918 14.9238L3.02991 14.5774L3.02813 14.5727L2.0918 14.9238ZM2.61914 16.0049L1.76947 16.5323L1.77365 16.5389L2.61914 16.0049ZM3.375 16.875L4.03459 16.1234L4.02647 16.1162L4.01819 16.1093L3.375 16.875ZM4.35059 17.4727L3.97661 18.4001L3.98174 18.4021L4.35059 17.4727ZM5.58105 17.7012L5.60028 16.7013L5.59404 16.7013L5.58105 17.7012ZM8.31445 17.042L8.84276 17.8911L8.84775 17.8879L8.31445 17.042ZM9.01758 16.4092L9.80199 17.0294L10.0176 16.7568V16.4092H9.01758ZM9.01758 12.6826H10.0176V11.6826H9.01758V12.6826ZM5.55469 12.6826H4.55469V13.6826H5.55469V12.6826ZM5.55469 12.1992V11.1992H4.55469V12.1992H5.55469ZM9.47461 12.1992L10.4746 12.1972L10.4726 11.1992H9.47461V12.1992ZM8.70874 15.9965C8.53804 16.2056 8.34483 16.3794 8.12756 16.5214L9.22205 18.1954C9.61415 17.939 9.96001 17.6264 10.2581 17.2613L8.70874 15.9965ZM8.13155 16.5188C7.89728 16.6704 7.64611 16.7951 7.37636 16.8927L8.05724 18.7733C8.46717 18.6248 8.85467 18.4331 9.21806 18.198L8.13155 16.5188ZM7.37636 16.8927C7.10126 16.9923 6.81569 17.0639 6.51845 17.1071L6.80577 19.0863C7.23509 19.024 7.65265 18.9198 8.05724 18.7733L7.37636 16.8927ZM6.51845 17.1071C6.20146 17.1531 5.88913 17.1758 5.58105 17.1758V19.1758C5.98783 19.1758 6.39619 19.1458 6.80577 19.0863L6.51845 17.1071ZM5.59282 17.1759C5.19818 17.1712 4.8639 17.1067 4.57862 16.9967L3.85888 18.8627C4.39391 19.0691 4.96783 19.1686 5.56929 19.1757L5.59282 17.1759ZM4.58315 16.9984C4.2761 16.8783 4.00707 16.7189 3.77046 16.521L2.48735 18.0552C2.89528 18.3963 3.3528 18.6647 3.85435 18.8609L4.58315 16.9984ZM3.77046 16.521C3.52517 16.3159 3.30806 16.0728 3.11927 15.7873L1.45104 16.8905C1.74272 17.3315 2.08811 17.7213 2.48735 18.0552L3.77046 16.521ZM3.11927 15.7873C2.92057 15.4868 2.75478 15.1631 2.6222 14.8145L0.752804 15.5254C0.936627 16.0088 1.16927 16.4644 1.45104 16.8905L3.11927 15.7873ZM2.61777 14.8031C2.47768 14.4478 2.3723 14.0794 2.30181 13.6968L0.334906 14.0591C0.428483 14.5671 0.56919 15.06 0.757227 15.5368L2.61777 14.8031ZM2.30181 13.6968C2.22967 13.3052 2.19152 12.9189 2.18643 12.5374L0.186612 12.5641C0.193245 13.0616 0.242982 13.5601 0.334906 14.0591L2.30181 13.6968ZM2.18652 12.5508V10.459H0.186523V12.5508H2.18652ZM2.18643 10.4729C2.19151 10.1067 2.22712 9.7359 2.29408 9.35989L0.325059 9.00925C0.239676 9.48871 0.193253 9.9675 0.18662 10.4451L2.18643 10.4729ZM2.29214 9.37046C2.36283 8.99683 2.46594 8.6377 2.60116 8.29213L0.738679 7.56334C0.557496 8.02636 0.420375 8.50512 0.327 8.99868L2.29214 9.37046ZM2.60397 8.28487C2.73002 7.95521 2.88931 7.64655 3.08205 7.35743L1.41795 6.24803C1.14194 6.66205 0.914509 7.10339 0.73587 7.5706L2.60397 8.28487ZM3.08205 7.35743C3.26446 7.08381 3.47575 6.84861 3.71636 6.6481L2.43599 5.11166C2.04379 5.4385 1.70429 5.81853 1.41795 6.24803L3.08205 7.35743ZM3.7234 6.64218C3.94609 6.4531 4.20048 6.3015 4.49263 6.18812L3.76908 4.32359C3.27609 4.51491 2.82735 4.77932 2.42894 5.11759L3.7234 6.64218ZM4.488 6.18991C4.75893 6.08632 5.0755 6.02734 5.44922 6.02734V4.02734C4.862 4.02734 4.29967 4.12071 3.77372 4.32181L4.488 6.18991ZM5.44922 6.02734C5.88132 6.02734 6.25537 6.09896 6.58281 6.2291L7.32148 4.37051C6.73486 4.13736 6.10696 4.02734 5.44922 4.02734V6.02734ZM6.58686 6.2307C6.94019 6.36935 7.24107 6.5572 7.4981 6.79282L8.84955 5.31851C8.40347 4.9096 7.88989 4.59354 7.31744 4.36891L6.58686 6.2307ZM7.4854 6.78097C7.74308 7.02554 7.95892 7.317 8.13194 7.66303L9.92079 6.76861C9.6485 6.22402 9.29598 5.74203 8.86225 5.33036L7.4854 6.78097ZM8.13433 7.66779C8.30227 7.99925 8.41795 8.37334 8.47459 8.79818L10.457 8.53385C10.3731 7.90401 10.1958 7.3113 9.9184 6.76386L8.13433 7.66779ZM9.46582 7.66602H9V9.66602H9.46582V7.66602ZM9.97706 8.45307C9.86028 7.91725 9.68275 7.41222 9.44073 6.94243L7.66278 7.85835C7.81921 8.162 7.9405 8.50072 8.02294 8.87897L9.97706 8.45307ZM9.44073 6.94243C9.19461 6.46467 8.88402 6.03994 8.50601 5.67705L7.12094 7.11982C7.32887 7.31943 7.51047 7.56268 7.66278 7.85835L9.44073 6.94243ZM8.49884 5.67024C8.1066 5.30107 7.65438 5.01494 7.15014 4.81174L6.40259 6.66678C6.68351 6.77998 6.9227 6.93331 7.12811 7.12664L8.49884 5.67024ZM7.15014 4.81174C6.62107 4.59853 6.04891 4.50195 5.44922 4.50195V6.50195C5.8339 6.50195 6.14651 6.56358 6.40259 6.66678L7.15014 4.81174ZM5.44922 4.50195C4.90636 4.50195 4.38467 4.59029 3.89657 4.78232L4.62882 6.64346C4.85557 6.55424 5.12489 6.50195 5.44922 6.50195V4.50195ZM3.8913 4.78441C3.43907 4.96531 3.02814 5.21374 2.6649 5.53061L3.97963 7.03775C4.16717 6.87415 4.38319 6.74172 4.63409 6.64137L3.8913 4.78441ZM2.67278 5.52381C2.31362 5.83058 2.00571 6.18783 1.74911 6.59105L3.43643 7.66481C3.58999 7.4235 3.76841 7.21824 3.97175 7.04455L2.67278 5.52381ZM1.74911 6.59105C1.50561 6.97371 1.3044 7.37996 1.14544 7.80844L3.02057 8.50406C3.13115 8.20598 3.26978 7.92668 3.43643 7.66481L1.74911 6.59105ZM1.14365 7.81331C0.988824 8.2374 0.871377 8.67406 0.791054 9.12253L2.75973 9.47513C2.82003 9.13844 2.90766 8.81338 3.02237 8.49919L1.14365 7.81331ZM0.791521 9.11994C0.711877 9.55798 0.66801 9.99346 0.661255 10.4258L2.66101 10.457C2.66597 10.1393 2.69828 9.81311 2.75926 9.47771L0.791521 9.11994ZM0.661133 10.4414V12.5508H2.66113V10.4414H0.661133ZM0.661244 12.5657C0.667919 13.0129 0.711247 13.4658 0.789768 13.9238L2.76101 13.5859C2.69891 13.2236 2.66607 12.8738 2.66102 12.5359L0.661244 12.5657ZM0.790179 13.9262C0.870893 14.3903 0.992457 14.8403 1.15547 15.275L3.02813 14.5727C2.90989 14.2574 2.82051 13.928 2.7606 13.5835L0.790179 13.9262ZM1.1537 15.2702C1.31729 15.7133 1.52253 16.1343 1.7695 16.5322L3.46878 15.4775C3.29388 15.1957 3.14755 14.8961 3.02989 14.5775L1.1537 15.2702ZM1.77365 16.5389C2.03786 16.9572 2.35732 17.3261 2.73181 17.6407L4.01819 16.1093C3.80675 15.9317 3.62229 15.7205 3.46463 15.4709L1.77365 16.5389ZM2.71541 17.6266C3.08931 17.9547 3.51161 18.2126 3.97662 18.4001L4.72455 16.5452C4.463 16.4398 4.23491 16.2992 4.03459 16.1234L2.71541 17.6266ZM3.98174 18.4021C4.47856 18.5993 5.01142 18.6939 5.56807 18.7011L5.59404 16.7013C5.24835 16.6968 4.9609 16.639 4.71943 16.5432L3.98174 18.4021ZM5.56183 18.701C5.9182 18.7078 6.28038 18.6872 6.64774 18.6404L6.39523 16.6564C6.11806 16.6917 5.85328 16.7062 5.60028 16.7014L5.56183 18.701ZM6.64774 18.6404C7.03183 18.5916 7.40712 18.5075 7.77265 18.388L7.15118 16.487C6.90734 16.5667 6.65567 16.6233 6.39523 16.6564L6.64774 18.6404ZM7.77265 18.388C8.1512 18.2642 8.50873 18.0989 8.84276 17.891L7.78615 16.1929C7.59283 16.3132 7.382 16.4115 7.15118 16.487L7.77265 18.388ZM8.84775 17.8879C9.21396 17.657 9.53305 17.3696 9.80199 17.0294L8.23316 15.7889C8.10367 15.9527 7.954 16.0871 7.78115 16.1961L8.84775 17.8879ZM10.0176 16.4092V12.6826H8.01758V16.4092H10.0176ZM9.01758 11.6826H5.55469V13.6826H9.01758V11.6826ZM6.55469 12.6826V12.1992H4.55469V12.6826H6.55469ZM5.55469 13.1992H9.47461V11.1992H5.55469V13.1992ZM8.47461 12.2012L8.4834 16.6309L10.4834 16.6269L10.4746 12.1972L8.47461 12.2012ZM13.3711 8.49023V7.49023H12.3711V8.49023H13.3711ZM17.335 8.49023H18.335V7.49023H17.335V8.49023ZM17.335 17.5254H16.335V18.5254H17.335V17.5254ZM20.71 17.5254H21.71V16.5254H20.71V17.5254ZM20.71 18V19H21.71V18H20.71ZM13.3711 18H12.3711V19H13.3711V18ZM13.3711 17.5254V16.5254H12.3711V17.5254H13.3711ZM16.8604 17.5254V18.5254H17.8604V17.5254H16.8604ZM16.8604 8.96484H17.8604V7.96484H16.8604V8.96484ZM13.3711 8.96484H12.3711V9.96484H13.3711V8.96484ZM16.4825 5.5459L17.4569 5.77076L17.4586 5.76311L17.4603 5.75543L16.4825 5.5459ZM16.5791 5.32617L15.7983 4.70148L15.7839 4.71942L15.7704 4.738L16.5791 5.32617ZM16.7637 5.18555L16.3698 4.2664L16.3571 4.27182L16.3447 4.27759L16.7637 5.18555ZM17.3614 5.18555L16.9423 6.09351L16.9548 6.09927L16.9674 6.10469L17.3614 5.18555ZM17.5635 5.32617L18.3723 4.738L18.3416 4.6959L18.3068 4.65721L17.5635 5.32617ZM17.6602 5.5459L16.6824 5.75543L16.6916 5.79819L16.7044 5.83998L17.6602 5.5459ZM17.5547 6.21387L16.746 5.6257L16.7371 5.63798L16.7285 5.65053L17.5547 6.21387ZM16.5791 6.21387L15.7355 6.75074L15.744 6.76411L15.7529 6.7772L16.5791 6.21387ZM13.3711 9.49023H17.335V7.49023H13.3711V9.49023ZM16.335 8.49023V17.5254H18.335V8.49023H16.335ZM17.335 18.5254H20.71V16.5254H17.335V18.5254ZM19.71 17.5254V18H21.71V17.5254H19.71ZM20.71 17H13.3711V19H20.71V17ZM14.3711 18V17.5254H12.3711V18H14.3711ZM13.3711 18.5254H16.8604V16.5254H13.3711V18.5254ZM17.8604 17.5254V8.96484H15.8604V17.5254H17.8604ZM16.8604 7.96484H13.3711V9.96484H16.8604V7.96484ZM14.3711 8.96484V8.49023H12.3711V8.96484H14.3711ZM17.4561 5.7832C17.4561 5.77313 17.4571 5.76964 17.4569 5.77076L15.5081 5.32104C15.4727 5.4745 15.4561 5.62922 15.4561 5.7832H17.4561ZM17.4603 5.75543C17.4501 5.8027 17.4275 5.85986 17.3879 5.91434L15.7704 4.738C15.637 4.92139 15.5499 5.12504 15.5047 5.33637L17.4603 5.75543ZM17.36 5.95087C17.299 6.02718 17.2307 6.07137 17.1828 6.09351L16.3447 4.27759C16.1443 4.37004 15.9531 4.50798 15.7983 4.70148L17.36 5.95087ZM17.1576 6.10469C17.1158 6.12262 17.0848 6.12928 17.0711 6.13162C17.0576 6.13394 17.0565 6.13281 17.0713 6.13281V4.13281C16.8608 4.13281 16.6139 4.16178 16.3698 4.2664L17.1576 6.10469ZM17.0713 6.13281C17.081 6.13281 17.0735 6.13362 17.0528 6.12987C17.032 6.12608 16.9925 6.11667 16.9423 6.09351L17.7804 4.27759C17.5316 4.16272 17.2795 4.13281 17.0713 4.13281V6.13281ZM16.9674 6.10469C16.9339 6.09032 16.8765 6.05767 16.8202 5.99514L18.3068 4.65721C18.1451 4.47748 17.9529 4.35109 17.7553 4.2664L16.9674 6.10469ZM16.7548 5.91434C16.7152 5.85986 16.6925 5.8027 16.6824 5.75543L18.638 5.33637C18.5927 5.12504 18.5056 4.92139 18.3723 4.738L16.7548 5.91434ZM16.7044 5.83998C16.6977 5.8181 16.6954 5.79791 16.6954 5.7832H18.6954C18.6954 5.60444 18.6696 5.42604 18.616 5.25181L16.7044 5.83998ZM16.6954 5.7832C16.6954 5.76193 16.6988 5.73225 16.7096 5.69912C16.7204 5.66606 16.7348 5.64113 16.746 5.6257L18.3635 6.80204C18.5805 6.5036 18.6954 6.15445 18.6954 5.7832H16.6954ZM16.7285 5.65053C16.8089 5.5326 16.9141 5.46338 16.9966 5.43041C17.0676 5.40199 17.1032 5.40723 17.0713 5.40723V7.40723C17.4614 7.40723 18.0261 7.2976 18.381 6.7772L16.7285 5.65053ZM17.0713 5.40723C17.0339 5.40723 17.0654 5.40128 17.1338 5.42814C17.2135 5.45947 17.3219 5.52804 17.4054 5.65053L15.7529 6.7772C16.1119 7.30367 16.6866 7.40723 17.0713 7.40723V5.40723ZM17.4228 5.67699C17.4323 5.69187 17.4418 5.71181 17.4484 5.7348C17.4549 5.75754 17.4561 5.77493 17.4561 5.7832H15.4561C15.4561 6.1245 15.5476 6.4555 15.7355 6.75074L17.4228 5.67699ZM27.5772 5.92383L28.5772 5.92725L28.5807 4.92383H27.5772V5.92383ZM27.5684 8.49023L26.5684 8.48681L26.565 9.49023H27.5684V8.49023ZM30.9962 8.49023H31.9962V7.49023H30.9962V8.49023ZM30.9962 8.97363V9.97363H31.9962V8.97363H30.9962ZM27.5684 8.97363V7.97363H26.5684V8.97363H27.5684ZM27.5684 15.7236H26.5684V15.7395L26.5689 15.7554L27.5684 15.7236ZM27.7618 16.6553L26.8551 17.077L26.861 17.0898L26.8674 17.1025L27.7618 16.6553ZM28.2628 17.2529L28.8628 16.4529L28.8556 16.4475L28.8483 16.4423L28.2628 17.2529ZM29.0011 17.5957L28.7585 18.5659L28.7632 18.567L29.0011 17.5957ZM31.1016 17.6484L31.1729 18.6459L31.2081 18.6434L31.2431 18.6384L31.1016 17.6484ZM31.3389 17.6221L32.3165 17.4112L32.1325 16.5581L31.2622 16.625L31.3389 17.6221ZM31.4356 18.0703L31.6452 19.0481L32.6243 18.8383L32.4131 17.8595L31.4356 18.0703ZM30.9434 18.1406L30.8722 17.1432L30.8526 17.1446L30.833 17.1467L30.9434 18.1406ZM30.4688 18.167V17.167H30.4503L30.4318 17.1677L30.4688 18.167ZM28.8253 18.0439L29.0678 17.0738L29.0602 17.0719L29.0525 17.0701L28.8253 18.0439ZM27.0675 15.7236H26.0675V15.7365L26.0678 15.7493L27.0675 15.7236ZM27.0675 8.97363H28.0675V7.97363H27.0675V8.97363ZM24.2725 8.97363H23.2725V9.97363H24.2725V8.97363ZM24.2725 8.49023V7.49023H23.2725V8.49023H24.2725ZM27.0675 8.49023V9.49023H28.0675V8.49023H27.0675ZM27.0675 5.92383V4.92383H26.0675V5.92383H27.0675ZM26.5772 5.9204L26.5684 8.48681L28.5684 8.49366L28.5772 5.92725L26.5772 5.9204ZM27.5684 9.49023H30.9962V7.49023H27.5684V9.49023ZM29.9962 8.49023V8.97363H31.9962V8.49023H29.9962ZM30.9962 7.97363H27.5684V9.97363H30.9962V7.97363ZM26.5684 8.97363V15.7236H28.5684V8.97363H26.5684ZM26.5689 15.7554C26.5836 16.2173 26.6655 16.6695 26.8551 17.077L28.6685 16.2335C28.6237 16.1371 28.5767 15.9682 28.5679 15.6919L26.5689 15.7554ZM26.8674 17.1025C27.0583 17.4843 27.328 17.8114 27.6773 18.0636L28.8483 16.4423C28.7756 16.3898 28.7114 16.3184 28.6562 16.2081L26.8674 17.1025ZM27.6628 18.0529C27.9905 18.2987 28.3609 18.4664 28.7585 18.5658L29.2436 16.6256C29.0787 16.5843 28.9569 16.5235 28.8628 16.4529L27.6628 18.0529ZM28.7632 18.567C29.1387 18.659 29.5332 18.7012 29.9415 18.7012V16.7012C29.6701 16.7012 29.4376 16.6731 29.2389 16.6244L28.7632 18.567ZM29.9415 18.7012C30.112 18.7012 30.2801 18.698 30.4457 18.6916L30.3689 16.6931C30.2298 16.6985 30.0874 16.7012 29.9415 16.7012V18.7012ZM30.4457 18.6916C30.6109 18.6853 30.776 18.6758 30.941 18.6631L30.7876 16.669C30.648 16.6797 30.5084 16.6878 30.3689 16.6931L30.4457 18.6916ZM30.941 18.6631C31.0153 18.6574 31.0925 18.6516 31.1729 18.6459L31.0304 16.651C30.9467 16.657 30.8658 16.663 30.7876 16.669L30.941 18.6631ZM31.2431 18.6384C31.3054 18.6295 31.3628 18.6232 31.4156 18.6191L31.2622 16.625C31.1627 16.6327 31.062 16.644 30.9602 16.6585L31.2431 18.6384ZM30.3614 17.8329L30.4581 18.2812L32.4131 17.8595L32.3165 17.4112L30.3614 17.8329ZM31.2261 17.0925C31.1663 17.1053 31.107 17.1159 31.0481 17.1243L31.331 19.1042C31.4361 19.0892 31.5408 19.0705 31.6452 19.0481L31.2261 17.0925ZM31.0481 17.1243C30.9892 17.1327 30.9306 17.139 30.8722 17.1432L31.0147 19.1381C31.1204 19.1305 31.2258 19.1192 31.331 19.1042L31.0481 17.1243ZM30.833 17.1467C30.7112 17.1603 30.5899 17.167 30.4688 17.167V19.167C30.6642 19.167 30.8592 19.1561 31.0539 19.1345L30.833 17.1467ZM30.4318 17.1677C30.2864 17.1731 30.1376 17.1758 29.9854 17.1758V19.1758C30.1614 19.1758 30.3349 19.1726 30.5058 19.1663L30.4318 17.1677ZM29.9854 17.1758C29.6323 17.1758 29.3283 17.1389 29.0678 17.0738L28.5827 19.0141C29.0253 19.1247 29.4948 19.1758 29.9854 19.1758V17.1758ZM29.0525 17.0701C28.8196 17.0158 28.6455 16.9316 28.5112 16.8309L27.3112 18.4309C27.6925 18.7168 28.1278 18.9081 28.598 19.0178L29.0525 17.0701ZM28.5112 16.8309C28.3923 16.7417 28.2908 16.6214 28.2092 16.4484L26.4003 17.3016C26.6117 17.7496 26.9145 18.1333 27.3112 18.4309L28.5112 16.8309ZM28.2092 16.4484C28.1381 16.2977 28.0764 16.0599 28.0671 15.698L26.0678 15.7493C26.0819 16.3015 26.1784 16.8312 26.4003 17.3016L28.2092 16.4484ZM28.0675 15.7236V8.97363H26.0675V15.7236H28.0675ZM27.0675 7.97363H24.2725V9.97363H27.0675V7.97363ZM25.2725 8.97363V8.49023H23.2725V8.97363H25.2725ZM24.2725 9.49023H27.0675V7.49023H24.2725V9.49023ZM28.0675 8.49023V5.92383H26.0675V8.49023H28.0675ZM27.0675 6.92383H27.5772V4.92383H27.0675V6.92383ZM43.0577 18V19H44.0577V18H43.0577ZM42.6095 18H41.6095V19H42.6095V18ZM42.6095 11.6543H43.6095V10.6543H42.6095V11.6543ZM35.8243 11.6543V10.6543H34.8243V11.6543H35.8243ZM35.8243 18V19H36.8243V18H35.8243ZM35.3761 18H34.3761V19H35.3761V18ZM35.3761 5.20312V4.20312H34.3761V5.20312H35.3761ZM35.8243 5.20312H36.8243V4.20312H35.8243V5.20312ZM35.8243 11.1797H34.8243V12.1797H35.8243V11.1797ZM42.6095 11.1797V12.1797H43.6095V11.1797H42.6095ZM42.6095 5.20312V4.20312H41.6095V5.20312H42.6095ZM43.0577 5.20312H44.0577V4.20312H43.0577V5.20312ZM43.0577 17H42.6095V19H43.0577V17ZM43.6095 18V11.6543H41.6095V18H43.6095ZM42.6095 10.6543H35.8243V12.6543H42.6095V10.6543ZM34.8243 11.6543V18H36.8243V11.6543H34.8243ZM35.8243 17H35.3761V19H35.8243V17ZM36.3761 18V5.20312H34.3761V18H36.3761ZM35.3761 6.20312H35.8243V4.20312H35.3761V6.20312ZM34.8243 5.20312V11.1797H36.8243V5.20312H34.8243ZM35.8243 12.1797H42.6095V10.1797H35.8243V12.1797ZM43.6095 11.1797V5.20312H41.6095V11.1797H43.6095ZM42.6095 6.20312H43.0577V4.20312H42.6095V6.20312ZM42.0577 5.20312V18H44.0577V5.20312H42.0577ZM53.5548 18L52.5549 17.9948L52.5496 19H53.5548V18ZM53.5636 16.3037L54.5636 16.3089L52.6764 15.8424L53.5636 16.3037ZM52.2541 17.6836L52.7579 18.5474L52.7607 18.5458L52.2541 17.6836ZM48.756 17.8945L48.3302 18.7994L48.3353 18.8017L48.756 17.8945ZM47.7716 17.1211L48.558 16.5033L48.5519 16.4955L48.5456 16.4879L47.7716 17.1211ZM46.9806 14.5283L45.9806 14.5283L45.9807 14.5397L46.9806 14.5283ZM46.9806 8.49023V7.49023H45.9806V8.49023H46.9806ZM47.4552 8.49023H48.4552V7.49023H47.4552V8.49023ZM47.4552 14.5459L46.4551 14.5459L46.4553 14.5592L47.4552 14.5459ZM48.1144 16.7783L48.9125 16.1757L48.9046 16.1655L48.1144 16.7783ZM51.4279 17.5254L51.722 18.4813L51.7353 18.477L51.4279 17.5254ZM52.4386 16.998L51.8258 16.2078L51.8236 16.2095L52.4386 16.998ZM53.1505 16.1807L52.289 15.673L52.2862 15.6778L53.1505 16.1807ZM53.5636 15.0732L54.5442 15.2694L54.5638 15.1716L54.5636 15.0719L53.5636 15.0732ZM53.5548 8.49023V7.49023H52.5535L52.5548 8.49157L53.5548 8.49023ZM54.047 8.49023H55.047V7.49023H54.047V8.49023ZM54.047 18V19H55.047V18H54.047ZM54.5548 18.0052L54.5636 16.3089L52.5636 16.2985L52.5549 17.9948L54.5548 18.0052ZM52.6764 15.8424C52.4582 16.2619 52.1535 16.5828 51.7474 16.8214L52.7607 18.5458C53.4914 18.1164 54.0596 17.5174 54.4508 16.7651L52.6764 15.8424ZM51.7502 16.8198C51.3745 17.0389 50.8699 17.1758 50.1886 17.1758V19.1758C51.1363 19.1758 52.0086 18.9845 52.7579 18.5474L51.7502 16.8198ZM50.1886 17.1758C49.7497 17.1758 49.4219 17.101 49.1767 16.9873L48.3353 18.8017C48.8987 19.063 49.526 19.1758 50.1886 19.1758V17.1758ZM49.1818 16.9897C48.9163 16.8647 48.7143 16.7022 48.558 16.5033L46.9853 17.7389C47.3446 18.1962 47.7989 18.5493 48.3302 18.7993L49.1818 16.9897ZM48.5456 16.4879C48.3767 16.2814 48.2389 16.0219 48.1433 15.6917L46.2222 16.2478C46.3844 16.8081 46.6392 17.3162 46.9977 17.7543L48.5456 16.4879ZM48.1433 15.6917C48.0422 15.3422 47.9855 14.9523 47.9806 14.517L45.9807 14.5397C45.9875 15.1356 46.0656 15.7067 46.2222 16.2478L48.1433 15.6917ZM47.9806 14.5283V8.49023H45.9806V14.5283H47.9806ZM46.9806 9.49023H47.4552V7.49023H46.9806V9.49023ZM46.4552 8.49023V14.5459H48.4552V8.49023H46.4552ZM46.4553 14.5592C46.4622 15.0749 46.5278 15.5711 46.6585 16.0432L48.586 15.5095C48.5058 15.2199 48.46 14.8958 48.4551 14.5326L46.4553 14.5592ZM46.6585 16.0432C46.7957 16.5385 47.015 16.9924 47.3242 17.3911L48.9046 16.1655C48.7685 15.99 48.6597 15.7759 48.586 15.5095L46.6585 16.0432ZM47.3164 17.3809C47.6336 17.801 48.039 18.126 48.5146 18.3556L49.3841 16.5545C49.1801 16.456 49.0288 16.3298 48.9125 16.1757L47.3164 17.3809ZM48.5146 18.3556C49.0204 18.5998 49.5836 18.7012 50.1711 18.7012V16.7012C49.8093 16.7012 49.5581 16.6385 49.3841 16.5545L48.5146 18.3556ZM50.1711 18.7012C50.7134 18.7012 51.233 18.6316 51.722 18.4812L51.1338 16.5696C50.861 16.6535 50.5428 16.7012 50.1711 16.7012V18.7012ZM51.7353 18.477C52.2188 18.3207 52.6616 18.0924 53.0537 17.7865L51.8236 16.2095C51.6297 16.3608 51.3987 16.4839 51.1205 16.5738L51.7353 18.477ZM53.0515 17.7883C53.4428 17.4848 53.7645 17.1139 54.0149 16.6836L52.2862 15.6778C52.1616 15.892 52.0087 16.066 51.8258 16.2078L53.0515 17.7883ZM54.0121 16.6884C54.2676 16.2548 54.4424 15.7786 54.5442 15.2694L52.5831 14.8771C52.5208 15.1882 52.4202 15.4503 52.289 15.673L54.0121 16.6884ZM54.5636 15.0719L54.5548 8.4889L52.5548 8.49157L52.5636 15.0746L54.5636 15.0719ZM53.5548 9.49023H54.047V7.49023H53.5548V9.49023ZM53.047 8.49023V18H55.047V8.49023H53.047ZM54.047 17H53.5548V19H54.047V17ZM65.6076 13.333L66.6075 13.3489L66.6076 13.3409V13.333H65.6076ZM65.5109 14.4668L66.4993 14.6189L66.4997 14.6166L65.5109 14.4668ZM64.7551 16.585L63.9088 16.0521L63.9018 16.0635L64.7551 16.585ZM64.052 17.4111L64.6922 18.1794L64.7001 18.1727L64.052 17.4111ZM63.0852 17.9736L63.438 18.9094L63.4461 18.9062L63.0852 17.9736ZM60.1496 17.7627L60.5968 16.8682L60.5892 16.8645L60.1496 17.7627ZM59.385 17.2705L58.7278 18.0243L58.7381 18.0332L58.7486 18.0419L59.385 17.2705ZM58.7961 16.5938L59.6341 16.0481L57.7961 13.2254V16.5938H58.7961ZM58.7961 18V19H59.7961V18H58.7961ZM58.3215 18H57.3215V19H58.3215V18ZM58.3215 4.5V3.5H57.3215V4.5H58.3215ZM58.7961 4.5H59.7961V3.5H58.7961V4.5ZM58.7961 10.1074H57.7961V13.7866L59.6585 10.6136L58.7961 10.1074ZM60.0969 8.79785L59.5966 7.93199L59.5895 7.93611L59.5824 7.94036L60.0969 8.79785ZM60.9318 8.44629L61.2015 9.40933L61.214 9.40565L60.9318 8.44629ZM63.0852 8.5166L62.7373 9.45418L62.7422 9.45596L63.0852 8.5166ZM64.052 9.06152L64.7001 8.29992L64.6905 8.29196L64.052 9.06152ZM64.7551 9.8877L63.9017 10.4092L63.9088 10.4205L64.7551 9.8877ZM65.2473 10.8984L66.1928 10.5729L66.1904 10.566L66.188 10.5592L65.2473 10.8984ZM65.5109 12.0146L64.5201 12.1498L64.5213 12.1582L64.5226 12.1667L65.5109 12.0146ZM65.6076 13.1484H66.6076V13.1406L66.6075 13.1328L65.6076 13.1484ZM65.1154 13.1484H66.1154V13.1393L66.1153 13.1303L65.1154 13.1484ZM65.0363 12.1553L64.0454 12.2896L64.0457 12.2919L65.0363 12.1553ZM64.8166 11.1533L65.772 10.858L65.7696 10.8501L65.767 10.8423L64.8166 11.1533ZM63.8059 9.4834L64.4758 8.74101L64.4663 8.73245L64.4566 8.72414L63.8059 9.4834ZM62.9533 8.98242L62.576 9.90851L62.5863 9.91269L62.5966 9.91664L62.9533 8.98242ZM59.965 9.43066L60.5706 10.2265L60.579 10.22L59.965 9.43066ZM59.2531 10.1689L58.4394 9.5877L58.4371 9.59093L59.2531 10.1689ZM58.7961 11.1006L57.841 10.8042L57.7961 10.949V11.1006H58.7961ZM58.7961 15.7061H57.7961V15.8739L57.8509 16.0326L58.7961 15.7061ZM59.2883 16.5674L58.5303 17.2196L58.5384 17.2291L58.5467 17.2383L59.2883 16.5674ZM60.923 17.5781L60.6554 18.5416L60.6637 18.544L60.6721 18.5461L60.923 17.5781ZM62.9709 17.5166L63.3276 18.4508L63.335 18.448L63.3423 18.4451L62.9709 17.5166ZM63.8146 16.998L64.4847 17.7405L64.4937 17.7321L63.8146 16.998ZM64.4123 16.2422L63.5517 15.7329L63.5478 15.7394L63.5441 15.746L64.4123 16.2422ZM64.8254 15.3281L65.7758 15.6392L65.7784 15.6313L65.7808 15.6234L64.8254 15.3281ZM65.0363 14.335L64.0457 14.1983L64.0445 14.2067L64.0435 14.2151L65.0363 14.335ZM65.1154 13.333L66.1153 13.3509L66.1154 13.3419V13.333H65.1154ZM64.6077 13.3171C64.6026 13.6389 64.5745 13.972 64.5222 14.317L66.4997 14.6166C66.5646 14.1881 66.6009 13.7654 66.6075 13.3489L64.6077 13.3171ZM64.5226 14.3147C64.4729 14.6378 64.3962 14.9488 64.2929 15.2487L66.184 15.8997C66.3269 15.4848 66.4318 15.0575 66.4993 14.6189L64.5226 14.3147ZM64.2929 15.2487C64.1946 15.5342 64.0667 15.8015 63.9088 16.0521L65.6013 17.1178C65.8419 16.7356 66.0362 16.329 66.184 15.8997L64.2929 15.2487ZM63.9018 16.0635C63.7623 16.2919 63.5965 16.4856 63.4038 16.6496L64.7001 18.1727C65.0582 17.8679 65.3612 17.5109 65.6084 17.1064L63.9018 16.0635ZM63.4118 16.6429C63.2192 16.8034 62.9926 16.9372 62.7242 17.0411L63.4461 18.9062C63.9043 18.7289 64.3222 18.4877 64.6921 18.1794L63.4118 16.6429ZM62.7324 17.0379C62.5074 17.1227 62.2231 17.1758 61.8635 17.1758V19.1758C62.4179 19.1758 62.948 19.0941 63.438 18.9093L62.7324 17.0379ZM61.8635 17.1758C61.6588 17.1758 61.447 17.1508 61.2267 17.0979L60.76 19.0427C61.1256 19.1305 61.494 19.1758 61.8635 19.1758V17.1758ZM61.2267 17.0979C61.0078 17.0454 60.7983 16.969 60.5968 16.8683L59.7024 18.6571C60.04 18.8259 60.393 18.9546 60.76 19.0427L61.2267 17.0979ZM60.5892 16.8645C60.3835 16.7638 60.1948 16.6422 60.0213 16.4991L58.7486 18.0419C59.0439 18.2855 59.365 18.492 59.7101 18.6609L60.5892 16.8645ZM60.0421 16.5167C59.8826 16.3777 59.7473 16.222 59.6341 16.0481L57.9581 17.1394C58.173 17.4694 58.4303 17.7649 58.7278 18.0243L60.0421 16.5167ZM57.7961 16.5938V18H59.7961V16.5938H57.7961ZM58.7961 17H58.3215V19H58.7961V17ZM59.3215 18V4.5H57.3215V18H59.3215ZM58.3215 5.5H58.7961V3.5H58.3215V5.5ZM57.7961 4.5V10.1074H59.7961V4.5H57.7961ZM59.6585 10.6136C59.7734 10.4179 59.9115 10.2393 60.0745 10.0762L58.6603 8.66203C58.378 8.94433 58.1352 9.25784 57.9337 9.60122L59.6585 10.6136ZM60.0745 10.0762C60.2407 9.91001 60.4195 9.77048 60.6114 9.65534L59.5824 7.94036C59.2469 8.14163 58.9393 8.38296 58.6603 8.66203L60.0745 10.0762ZM60.5972 9.66372C60.7884 9.55323 60.9892 9.46868 61.2015 9.40925L60.6622 7.48333C60.2885 7.58796 59.9327 7.73779 59.5966 7.93199L60.5972 9.66372ZM61.214 9.40565C61.4215 9.34463 61.6312 9.31445 61.8459 9.31445V7.31445C61.4395 7.31445 61.0398 7.37216 60.6497 7.48692L61.214 9.40565ZM61.8459 9.31445C62.2126 9.31445 62.5047 9.36786 62.7373 9.45417L63.433 7.57904C62.939 7.39581 62.405 7.31445 61.8459 7.31445V9.31445ZM62.7422 9.45596C63.0143 9.55531 63.2343 9.6825 63.4134 9.83109L64.6905 8.29196C64.3188 7.98352 63.8942 7.74743 63.4281 7.57724L62.7422 9.45596ZM63.4038 9.82306C63.5965 9.98704 63.7623 10.1808 63.9018 10.4091L65.6084 9.36625C65.3612 8.96177 65.0582 8.60476 64.7001 8.29998L63.4038 9.82306ZM63.9088 10.4205C64.0691 10.675 64.2017 10.9469 64.3066 11.2377L66.188 10.5592C66.035 10.1351 65.8395 9.7332 65.6013 9.35488L63.9088 10.4205ZM64.3017 11.224C64.4028 11.5176 64.4759 11.8257 64.5201 12.1498L66.5018 11.8795C66.4405 11.4301 66.3378 10.9942 66.1928 10.5729L64.3017 11.224ZM64.5226 12.1667C64.5744 12.5036 64.6026 12.836 64.6077 13.1641L66.6075 13.1328C66.6009 12.7109 66.5647 12.2874 66.4993 11.8626L64.5226 12.1667ZM64.6076 13.1484V13.333H66.6076V13.1484H64.6076ZM66.1153 13.1303C66.1086 12.7659 66.0789 12.3953 66.0269 12.0186L64.0457 12.2919C64.0875 12.595 64.1105 12.8864 64.1156 13.1666L66.1153 13.1303ZM66.0273 12.0209C65.9732 11.6225 65.8884 11.2346 65.772 10.858L63.8612 11.4486C63.944 11.7165 64.0057 11.9966 64.0454 12.2896L66.0273 12.0209ZM65.767 10.8423C65.641 10.4573 65.479 10.0905 65.2805 9.74312L63.5441 10.7354C63.6737 10.9623 63.7812 11.2048 63.8662 11.4644L65.767 10.8423ZM65.2805 9.74312C65.065 9.36597 64.7965 9.03041 64.4758 8.74101L63.1359 10.2258C63.2957 10.37 63.4314 10.5383 63.5441 10.7354L65.2805 9.74312ZM64.4566 8.72414C64.1178 8.43373 63.7327 8.20959 63.31 8.0482L62.5966 9.91664C62.8185 10.0013 63.0017 10.1112 63.1551 10.2427L64.4566 8.72414ZM63.3306 8.05633C62.8714 7.86925 62.3727 7.78906 61.8547 7.78906V9.78906C62.1687 9.78906 62.4024 9.83779 62.576 9.90851L63.3306 8.05633ZM61.8547 7.78906C61.3955 7.78906 60.948 7.86212 60.5174 8.01086L61.1705 9.90124C61.3844 9.82733 61.6108 9.78906 61.8547 9.78906V7.78906ZM60.5174 8.01086C60.0936 8.15727 59.7032 8.36747 59.3511 8.64131L60.579 10.22C60.7542 10.0837 60.9497 9.9775 61.1705 9.90124L60.5174 8.01086ZM59.3595 8.63484C59.0069 8.90311 58.7003 9.22247 58.4394 9.58771L60.0669 10.7502C60.2161 10.5412 60.3841 10.3684 60.5706 10.2265L59.3595 8.63484ZM58.4371 9.59093C58.175 9.96091 57.9767 10.367 57.841 10.8042L59.7512 11.397C59.8264 11.1545 59.9328 10.9395 60.0691 10.747L58.4371 9.59093ZM57.7961 11.1006V15.7061H59.7961V11.1006H57.7961ZM57.8509 16.0326C58.0024 16.4711 58.2289 16.8694 58.5303 17.2196L60.0463 15.9151C59.914 15.7614 59.8124 15.5855 59.7413 15.3795L57.8509 16.0326ZM58.5467 17.2383C58.8311 17.5525 59.1525 17.8217 59.5102 18.0424L60.5605 16.3404C60.3674 16.2212 60.1908 16.0744 60.0298 15.8965L58.5467 17.2383ZM59.5102 18.0424C59.8669 18.2625 60.2497 18.4289 60.6554 18.5416L61.1907 16.6146C60.9636 16.5515 60.7546 16.4601 60.5605 16.3404L59.5102 18.0424ZM60.6721 18.5461C61.0677 18.6487 61.4684 18.7012 61.8723 18.7012V16.7012C61.6433 16.7012 61.4112 16.6716 61.174 16.6101L60.6721 18.5461ZM61.8723 18.7012C62.3818 18.7012 62.8721 18.6247 63.3276 18.4508L62.6142 16.5824C62.4251 16.6546 62.183 16.7012 61.8723 16.7012V18.7012ZM63.3423 18.4451C63.7663 18.2755 64.1504 18.042 64.4846 17.7404L63.1447 16.2557C62.9984 16.3877 62.82 16.4999 62.5995 16.5881L63.3423 18.4451ZM64.4937 17.7321C64.8055 17.4437 65.0677 17.1107 65.2805 16.7383L63.5441 15.746C63.4287 15.9478 63.2925 16.1188 63.1356 16.2639L64.4937 17.7321ZM65.2729 16.7515C65.4805 16.4007 65.6481 16.0295 65.7758 15.6392L63.875 15.0171C63.7918 15.2713 63.684 15.5094 63.5517 15.7329L65.2729 16.7515ZM65.7808 15.6234C65.8984 15.2431 65.981 14.8532 66.0291 14.4548L64.0435 14.2151C64.0096 14.4964 63.9516 14.7687 63.87 15.0328L65.7808 15.6234ZM66.0269 14.4716C66.079 14.0941 66.1087 13.7205 66.1153 13.3509L64.1156 13.3152C64.1105 13.6018 64.0874 13.8961 64.0457 14.1983L66.0269 14.4716ZM66.1154 13.333V13.1484H64.1154V13.333H66.1154Z" fill="url(#paint1_linear_560_188)"/>
<defs>
<linearGradient id="paint0_linear_560_188" x1="88" y1="0" x2="88" y2="22" gradientUnits="userSpaceOnUse">
<stop stop-color="white"/>
<stop offset="1" stop-color="#D0D0D0"/>
</linearGradient>
<linearGradient id="paint1_linear_560_188" x1="49.5" y1="5" x2="49.5" y2="18" gradientUnits="userSpaceOnUse">
<stop stop-color="white"/>
<stop offset="1" stop-color="#D0D0D0"/>
</linearGradient>
</defs>
</svg>
