<svg width="22" height="22" fill="none" xmlns="http://www.w3.org/2000/svg"><path d="M4.25 1.5A2.75 2.75 0 0 0 1.5 4.25v13.5a2.75 2.75 0 0 0 2.75 2.75h13.5a2.75 2.75 0 0 0 2.75-2.75v-4.5a.75.75 0 1 1 1.5 0v4.5A4.25 4.25 0 0 1 17.75 22H4.25A4.25 4.25 0 0 1 0 17.75V4.25A4.25 4.25 0 0 1 4.25 0h4.5a.75.75 0 1 1 0 1.5h-4.5ZM12.5.75a.75.75 0 0 1 .75-.75h8a.75.75 0 0 1 .75.75v8a.75.75 0 1 1-1.5 0V2.56l-6.22 6.22a.75.75 0 1 1-1.06-1.06l6.22-6.22h-6.19a.75.75 0 0 1-.75-.75Z" fill="url(#a)"/><defs><linearGradient id="a" x1="11" y1="0" x2="11" y2="22" gradientUnits="userSpaceOnUse"><stop stop-color="#fff"/><stop offset="1" stop-color="#D0D0D0"/></linearGradient></defs></svg>