<svg id="Layer_2" data-name="Layer 2" xmlns="http://www.w3.org/2000/svg" viewBox="0 0 302.83 369.78"><defs><style>.cls-2{fill:#fff}.cls-3{fill:#223068}</style></defs><g id="background"><g id="both_hands" data-name="both hands"><path id="tail" class="cls-2" d="M151.91 353.26c21.86 0 41.72 5.41 56.55 14.24-3.49-26.21-27.46-46.5-56.55-46.5s-53.06 20.29-56.55 46.5c14.82-8.83 34.69-14.24 56.55-14.24Z"/><path class="cls-3" d="M151.91 355.51c15.33.03 30.87 2.61 45.01 8.66 3.58 1.53 7.05 3.29 10.4 5.27 1.87 1.11 3.55-.71 3.31-2.54-2.95-21.6-19.58-38.98-40.06-45.35-21.32-6.63-45.73-1.25-61.69 14.52-8.37 8.27-14.08 19.15-15.68 30.83-.25 1.83 1.45 3.64 3.31 2.54 12.55-7.44 26.96-11.61 41.41-13.18 4.65-.51 9.32-.74 14-.75 2.9 0 2.9-4.51 0-4.5-16.04.03-32.14 2.84-46.93 9.12-3.7 1.57-7.3 3.38-10.75 5.43l3.31 2.54c2.74-20.07 17.79-36.26 36.92-42.21s42.45-1.32 57.32 13.36c7.88 7.78 13.02 17.87 14.52 28.85l3.31-2.54c-13.14-7.79-28.13-12.05-43.25-13.75-4.79-.54-9.61-.79-14.44-.8-2.9 0-2.9 4.49 0 4.5Z"/><path id="body" class="cls-2" d="M270.41 221.13c-9.73-95.6-58.35-145.88-119-148.49-60.65 2.61-109.27 52.89-119 148.49-8.21 80.63 57.42 112.73 119 114.37 61.58-1.64 127.21-33.75 119-114.37Z"/><path class="cls-3" d="M151.41 338h-.07c-41.97-1.12-78.25-15.64-99.53-39.83-17.7-20.12-25.06-46.13-21.89-77.29 4.69-46.04 18.86-84.24 40.98-110.48 21.07-24.98 48.87-38.9 80.4-40.26h.22c31.53 1.36 59.33 15.28 80.4 40.26 22.12 26.24 36.3 64.44 40.98 110.48 3.17 31.17-4.19 57.17-21.89 77.29-21.28 24.2-57.56 38.71-99.53 39.83h-.07Zm0-262.86c-30.05 1.32-56.56 14.63-76.68 38.48-21.47 25.46-35.25 62.73-39.83 107.76-3.03 29.73 3.93 54.45 20.67 73.48 20.35 23.14 55.28 37.04 95.84 38.13 40.56-1.09 75.49-14.99 95.84-38.13 16.74-19.04 23.7-43.76 20.67-73.48-4.58-45.03-18.36-82.3-39.83-107.76-20.12-23.85-46.63-37.16-76.68-38.48Z"/><path class="cls-3" d="M46.76 247h-1.35c0 106.25 212 100.38 212 0h-1.51c-18.01 82.23-192.03 86.56-209.14 0Z" id="shadow" style="fill:none;opacity:.3"/><g id="left_hand" data-name="left hand"><g id="hands"><path class="cls-2" d="M41.41 209.5c-57-36-49.5-79.5 7.36-48.79"/><path class="cls-3" d="M42.54 207.56c-9.24-5.86-18.01-12.59-25.41-20.7-4.9-5.37-9.55-11.75-11.65-18.43a25.44 25.44 0 0 1-.92-3.95c.08.55-.04-.4-.05-.52-.03-.3-.04-.6-.06-.9-.02-.61-.01-1.21.03-1.82.01-.14.03-.28.04-.42.04-.55-.06.37 0 .03.04-.24.08-.48.13-.72.12-.56.28-1.11.47-1.66.03-.1.07-.19.11-.29.18-.5-.22.45.01-.02.11-.22.22-.45.34-.67s.25-.43.38-.64c.12-.18.52-.72.17-.27.31-.39.65-.76 1.01-1.11.19-.17.38-.34.57-.5.39-.33-.3.21-.03.02.15-.11.3-.21.45-.31.43-.28.87-.54 1.33-.76.12-.06.25-.12.38-.18.5-.24-.32.12 0 0 .3-.12.6-.23.9-.33.58-.19 1.17-.35 1.77-.48.32-.07.63-.12.95-.18l.39-.06c-.53.07.32-.03.41-.04 1.49-.14 2.99-.14 4.48-.05 4.11.26 8.47 1.38 12.58 2.77 5.65 1.91 11.04 4.46 16.28 7.28 2.55 1.37 4.83-2.51 2.27-3.89-8.99-4.84-18.68-9.18-28.9-10.45-5.78-.72-12.42-.26-16.92 3.87-4.04 3.74-4.63 9.5-3.62 14.65 1.47 7.47 5.98 14.22 10.73 20 8.1 9.85 18.39 17.83 29.11 24.62 2.45 1.55 4.71-2.34 2.27-3.89Z"/></g><circle class="cls-3" cx="10.41" cy="160.5" r="2"/><path class="cls-3" d="M10.41 163a2.5 2.5 0 0 1 0-5 2.5 2.5 0 0 1 0 5Zm0-4c-.83 0-1.5.67-1.5 1.5s.67 1.5 1.5 1.5 1.5-.67 1.5-1.5-.67-1.5-1.5-1.5Z"/><circle class="cls-3" cx="17.41" cy="157.5" r="2"/><path class="cls-3" d="M17.41 160a2.5 2.5 0 0 1 0-5 2.5 2.5 0 0 1 0 5Zm0-4c-.83 0-1.5.67-1.5 1.5s.67 1.5 1.5 1.5 1.5-.67 1.5-1.5-.67-1.5-1.5-1.5Z"/><circle class="cls-3" cx="10.41" cy="167.5" r="2"/><path class="cls-3" d="M10.41 170a2.5 2.5 0 0 1 0-5 2.5 2.5 0 0 1 0 5Zm0-4c-.83 0-1.5.67-1.5 1.5s.67 1.5 1.5 1.5 1.5-.67 1.5-1.5-.67-1.5-1.5-1.5Z"/><circle class="cls-3" cx="20.91" cy="168" r="5.5"/><path class="cls-3" d="M20.91 174c-3.31 0-6-2.69-6-6s2.69-6 6-6 6 2.69 6 6-2.69 6-6 6Zm0-11c-2.76 0-5 2.24-5 5s2.24 5 5 5 5-2.24 5-5-2.24-5-5-5Z"/></g><g id="left_hand-2" data-name="left hand"><g id="hands-2" data-name="hands"><path class="cls-2" d="M261.41 209.5c57-36 49.5-79.5-7.36-48.79"/><path class="cls-3" d="M262.54 211.44c9.83-6.23 19.23-13.44 26.99-22.15 5.23-5.87 10.1-12.64 12.31-20.28 1.52-5.22 1.57-11.19-1.99-15.61s-10.04-5.62-15.57-5.31c-11.07.63-21.76 5.5-31.38 10.67-2.55 1.37-.28 5.26 2.27 3.89 8.28-4.46 17.29-8.6 26.71-9.84 1.19-.16 3.11-.29 4.59-.27.68.01 1.36.04 2.04.11.62.06.83.08 1.76.28.6.13 1.19.28 1.77.48.25.08.49.18.74.27.13.04.49.22.01 0 .15.07.3.14.46.21.48.24.95.5 1.4.8.11.07.8.6.3.2.24.19.47.39.69.6.35.33.66.68.97 1.05.21.25-.31-.46-.04-.04.05.08.12.16.17.24.16.25.32.5.47.76.12.22.22.45.34.67.23.45-.13-.36-.02-.05.05.12.1.24.14.36.18.52.33 1.04.45 1.58.06.26.1.53.14.79.06.34-.05-.57 0-.03 0 .11.02.22.03.33.05.63.06 1.27.04 1.9-.01.3-.03.6-.06.9-.01.15-.13 1.07-.05.52-.09.65-.22 1.29-.36 1.93-.74 3.19-1.81 5.61-3.37 8.43-1.88 3.4-4.15 6.57-6.65 9.54-7.78 9.23-17.43 16.75-27.59 23.18-2.44 1.55-.18 5.44 2.27 3.89Z"/></g><circle class="cls-3" cx="292.41" cy="160.5" r="2"/><path class="cls-3" d="M292.41 163a2.5 2.5 0 0 1 0-5 2.5 2.5 0 0 1 0 5Zm0-4c-.83 0-1.5.67-1.5 1.5s.67 1.5 1.5 1.5 1.5-.67 1.5-1.5-.67-1.5-1.5-1.5Z"/><circle class="cls-3" cx="285.41" cy="157.5" r="2"/><path class="cls-3" d="M285.41 160a2.5 2.5 0 0 1 0-5 2.5 2.5 0 0 1 0 5Zm0-4c-.83 0-1.5.67-1.5 1.5s.67 1.5 1.5 1.5 1.5-.67 1.5-1.5-.67-1.5-1.5-1.5Z"/><circle class="cls-3" cx="292.41" cy="167.5" r="2"/><path class="cls-3" d="M292.41 170a2.5 2.5 0 0 1 0-5 2.5 2.5 0 0 1 0 5Zm0-4c-.83 0-1.5.67-1.5 1.5s.67 1.5 1.5 1.5 1.5-.67 1.5-1.5-.67-1.5-1.5-1.5Z"/><circle class="cls-3" cx="281.91" cy="168" r="5.5"/><path class="cls-3" d="M281.91 174c-3.31 0-6-2.69-6-6s2.69-6 6-6 6 2.69 6 6-2.69 6-6 6Zm0-11c-2.76 0-5 2.24-5 5s2.24 5 5 5 5-2.24 5-5-2.24-5-5-5Z"/></g><path id="noise_mouth" data-name="noise &amp;amp; mouth" class="cls-3" d="M172.88 170.14c-1.71 1.82-3.44 3.64-5.37 5.23-1.42 1.18-3.05 2.37-4.89 2.76-4.41.94-6.76-4.6-8.02-8.01 2.42-.45 4.47-1.28 5.86-2.34l6.94 1.58c.87.2 1.74.4 2.61.59 1.88.43 2.68-2.46.8-2.89-2.82-.64-5.64-1.28-8.47-1.92.04-.21.07-.42.07-.63 0-.32-.06-.62-.16-.92 1.97-.37 3.94-.75 5.91-1.12.88-.17 1.77-.34 2.65-.5 1.89-.36 1.09-3.25-.8-2.89l-9.95 1.89c-2.18-1.48-5.69-2.45-9.66-2.45s-7.71 1.03-9.88 2.6l-8.07-1.54c-.88-.17-1.77-.34-2.65-.5-1.89-.36-2.69 2.53-.8 2.89 3.17.6 6.33 1.21 9.5 1.81-.06.24-.1.49-.1.74 0 .14.02.27.04.41-2.28.52-4.55 1.03-6.83 1.55-.87.2-1.74.4-2.61.59-1.88.43-1.09 3.32.8 2.89 3.45-.78 6.89-1.57 10.34-2.35 1.39 1.15 3.54 2.05 6.1 2.52-1.4 3.58-3.92 8.93-8.5 8.01-1.88-.38-3.57-1.52-5.06-2.68-2.06-1.6-3.92-3.45-5.74-5.31-.52-.53-1.46 0-1.25.73 1.27 4.46 4.27 8.68 8.38 10.93 3.98 2.17 8.55 1.83 11.88-1.35 2.16-2.06 3.54-4.81 4.54-7.62 1.54 4.51 4.25 9.48 9.24 10.3 4.24.71 8.2-1.95 10.76-5.11 1.7-2.1 2.94-4.54 3.65-7.15.19-.71-.73-1.29-1.25-.73Z"/><g id="eyes"><circle class="cls-3" cx="122.41" cy="145.5" r="12"/><circle class="cls-3" cx="178.41" cy="146.5" r="12"/></g><g id="hat"><path class="cls-2" d="M219.28 45.29c-1.22-12.79-11.43-23.16-24.19-24.61-4.7-.53-9.19.14-13.21 1.72-4.92-11.69-16.48-19.9-29.96-19.9s-25.51 8.55-30.25 20.63c-4.14-1.96-8.84-2.92-13.8-2.56-13.7 1-24.72 12.28-25.41 26-.54 10.66 5.01 20.08 13.46 25.09v17.33l11.66 5a110.534 110.534 0 0 0 88.43-.59l9.92-4.41V71.66c8.8-5.21 14.44-15.19 13.37-26.38Z"/><path class="cls-3" d="M151.1 105.4c-15.17 0-30.34-3.03-44.52-9.11l-13.17-5.65v-17.6a29.98 29.98 0 0 1-13.46-26.6c.76-15.08 12.68-27.27 27.73-28.37 4.32-.32 8.65.3 12.67 1.79C126.15 7.72 138.27 0 151.91 0s25.37 7.5 31.29 19.29c3.93-1.2 8.01-1.57 12.18-1.1 13.96 1.59 25.06 12.88 26.4 26.86 1.08 11.26-4.02 21.86-13.36 28v17.57l-11.4 5.07c-14.56 6.47-30.23 9.71-45.91 9.71ZM98.41 87.35l10.14 4.35c27.54 11.8 59.04 11.59 86.43-.58l8.43-3.75V70.24l1.23-.73c8.44-5 13.09-14.19 12.16-23.99-1.11-11.64-10.36-21.04-21.98-22.37-4.14-.47-8.18.06-12.02 1.56l-2.27.89-.95-2.25c-4.7-11.16-15.56-18.37-27.66-18.37s-23.38 7.48-27.93 19.05l-.98 2.49-2.42-1.14a25.01 25.01 0 0 0-12.54-2.32c-12.53.91-22.46 11.07-23.1 23.63a25.001 25.001 0 0 0 12.24 22.82l1.23.73v17.11Z"/><path class="cls-3" d="M129.41 86.34a2.5 2.5 0 0 1-2.5-2.5V62.53a2.5 2.5 0 0 1 5 0v21.31a2.5 2.5 0 0 1-2.5 2.5ZM173.41 86.34a2.5 2.5 0 0 1-2.5-2.5V62.53a2.5 2.5 0 0 1 5 0v21.31a2.5 2.5 0 0 1-2.5 2.5ZM151.41 89.34a2.5 2.5 0 0 1-2.5-2.5V65.53a2.5 2.5 0 0 1 5 0v21.31a2.5 2.5 0 0 1-2.5 2.5Z"/></g></g></g></svg>