<svg id="Layer_2" data-name="Layer 2" xmlns="http://www.w3.org/2000/svg" viewBox="0 0 193.38 208.8"><defs><linearGradient id="dark_green_gradient" data-name="dark green gradient" x1="135.03" y1="142.95" x2="135.03" y2="0" gradientUnits="userSpaceOnUse"><stop offset="0"/><stop offset="1" stop-color="#04a376"/></linearGradient><linearGradient id="light_green_gradient" data-name="light green gradient" x1="193.01" y1=".96" x2="193.01" y2="141.86" gradientTransform="matrix(-1 0 0 1 263.9 0)" gradientUnits="userSpaceOnUse"><stop offset="0" stop-color="#1affb8"/><stop offset="1" stop-color="#231f20"/></linearGradient><style>.cls-2{fill:#cecece}</style></defs><g id="design"><g id="ver_2.1" data-name="ver 2.1"><g id="top"><path id="top_left" data-name="top left" style="fill:url(#dark_green_gradient)" d="M102.96 142.95V0l64.14 71.47-64.14 71.48z"/><path id="top_left-2" data-name="top left" style="fill:url(#light_green_gradient)" d="M102.96 142.95V0L38.83 71.47l64.13 71.48z"/></g><g id="mid"><path id="mid_right" data-name="mid right" class="cls-2" d="M102.96 80.43v62.52L38.83 71.47l16.59-18.49 47.54 27.45z"/><path id="mid_left" data-name="mid left" d="M102.96 80.43v62.52l64.14-71.48-16.59-18.49-47.55 27.45z"/></g><path id="left" style="fill:#464646" d="m102.96 104.4-78.3-45.21-12.11 13.5v83.91l90.41 52.2V104.4z"/><path id="right" class="cls-2" d="m102.96 104.4 78.31-45.21 12.11 13.5v83.91l-90.42 52.2V104.4z"/><path style="fill:none" d="M.38 41.53 0 60.92"/><g id="bottom"><path id="bottom_right" data-name="bottom right" d="M102.96 104.4v104.4l-90.41-52.2 90.41-52.2z"/><path id="bottom_left" data-name="bottom left" d="M102.96 104.4v104.4l90.42-52.2-90.42-52.2z"/></g></g></g></svg>