<svg width="94" height="59" fill="none" xmlns="http://www.w3.org/2000/svg"><g clip-path="url(#a)"><path d="M0 0h89a5 5 0 0 1 5 5v54H0V0Z" fill="url(#b)"/><g filter="url(#c)"><path d="M22.9 13.84c0 .52.127.973.38 1.36.253.387.56.713.92.98.373.253.88.573 1.52.96.707.427 1.247.78 1.62 1.06.387.28.713.64.98 1.08.28.427.42.94.42 1.54 0 .64-.16 1.22-.48 1.74-.32.52-.793.933-1.42 1.24-.613.293-1.353.44-2.22.44-1.027 0-1.967-.233-2.82-.7a.352.352 0 0 1-.14-.14 2.19 2.19 0 0 1-.04-.24l-.26-2.72c-.013-.053.013-.087.08-.1.08-.013.127.007.14.06.213.96.607 1.787 1.18 2.48.587.693 1.36 1.04 2.32 1.04.667 0 1.227-.18 1.68-.54.467-.373.7-.96.7-1.76 0-.6-.133-1.12-.4-1.56-.267-.44-.593-.8-.98-1.08-.373-.293-.887-.633-1.54-1.02-.64-.387-1.147-.72-1.52-1a3.747 3.747 0 0 1-.92-1.06c-.253-.427-.38-.927-.38-1.5 0-.667.173-1.233.52-1.7.36-.48.82-.833 1.38-1.06.573-.24 1.18-.36 1.82-.36.787 0 1.567.16 2.34.48.2.067.3.18.3.34l.14 2.3c0 .053-.033.08-.1.08s-.107-.027-.12-.08a4.033 4.033 0 0 0-.86-1.92c-.467-.6-1.14-.9-2.02-.9-.747 0-1.307.22-1.68.66-.36.427-.54.96-.54 1.6Zm9.664-.08c-.28 0-.5-.073-.66-.22-.146-.147-.22-.353-.22-.62s.074-.473.22-.62c.16-.147.38-.22.66-.22.267 0 .474.073.62.22.147.147.22.353.22.62s-.073.473-.22.62c-.146.147-.353.22-.62.22ZM30.884 24c-.026 0-.04-.04-.04-.12 0-.08.014-.12.04-.12.36 0 .627-.033.8-.1a.662.662 0 0 0 .38-.4c.067-.2.1-.493.1-.88v-3.74c0-.48-.053-.827-.16-1.04a.502.502 0 0 0-.5-.32c-.24 0-.54.093-.9.28h-.02c-.053 0-.093-.033-.12-.1-.026-.067-.02-.113.02-.14l2.6-1.2.08-.02c.027 0 .06.02.1.06.04.027.06.06.06.1 0 .093-.006.36-.02.8-.013.44-.02.96-.02 1.56v3.76c0 .4.034.693.1.88a.67.67 0 0 0 .36.4c.174.067.44.1.8.1.04 0 .06.04.06.12 0 .08-.02.12-.06.12-.306 0-.553-.007-.74-.02l-1.08-.02-1.08.02c-.186.013-.44.02-.76.02Zm9.909-7.9c.293 0 .573.08.84.24.267.16.4.353.4.58 0 .173-.06.32-.18.44-.107.12-.267.18-.48.18a.806.806 0 0 1-.32-.06 5.297 5.297 0 0 1-.3-.22 1.606 1.606 0 0 0-.34-.24.841.841 0 0 0-.38-.08c-.173 0-.36.073-.56.22-.187.147-.487.46-.9.94v4.28c0 .4.047.693.14.88.107.187.293.32.56.4.267.067.68.1 1.24.1.053 0 .08.04.08.12 0 .08-.027.12-.08.12-.427 0-.767-.007-1.02-.02l-1.48-.02-1.1.02c-.173.013-.413.02-.72.02-.04 0-.06-.04-.06-.12 0-.08.02-.12.06-.12.36 0 .627-.033.8-.1a.603.603 0 0 0 .34-.4c.067-.187.1-.48.1-.88v-3.96c0-.453-.053-.78-.16-.98-.107-.2-.287-.3-.54-.3-.213 0-.573.1-1.08.3h-.04c-.053 0-.093-.027-.12-.08-.013-.067.007-.113.06-.14l2.32-1.1.12-.02c.12 0 .247.153.38.46.133.307.2.7.2 1.18v.02c.547-.64.98-1.073 1.3-1.3.32-.24.627-.36.92-.36Zm2.585 7.9c-.04 0-.06-.04-.06-.12 0-.08.02-.12.06-.12.36 0 .627-.033.8-.1a.668.668 0 0 0 .36-.4c.067-.2.1-.493.1-.88V12.04c0-.48-.046-.827-.14-1.04a.502.502 0 0 0-.5-.32c-.2 0-.506.093-.92.28h-.04c-.04 0-.073-.033-.1-.1-.013-.067 0-.107.04-.12l2.56-1.22a.223.223 0 0 1 .1-.02c.027 0 .06.02.1.06.053.027.08.06.08.1v12.72c0 .387.027.673.08.86a.67.67 0 0 0 .36.4c.173.08.44.12.8.12.04 0 .06.04.06.12 0 .08-.02.12-.06.12-.293 0-.533-.007-.72-.02l-1.12-.02-1.08.02c-.186.013-.44.02-.76.02Zm8.976.26c-.773 0-1.46-.187-2.06-.56a3.897 3.897 0 0 1-1.36-1.54 4.754 4.754 0 0 1-.48-2.12c0-.867.207-1.6.62-2.2a3.888 3.888 0 0 1 1.62-1.36 4.792 4.792 0 0 1 2.02-.46c.787 0 1.474.193 2.06.58.587.387 1.034.9 1.34 1.54.32.627.48 1.293.48 2 0 .827-.193 1.553-.58 2.18a4.059 4.059 0 0 1-1.56 1.44c-.64.333-1.34.5-2.1.5Zm.58-.38c.734 0 1.3-.26 1.7-.78.4-.52.6-1.32.6-2.4 0-.827-.14-1.567-.42-2.22-.266-.653-.64-1.16-1.12-1.52a2.6 2.6 0 0 0-1.64-.56c-.72 0-1.28.26-1.68.78-.386.52-.58 1.267-.58 2.24 0 .813.134 1.56.4 2.24.267.68.64 1.22 1.12 1.62.48.4 1.02.6 1.62.6Zm7.11-10.12c-.28 0-.5-.073-.66-.22-.146-.147-.22-.353-.22-.62s.074-.473.22-.62c.16-.147.38-.22.66-.22.267 0 .474.073.62.22.147.147.22.353.22.62s-.073.473-.22.62c-.146.147-.353.22-.62.22ZM58.365 24c-.026 0-.04-.04-.04-.12 0-.08.014-.12.04-.12.36 0 .627-.033.8-.1a.662.662 0 0 0 .38-.4c.067-.2.1-.493.1-.88v-3.74c0-.48-.053-.827-.16-1.04a.502.502 0 0 0-.5-.32c-.24 0-.54.093-.9.28h-.02c-.053 0-.093-.033-.12-.1-.026-.067-.02-.113.02-.14l2.6-1.2.08-.02c.027 0 .06.02.1.06.04.027.06.06.06.1 0 .093-.006.36-.02.8-.013.44-.02.96-.02 1.56v3.76c0 .4.034.693.1.88a.67.67 0 0 0 .36.4c.174.067.44.1.8.1.04 0 .06.04.06.12 0 .08-.02.12-.06.12-.306 0-.553-.007-.74-.02l-1.08-.02-1.08.02c-.186.013-.44.02-.76.02Zm14.31-.24c.04 0 .06.04.06.12 0 .08-.02.12-.06.12-.307 0-.547-.007-.72-.02l-1.08-.02-1.1.02c-.174.013-.414.02-.72.02-.04 0-.06-.04-.06-.12 0-.08.02-.12.06-.12.36 0 .626-.033.8-.1a.602.602 0 0 0 .34-.4c.066-.187.1-.48.1-.88v-3.24c0-.787-.154-1.367-.46-1.74-.294-.373-.754-.56-1.38-.56-.414 0-.834.113-1.26.34a3.995 3.995 0 0 0-1.14.9v4.3c0 .4.026.693.08.88a.67.67 0 0 0 .36.4c.173.067.44.1.8.1.04 0 .06.04.06.12 0 .08-.02.12-.06.12-.307 0-.547-.007-.72-.02l-1.08-.02-1.1.02c-.174.013-.414.02-.72.02-.04 0-.06-.04-.06-.12 0-.08.02-.12.06-.12.36 0 .626-.033.8-.1a.602.602 0 0 0 .34-.4c.066-.187.1-.48.1-.88v-3.96c0-.453-.054-.78-.16-.98-.107-.2-.287-.3-.54-.3-.214 0-.574.1-1.08.3h-.04c-.054 0-.094-.027-.12-.08-.014-.067.006-.113.06-.14l2.32-1.1.12-.02c.12 0 .246.153.38.46.133.307.2.7.2 1.18.506-.587 1.006-1.02 1.5-1.3a3.188 3.188 0 0 1 1.56-.42c.746 0 1.32.207 1.72.62.4.413.6 1.02.6 1.82v3.92c0 .4.026.693.08.88a.67.67 0 0 0 .36.4c.173.067.44.1.8.1ZM22.9 33.84c0 .52.127.973.38 1.36.253.387.56.713.92.98.373.253.88.573 1.52.96.707.427 1.247.78 1.62 1.06.387.28.713.64.98 1.08.28.427.42.94.42 1.54 0 .64-.16 1.22-.48 1.74-.32.52-.793.933-1.42 1.24-.613.293-1.353.44-2.22.44-1.027 0-1.967-.233-2.82-.7a.352.352 0 0 1-.14-.14 2.19 2.19 0 0 1-.04-.24l-.26-2.72c-.013-.053.013-.087.08-.1.08-.013.127.007.14.06.213.96.607 1.787 1.18 2.48.587.693 1.36 1.04 2.32 1.04.667 0 1.227-.18 1.68-.54.467-.373.7-.96.7-1.76 0-.6-.133-1.12-.4-1.56-.267-.44-.593-.8-.98-1.08-.373-.293-.887-.633-1.54-1.02-.64-.387-1.147-.72-1.52-1a3.747 3.747 0 0 1-.92-1.06c-.253-.427-.38-.927-.38-1.5 0-.667.173-1.233.52-1.7.36-.48.82-.833 1.38-1.06.573-.24 1.18-.36 1.82-.36.787 0 1.567.16 2.34.48.2.067.3.18.3.34l.14 2.3c0 .053-.033.08-.1.08s-.107-.027-.12-.08a4.033 4.033 0 0 0-.86-1.92c-.467-.6-1.14-.9-2.02-.9-.747 0-1.307.22-1.68.66-.36.427-.54.96-.54 1.6Zm11.544 10.42c-.773 0-1.46-.187-2.06-.56a3.898 3.898 0 0 1-1.36-1.54 4.754 4.754 0 0 1-.48-2.12c0-.867.207-1.6.62-2.2a3.89 3.89 0 0 1 1.62-1.36 4.792 4.792 0 0 1 2.02-.46c.787 0 1.474.193 2.06.58a3.75 3.75 0 0 1 1.34 1.54c.32.627.48 1.293.48 2 0 .827-.193 1.553-.58 2.18a4.057 4.057 0 0 1-1.56 1.44c-.64.333-1.34.5-2.1.5Zm.58-.38c.734 0 1.3-.26 1.7-.78.4-.52.6-1.32.6-2.4 0-.827-.14-1.567-.42-2.22-.266-.653-.64-1.16-1.12-1.52a2.6 2.6 0 0 0-1.64-.56c-.72 0-1.28.26-1.68.78-.386.52-.58 1.267-.58 2.24 0 .813.134 1.56.4 2.24.267.68.64 1.22 1.12 1.62.48.4 1.02.6 1.62.6Zm8.99.36c-.866 0-1.593-.187-2.18-.56a3.554 3.554 0 0 1-1.3-1.48 4.44 4.44 0 0 1-.42-1.9c0-.853.214-1.593.64-2.22a4.208 4.208 0 0 1 1.64-1.46 4.532 4.532 0 0 1 2.08-.52c.587 0 1.12.12 1.6.36.494.227.74.513.74.86a.632.632 0 0 1-.2.46c-.12.12-.286.18-.5.18-.36 0-.653-.22-.88-.66a2.042 2.042 0 0 0-.56-.6c-.2-.133-.486-.2-.86-.2-.746 0-1.333.293-1.76.88-.413.573-.62 1.347-.62 2.32 0 1.12.28 2.04.84 2.76.56.72 1.4 1.08 2.52 1.08.814 0 1.494-.22 2.04-.66h.02c.04 0 .074.02.1.06.04.04.047.073.02.1-.466.413-.94.72-1.42.92a4.11 4.11 0 0 1-1.54.28Zm6.343-10.48c-.28 0-.5-.073-.66-.22-.147-.147-.22-.353-.22-.62s.074-.473.22-.62c.16-.147.38-.22.66-.22.267 0 .474.073.62.22.147.147.22.353.22.62s-.073.473-.22.62c-.146.147-.353.22-.62.22ZM48.677 44c-.026 0-.04-.04-.04-.12 0-.08.014-.12.04-.12.36 0 .627-.033.8-.1a.662.662 0 0 0 .38-.4c.067-.2.1-.493.1-.88v-3.74c0-.48-.053-.827-.16-1.04a.502.502 0 0 0-.5-.32c-.24 0-.54.093-.9.28h-.02c-.053 0-.093-.033-.12-.1-.026-.067-.02-.113.02-.14l2.6-1.2.08-.02c.027 0 .06.02.1.06.04.027.06.06.06.1 0 .093-.006.36-.02.8-.013.44-.02.96-.02 1.56v3.76c0 .4.034.693.1.88a.67.67 0 0 0 .36.4c.174.067.44.1.8.1.04 0 .06.04.06.12 0 .08-.02.12-.06.12-.306 0-.553-.007-.74-.02l-1.08-.02-1.08.02c-.186.013-.44.02-.76.02Zm11.589-1.12c.04 0 .073.027.1.08.04.04.047.08.02.12-.88.773-1.853 1.16-2.92 1.16-.773 0-1.433-.18-1.98-.54a3.599 3.599 0 0 1-1.26-1.42 4.31 4.31 0 0 1-.42-1.88c0-.787.187-1.507.56-2.16a4.07 4.07 0 0 1 1.52-1.56 4.126 4.126 0 0 1 2.14-.58c.747 0 1.32.2 1.72.6.4.4.6.96.6 1.68 0 .187-.02.32-.06.4-.027.08-.08.12-.16.12l-4.96.02c-.027.293-.04.533-.04.72 0 1.16.273 2.1.82 2.82.547.72 1.313 1.08 2.3 1.08.4 0 .74-.053 1.02-.16.293-.107.62-.273.98-.5h.02Zm-2.9-6.38c-.573 0-1.047.193-1.42.58-.373.373-.62.9-.74 1.58l3.8-.08c0-.68-.147-1.193-.44-1.54-.293-.36-.693-.54-1.2-.54Zm10.104 6.46c.053 0 .093.033.12.1.027.053.02.093-.02.12-.493.387-.94.66-1.34.82a3.16 3.16 0 0 1-1.22.24c-.56 0-1.02-.127-1.38-.38-.36-.253-.54-.673-.54-1.26v-4.7c0-.347-.027-.593-.08-.74a.371.371 0 0 0-.26-.28c-.133-.053-.36-.08-.68-.08-.053 0-.08-.04-.08-.12 0-.093.027-.14.08-.14.533-.013.967-.153 1.3-.42a1.63 1.63 0 0 0 .58-1.1c0-.04.053-.06.16-.06.093 0 .14.02.14.06v1.48c.667-.013 1.593-.08 2.78-.2.027 0 .053.053.08.16a.806.806 0 0 1-.02.66c-.04.107-.087.153-.14.14-.733-.187-1.633-.293-2.7-.32v4.98c0 .547.133.953.4 1.22.28.267.673.4 1.18.4.587 0 1.12-.187 1.6-.56l.04-.02Zm9.158-6.68c.04 0 .06.04.06.12 0 .08-.02.12-.06.12-.334 0-.62.12-.86.36s-.467.633-.68 1.18l-2.44 6.5c-.493 1.293-.96 2.3-1.4 3.02-.427.733-.874 1.253-1.34 1.56-.454.32-.98.48-1.58.48-.294 0-.534-.067-.72-.2a.654.654 0 0 1-.3-.58c0-.187.06-.333.18-.44a.639.639 0 0 1 .44-.16c.173 0 .32.02.44.06.12.04.247.107.38.2.026.013.1.053.22.12.133.067.293.1.48.1.32 0 .62-.14.9-.42.293-.28.6-.753.92-1.42.333-.653.72-1.56 1.16-2.72l-3.04-6.22c-.307-.587-.54-.967-.7-1.14a.779.779 0 0 0-.62-.28c-.027 0-.04-.04-.04-.12 0-.08.013-.12.04-.12l.68.02c.16.013.38.02.66.02l1.28-.02c.186-.013.447-.02.78-.02.026 0 .04.04.04.12 0 .08-.013.12-.04.12-.773 0-1.16.153-1.16.46 0 .08.033.187.1.32l2.64 5.42 1.6-4.6c.106-.32.16-.573.16-.76 0-.307-.12-.52-.36-.64-.24-.133-.633-.2-1.18-.2-.027 0-.04-.04-.04-.12 0-.08.013-.12.04-.12.36 0 .633.007.82.02l1.2.02.72-.02c.133-.013.34-.02.62-.02Z" fill="#F8D6CB"/></g></g><defs><linearGradient id="b" x1="47" y1="0" x2="47" y2="59" gradientUnits="userSpaceOnUse"><stop stop-color="#620D09"/><stop offset=".833" stop-color="#620D09" stop-opacity=".2"/><stop offset="1" stop-color="#620D09" stop-opacity="0"/></linearGradient><clipPath id="a"><path fill="#fff" d="M0 0h94v59H0z"/></clipPath><filter id="c" x="19.357" y="9.5" width="59.331" height="44.12" filterUnits="userSpaceOnUse" color-interpolation-filters="sRGB"><feFlood flood-opacity="0" result="BackgroundImageFix"/><feColorMatrix in="SourceAlpha" values="0 0 0 0 0 0 0 0 0 0 0 0 0 0 0 0 0 0 127 0" result="hardAlpha"/><feOffset dy="2"/><feGaussianBlur stdDeviation="1"/><feComposite in2="hardAlpha" operator="out"/><feColorMatrix values="0 0 0 0 0.384314 0 0 0 0 0.0509804 0 0 0 0 0.0352941 0 0 0 1 0"/><feBlend in2="BackgroundImageFix" result="effect1_dropShadow_372_295"/><feBlend in="SourceGraphic" in2="effect1_dropShadow_372_295" result="shape"/></filter></defs></svg>