<svg width="34" height="28" viewBox="0 0 34 28" fill="none" xmlns="http://www.w3.org/2000/svg">
<path fill-rule="evenodd" clip-rule="evenodd" d="M12.875 0.208008C6.869 0.208008 2 5.11053 2 11.1579C2 24.7509 20 27.3939 20 27.3939V22.1078H21.125C27.131 22.1078 32 17.2052 32 11.1579C32 5.11053 27.131 0.208008 21.125 0.208008H12.875ZM17 13.4234C17.4973 13.4234 17.9742 13.2244 18.3258 12.8705C18.6775 12.5164 18.875 12.0362 18.875 11.5355C18.875 11.0348 18.6775 10.5546 18.3258 10.2005C17.9742 9.84647 17.4973 9.64758 17 9.64758C16.5027 9.64758 16.0258 9.84647 15.6742 10.2005C15.3225 10.5546 15.125 11.0348 15.125 11.5355C15.125 12.0362 15.3225 12.5164 15.6742 12.8705C16.0258 13.2244 16.5027 13.4234 17 13.4234ZM24.875 11.5355C24.875 12.0362 24.6775 12.5164 24.3258 12.8705C23.9742 13.2244 23.4973 13.4234 23 13.4234C22.5027 13.4234 22.0258 13.2244 21.6742 12.8705C21.3225 12.5164 21.125 12.0362 21.125 11.5355C21.125 11.0348 21.3225 10.5546 21.6742 10.2005C22.0258 9.84647 22.5027 9.64758 23 9.64758C23.4973 9.64758 23.9742 9.84647 24.3258 10.2005C24.6775 10.5546 24.875 11.0348 24.875 11.5355ZM11 13.4234C11.4973 13.4234 11.9742 13.2244 12.3258 12.8705C12.6775 12.5164 12.875 12.0362 12.875 11.5355C12.875 11.0348 12.6775 10.5546 12.3258 10.2005C11.9742 9.84647 11.4973 9.64758 11 9.64758C10.5027 9.64758 10.0258 9.84647 9.67417 10.2005C9.32255 10.5546 9.125 11.0348 9.125 11.5355C9.125 12.0362 9.32255 12.5164 9.67417 12.8705C10.0258 13.2244 10.5027 13.4234 11 13.4234Z" fill="url(#paint0_linear_794_197)"/>
<defs>
<linearGradient id="paint0_linear_794_197" x1="17" y1="0.208008" x2="17" y2="27.3939" gradientUnits="userSpaceOnUse">
<stop stop-color="white"/>
<stop offset="1" stop-color="#D0D0D0"/>
</linearGradient>
</defs>
</svg>
