<svg width="34" height="35" viewBox="0 0 34 35" fill="none" xmlns="http://www.w3.org/2000/svg">
<path d="M10.6844 34.6567C14.1708 34.6567 17.0002 32.069 17.0002 28.8806V23.1045H10.6844C7.19813 23.1045 4.36865 25.6922 4.36865 28.8806C4.36865 32.069 7.19813 34.6567 10.6844 34.6567Z" fill="#0ACF83"/>
<path d="M4.36865 17.3279C4.36865 14.1395 7.19813 11.5518 10.6844 11.5518H17.0002V23.104H10.6844C7.19813 23.104 4.36865 20.5163 4.36865 17.3279Z" fill="#A259FF"/>
<path d="M4.36865 5.77611C4.36865 2.5877 7.19813 0 10.6844 0H17.0002V11.5522H10.6844C7.19813 11.5522 4.36865 8.96452 4.36865 5.77611Z" fill="#F24E1E"/>
<path d="M17 0H23.3158C26.8021 0 29.6316 2.5877 29.6316 5.77611C29.6316 8.96452 26.8021 11.5522 23.3158 11.5522H17V0Z" fill="#FF7262"/>
<path d="M29.6316 17.3279C29.6316 20.5163 26.8021 23.104 23.3158 23.104C19.8295 23.104 17 20.5163 17 17.3279C17 14.1395 19.8295 11.5518 23.3158 11.5518C26.8021 11.5518 29.6316 14.1395 29.6316 17.3279Z" fill="#1ABCFE"/>
</svg>
