<svg width="35" height="33" viewBox="0 0 35 33" fill="none" xmlns="http://www.w3.org/2000/svg">
<path d="M26.1066 0H7.9918C3.57805 0 0 3.36891 0 7.52467V24.5806C0 28.7364 3.57805 32.1053 7.9918 32.1053H26.1066C30.5203 32.1053 34.0984 28.7364 34.0984 24.5806V7.52467C34.0984 3.36891 30.5203 0 26.1066 0Z" fill="#330000"/>
<path d="M16.4808 19.1042H11.1955L10.1157 22.2479C10.0873 22.3683 9.97373 22.4486 9.84586 22.4352H7.17474C7.0185 22.4352 6.97587 22.3549 7.0185 22.1944L11.5934 9.79371C11.636 9.66002 11.6786 9.51279 11.7354 9.35226C11.7923 9.07134 11.8206 8.77713 11.8206 8.48279C11.8065 8.41594 11.8633 8.34897 11.9344 8.33568H15.6141C15.7278 8.33568 15.7846 8.37581 15.7988 8.44265L20.9846 22.2212C21.0272 22.3683 20.9846 22.4352 20.8426 22.4352H17.8731C17.7737 22.4486 17.6742 22.3817 17.6459 22.288L16.4808 19.1042ZM12.0196 16.3887H15.6283C15.5431 16.1078 15.4295 15.7733 15.3016 15.4255C15.1737 15.0644 15.0459 14.6765 14.918 14.2752C14.7759 13.8604 14.648 13.4591 14.5059 13.0444C14.3639 12.6298 14.236 12.2417 14.1223 11.8538C14.0087 11.4794 13.9092 11.1315 13.8098 10.8104H13.7813C13.6534 11.3857 13.4972 11.9609 13.2983 12.5361C13.0852 13.1782 12.8721 13.847 12.6447 14.5159C12.4612 15.1473 12.2527 15.772 12.0196 16.3887ZM24.1529 10.6766C23.6841 10.69 23.2295 10.5161 22.8885 10.2084C22.5618 9.87397 22.3913 9.43252 22.4054 8.97778C22.3913 8.52292 22.5759 8.09489 22.9169 7.78713C23.2578 7.4795 23.7126 7.31897 24.1814 7.31897C24.7355 7.31897 25.1618 7.4795 25.4742 7.78713C25.7891 8.11146 25.9573 8.53858 25.9431 8.97778C25.9573 9.43252 25.7868 9.87397 25.4459 10.2084C25.1191 10.5295 24.636 10.7034 24.1529 10.6766ZM22.5618 22.288V11.9877C22.5618 11.8538 22.6185 11.8003 22.7464 11.8003H25.5595C25.6873 11.8003 25.7442 11.8673 25.7442 11.9877V22.288C25.7442 22.4352 25.6873 22.5021 25.5595 22.5021H22.7749C22.6327 22.5021 22.5618 22.4219 22.5618 22.288Z" fill="#FF9A00"/>
</svg>
