<svg width="97" height="97" fill="none" xmlns="http://www.w3.org/2000/svg"><g opacity=".8" filter="url(#a)"><circle cx="48.5" cy="44.5" r="44.5" fill="#F8D6CB"/></g><path d="M41.455 30.154H53.7c4.665 0 8.455 3.75 8.455 8.368v12.12c0 2.218-.89 4.347-2.476 5.916A8.5 8.5 0 0 1 53.7 59.01H41.455C36.79 59.01 33 55.26 33 50.641v-12.12c0-2.219.89-4.347 2.476-5.916a8.5 8.5 0 0 1 5.979-2.451Zm-.292 2.885a5.276 5.276 0 0 0-3.71 1.521 5.167 5.167 0 0 0-1.538 3.673V50.93c0 2.87 2.348 5.194 5.248 5.194h12.829a5.276 5.276 0 0 0 3.71-1.522 5.167 5.167 0 0 0 1.538-3.672V38.233c0-2.871-2.347-5.194-5.248-5.194H41.163Zm14.068 2.164c.483 0 .947.19 1.288.529a1.794 1.794 0 0 1 0 2.55 1.832 1.832 0 0 1-2.577 0 1.795 1.795 0 0 1 0-2.55 1.832 1.832 0 0 1 1.289-.529Zm-7.653 2.164c1.933 0 3.787.76 5.153 2.113a7.176 7.176 0 0 1 2.135 5.101 7.176 7.176 0 0 1-2.135 5.101 7.327 7.327 0 0 1-5.153 2.113 7.328 7.328 0 0 1-5.154-2.113 7.177 7.177 0 0 1-2.135-5.1c0-1.914.768-3.749 2.135-5.102a7.327 7.327 0 0 1 5.154-2.112Zm0 2.886c-1.16 0-2.273.456-3.093 1.268a4.306 4.306 0 0 0-1.28 3.06c0 1.148.46 2.25 1.28 3.061a4.397 4.397 0 0 0 3.093 1.268c1.16 0 2.272-.456 3.092-1.268a4.306 4.306 0 0 0 1.28-3.06c0-1.148-.46-2.25-1.28-3.061a4.397 4.397 0 0 0-3.092-1.268Z" fill="#620D09"/><defs><filter id="a" x="0" y="0" width="97" height="97" filterUnits="userSpaceOnUse" color-interpolation-filters="sRGB"><feFlood flood-opacity="0" result="BackgroundImageFix"/><feColorMatrix in="SourceAlpha" values="0 0 0 0 0 0 0 0 0 0 0 0 0 0 0 0 0 0 127 0" result="hardAlpha"/><feOffset dy="4"/><feGaussianBlur stdDeviation="2"/><feComposite in2="hardAlpha" operator="out"/><feColorMatrix values="0 0 0 0 0.384314 0 0 0 0 0.0509804 0 0 0 0 0.0352941 0 0 0 1 0"/><feBlend in2="BackgroundImageFix" result="effect1_dropShadow_40_656"/><feBlend in="SourceGraphic" in2="effect1_dropShadow_40_656" result="shape"/></filter></defs></svg>