<svg width="34" height="34" viewBox="0 0 34 34" fill="none" xmlns="http://www.w3.org/2000/svg">
<path fill-rule="evenodd" clip-rule="evenodd" d="M7.41816 3.02061L17 2L26.5818 3.02061L33.9999 13.0541L17 33L0 13.0541L7.41816 3.02061Z" fill="#FDB300"/>
<path fill-rule="evenodd" clip-rule="evenodd" d="M6.88577 13.0547L17 33.0005L0 13.0547H6.88577Z" fill="#EA6C00"/>
<path fill-rule="evenodd" clip-rule="evenodd" d="M27.1141 13.0547L17 33.0005L33.9999 13.0547H27.1141Z" fill="#EA6C00"/>
<path fill-rule="evenodd" clip-rule="evenodd" d="M6.88574 13.0547H27.1141L17 33.0005L6.88574 13.0547Z" fill="#FDAD00"/>
<path fill-rule="evenodd" clip-rule="evenodd" d="M17 2L7.41803 3.02061L6.88574 13.0541L17 2Z" fill="#FDD231"/>
<path fill-rule="evenodd" clip-rule="evenodd" d="M17 2L26.5818 3.02061L27.1141 13.0541L17 2Z" fill="#FDD231"/>
<path fill-rule="evenodd" clip-rule="evenodd" d="M34 13.055L26.5818 3.02148L27.1142 13.055H34Z" fill="#FDAD00"/>
<path fill-rule="evenodd" clip-rule="evenodd" d="M0 13.055L7.41805 3.02148L6.88577 13.055H0Z" fill="#FDAD00"/>
<path fill-rule="evenodd" clip-rule="evenodd" d="M17 2L6.88574 13.0541H27.1141L17 2Z" fill="#FEEEB7"/>
</svg>
