<svg width="34" height="34" viewBox="0 0 34 34" fill="none" xmlns="http://www.w3.org/2000/svg">
<g clip-path="url(#clip0_769_195)">
<path d="M30.6797 0H3.32031C1.48655 0 0 1.48655 0 3.32031V30.6797C0 32.5134 1.48655 34 3.32031 34H30.6797C32.5134 34 34 32.5134 34 30.6797V3.32031C34 1.48655 32.5134 0 30.6797 0Z" fill="url(#paint0_linear_769_195)"/>
<path d="M27.9862 4.41992H20.8037C19.9235 4.41992 19.21 5.13347 19.21 6.01367V17.7012C19.21 18.5814 19.9235 19.2949 20.8037 19.2949H27.9862C28.8664 19.2949 29.58 18.5814 29.58 17.7012V6.01367C29.58 5.13347 28.8664 4.41992 27.9862 4.41992Z" fill="white"/>
<path d="M13.1963 4.41992H6.01379C5.13359 4.41992 4.42004 5.13347 4.42004 6.01367V26.2012C4.42004 27.0814 5.13359 27.7949 6.01379 27.7949H13.1963C14.0765 27.7949 14.79 27.0814 14.79 26.2012V6.01367C14.79 5.13347 14.0765 4.41992 13.1963 4.41992Z" fill="white"/>
</g>
<defs>
<linearGradient id="paint0_linear_769_195" x1="1700" y1="0" x2="1700" y2="3400" gradientUnits="userSpaceOnUse">
<stop stop-color="#0091E6"/>
<stop offset="1" stop-color="#0079BF"/>
</linearGradient>
<clipPath id="clip0_769_195">
<rect width="34" height="34" fill="white"/>
</clipPath>
</defs>
</svg>
