<svg width="34" height="27" viewBox="0 0 34 27" fill="none" xmlns="http://www.w3.org/2000/svg">
<g clip-path="url(#clip0_337_264)">
<path d="M5.24046 18.5825L3.46184 19.2268L3.36621 24.4741L9.5234 22.2435C7.41168 21.5402 5.86946 20.3024 5.24046 18.5825Z" fill="#FDBD39"/>
<path d="M6.1714 13.0324L0 15.2681L3.46189 19.2267L5.24052 18.5824C4.61338 16.8675 5.00012 14.9289 6.1714 13.0324Z" fill="#F69833"/>
<path d="M16.5566 5.46088C8.6979 8.30786 3.63151 14.1825 5.2404 18.5825L33.6991 8.27256C32.0902 3.87262 24.4152 2.61376 16.5566 5.46061" fill="#FECF33"/>
<path d="M22.3831 21.3942C30.2416 18.5473 35.3177 12.6985 33.6991 8.27264L5.24048 18.5824C6.85893 23.0083 14.5245 24.2411 22.3831 21.3942Z" fill="#EE6723"/>
<path d="M33.6991 8.27252L5.24048 18.5826C5.79776 20.1064 7.92276 20.8572 10.9045 20.8572C13.8114 20.8572 17.5325 20.1442 21.412 18.7388C29.2706 15.8918 34.7998 11.2823 33.6991 8.27279" fill="#F69833"/>
<path d="M28.0351 5.99792C25.1281 5.99792 21.407 6.71099 17.5275 8.11631C9.66903 10.9633 4.13992 15.5728 5.2404 18.5824L33.6991 8.27251C33.1419 6.74866 31.0168 5.99792 28.0351 5.99792Z" fill="#FDBD39"/>
<path d="M26.4636 24.752H26.4633C25.626 24.752 24.3908 24.002 22.7918 22.5227C20.9 20.7728 18.7331 18.2096 16.6902 15.3053C14.6471 12.4012 12.9684 9.49782 11.9631 7.12998C10.8678 4.54944 10.7116 2.96276 11.4989 2.41407C11.6716 2.29382 11.8797 2.23297 12.1173 2.23297C12.7577 2.23297 14.0055 2.7058 16.3128 4.95839L16.3633 5.00765L16.3564 5.07759C16.3406 5.23925 16.3262 5.40103 16.3131 5.56293L16.2875 5.88113L16.061 5.65499C13.575 3.17125 12.4807 2.9031 12.1255 2.9031C12.0242 2.9031 11.9436 2.92351 11.8858 2.96382C11.5442 3.20181 11.5223 4.36716 12.5841 6.86867C13.5715 9.19436 15.2258 12.054 17.2424 14.9203C19.2591 17.7871 21.3928 20.3124 23.2508 22.0312C25.2542 23.8845 26.157 24.0845 26.4521 24.0845C26.554 24.0845 26.6369 24.0629 26.6982 24.02C27.0586 23.7691 27.059 22.5206 25.8748 19.8281L25.8204 19.7046L25.9395 19.6401C26.0585 19.5754 26.1736 19.5118 26.2815 19.4509L26.4241 19.3706L26.4897 19.5198C27.3294 21.4276 28.1143 23.8523 27.0851 24.5699C26.9117 24.6907 26.7026 24.752 26.4636 24.752ZM26.4633 24.4577H26.4636L26.4634 24.6048L26.4633 24.4577Z" fill="#EE6723"/>
<path d="M22.5738 21.3138L22.5619 21.4604C22.3632 23.8983 21.84 26.8293 20.476 26.9478C20.4487 26.9503 20.4203 26.9515 20.3917 26.9515C19.4652 26.9515 18.5885 25.635 17.7863 23.0385C17.0272 20.582 16.4383 17.2838 16.1278 13.7514C15.8172 10.2197 15.8219 6.86972 16.1408 4.31881C16.4886 1.539 17.1503 0.0871902 18.1077 0.00395122C18.1361 0.00131707 18.1655 0 18.1945 0C18.8666 0 19.8797 0.754683 20.9167 4.27048L20.2396 4.40008C19.8934 3.22525 19.5159 2.26971 19.1413 1.61315C18.7948 1.00585 18.4578 0.671444 18.1926 0.671444C18.1838 0.671444 18.1751 0.671707 18.1664 0.672366C17.7514 0.708585 17.147 1.70693 16.8099 4.40166C16.4967 6.90699 16.4929 10.2067 16.7993 13.693C17.1059 17.1798 17.6852 20.4287 18.4307 22.8413C18.7645 23.9217 19.1306 24.8122 19.4896 25.4165C19.8206 25.9736 20.141 26.2805 20.3914 26.2805C20.4002 26.2805 20.4087 26.2801 20.4173 26.2794C20.8144 26.2449 21.5628 25.206 21.8777 21.5506L22.5738 21.3138Z" fill="#EE6723"/>
</g>
<defs>
<clipPath id="clip0_337_264">
<rect width="34" height="27" fill="white"/>
</clipPath>
</defs>
</svg>
