<svg width="33" height="45" viewBox="0 0 33 45" fill="none" xmlns="http://www.w3.org/2000/svg">
<g clip-path="url(#clip0_519_201)">
<path d="M8.31152 44.3935C12.7275 44.3935 16.3115 41.0788 16.3115 36.9946V29.5957H8.31152C3.89552 29.5957 0.311523 32.9104 0.311523 36.9946C0.311523 41.0788 3.89552 44.3935 8.31152 44.3935Z" fill="#0ACF83"/>
<path d="M0.311523 22.1967C0.311523 18.1126 3.89552 14.7979 8.31152 14.7979H16.3115V29.5956H8.31152C3.89552 29.5956 0.311523 26.2809 0.311523 22.1967Z" fill="#A259FF"/>
<path d="M0.311523 7.39889C0.311523 3.3147 3.89552 0 8.31152 0H16.3115V14.7978H8.31152C3.89552 14.7978 0.311523 11.4831 0.311523 7.39889Z" fill="#F24E1E"/>
<path d="M16.3115 0H24.3115C28.7275 0 32.3115 3.3147 32.3115 7.39889C32.3115 11.4831 28.7275 14.7978 24.3115 14.7978H16.3115V0Z" fill="#FF7262"/>
<path d="M32.3115 22.1967C32.3115 26.2809 28.7275 29.5956 24.3115 29.5956C19.8955 29.5956 16.3115 26.2809 16.3115 22.1967C16.3115 18.1126 19.8955 14.7979 24.3115 14.7979C28.7275 14.7979 32.3115 18.1126 32.3115 22.1967Z" fill="#1ABCFE"/>
</g>
<defs>
<clipPath id="clip0_519_201">
<rect width="32" height="44.3933" fill="white" transform="translate(0.311523)"/>
</clipPath>
</defs>
</svg>
