<svg width="34" height="32" viewBox="0 0 34 32" fill="none" xmlns="http://www.w3.org/2000/svg">
<mask id="mask0_794_191" style="mask-type:luminance" maskUnits="userSpaceOnUse" x="4" y="0" width="26" height="32">
<path d="M29.8787 0H4.12109V31.8827H29.8787V0Z" fill="white"/>
</mask>
<g mask="url(#mask0_794_191)">
<path fill-rule="evenodd" clip-rule="evenodd" d="M8.40446 0H29.0524C29.2714 0.000684405 29.4811 0.0913871 29.636 0.252299C29.7908 0.413211 29.878 0.631258 29.8787 0.858823V24.8124C29.8412 25.4818 29.01 25.4974 28.1114 25.4559H8.09992C6.85685 25.4559 5.84093 26.5119 5.84093 27.8041C5.84093 29.0961 6.85685 30.1522 8.09992 30.1522H28.1114V27.6536H29.8787V30.8294C29.8787 31.408 29.4244 31.8802 28.8678 31.8802H8.18729C5.95076 31.8827 4.12109 29.9809 4.12109 27.6561V4.45238C4.12109 2.00305 6.04811 0 8.40446 0ZM9.20072 3.4768H9.91462C10.279 3.4768 10.5786 3.72848 10.5786 4.03464V21.5406C10.5786 21.8467 10.279 22.0985 9.91462 22.0985H9.20072C8.83628 22.0985 8.53675 21.8467 8.53675 21.5406V4.03464C8.53924 3.72588 8.83628 3.4768 9.20072 3.4768Z" fill="url(#paint0_linear_794_191)"/>
</g>
<defs>
<linearGradient id="paint0_linear_794_191" x1="16.9999" y1="0" x2="16.9999" y2="31.8802" gradientUnits="userSpaceOnUse">
<stop stop-color="white"/>
<stop offset="1" stop-color="#D0D0D0"/>
</linearGradient>
</defs>
</svg>
