<svg width="34" height="34" viewBox="0 0 34 34" fill="none" xmlns="http://www.w3.org/2000/svg">
<g clip-path="url(#clip0_769_199)">
<path d="M7.23962 21.4409C7.23962 23.3879 5.65172 24.9782 3.70442 24.9782C1.75739 24.9782 0.167358 23.3879 0.167358 21.4409C0.167358 19.4939 1.75766 17.9036 3.70469 17.9036H7.23989L7.23962 21.4409ZM9.0217 21.4409C9.0217 19.4939 10.612 17.9036 12.559 17.9036C14.5061 17.9036 16.0964 19.4936 16.0964 21.4409V30.2955C16.0964 32.2425 14.5063 33.8328 12.559 33.8328C10.612 33.8328 9.0217 32.2425 9.0217 30.2955V21.4409Z" fill="#DE1C59"/>
<path d="M12.559 7.2395C10.612 7.2395 9.0217 5.6516 9.0217 3.7043C9.0217 1.75727 10.612 0.167236 12.559 0.167236C14.5061 0.167236 16.0964 1.75753 16.0964 3.70456V7.23977L12.559 7.2395ZM12.559 9.02158C14.5061 9.02158 16.0964 10.6119 16.0964 12.5589C16.0964 14.5059 14.5063 16.0962 12.559 16.0962H3.70442C1.75739 16.0962 0.167358 14.5062 0.167358 12.5589C0.167358 10.6119 1.75766 9.02158 3.70469 9.02158H12.559Z" fill="#35C5F0"/>
<path d="M26.7604 12.5589C26.7604 10.6119 28.3483 9.02158 30.2956 9.02158C32.2427 9.02158 33.833 10.6119 33.833 12.5589C33.833 14.5059 32.2427 16.0962 30.2956 16.0962H26.7604V12.5589ZM24.9783 12.5589C24.9783 14.5059 23.388 16.0962 21.441 16.0962C19.494 16.0962 17.9037 14.5062 17.9037 12.5589V3.7043C17.9037 1.75727 19.4937 0.167236 21.441 0.167236C23.388 0.167236 24.9783 1.75753 24.9783 3.70456V12.5589Z" fill="#2EB57D"/>
<path d="M21.441 26.7603C23.388 26.7603 24.9783 28.3482 24.9783 30.2955C24.9783 32.2425 23.388 33.8328 21.441 33.8328C19.494 33.8328 17.9037 32.2425 17.9037 30.2955V26.7603H21.441ZM21.441 24.9782C19.494 24.9782 17.9037 23.3879 17.9037 21.4409C17.9037 19.4939 19.4937 17.9036 21.441 17.9036H30.2956C32.2427 17.9036 33.833 19.4936 33.833 21.4409C33.833 23.3879 32.2427 24.9782 30.2956 24.9782H21.441Z" fill="#EBB02E"/>
</g>
<defs>
<clipPath id="clip0_769_199">
<rect width="34" height="34" fill="white"/>
</clipPath>
</defs>
</svg>
