<svg width="33" height="24" viewBox="0 0 33 24" fill="none" xmlns="http://www.w3.org/2000/svg">
<path fill-rule="evenodd" clip-rule="evenodd" d="M0 2.29792C4.64062 -0.544113 9.38867 -0.981349 14.3032 2.29792V23.5305C10.906 21.0324 5.96997 21.3337 0 23.5305V2.29792ZM15.8689 2.35124H17.2869C17.5769 2.35124 17.8132 2.58586 17.8132 2.87113V23.4772C17.8132 23.7652 17.5769 23.9998 17.2869 23.9998H15.8689C15.7295 23.9991 15.596 23.9438 15.4975 23.8459C15.3989 23.7481 15.3432 23.6156 15.3425 23.4772V2.87113C15.3452 2.58586 15.5815 2.35124 15.8689 2.35124ZM33 2.29792C28.3594 -0.544113 23.6086 -0.981349 18.6941 2.29792V23.5305C22.0913 21.0324 27.0273 21.3337 33 23.5305V2.29792Z" fill="url(#paint0_linear_339_672)"/>
<defs>
<linearGradient id="paint0_linear_339_672" x1="16.5" y1="-0.000488281" x2="16.5" y2="23.9998" gradientUnits="userSpaceOnUse">
<stop stop-color="white"/>
<stop offset="1" stop-color="#D0D0D0"/>
</linearGradient>
</defs>
</svg>
