<svg width="33" height="31" viewBox="0 0 33 31" fill="none" xmlns="http://www.w3.org/2000/svg">
<path fill-rule="evenodd" clip-rule="evenodd" d="M11.9625 0.230347C5.3559 0.230347 0 5.65814 0 12.3534C0 27.4028 19.8 30.329 19.8 30.329V24.4765H21.0375C27.6441 24.4765 33 19.0487 33 12.3534C33 5.65814 27.6441 0.230347 21.0375 0.230347H11.9625ZM16.5 14.8617C17.047 14.8617 17.5716 14.6414 17.9584 14.2495C18.3452 13.8575 18.5625 13.3258 18.5625 12.7715C18.5625 12.2171 18.3452 11.6855 17.9584 11.2935C17.5716 10.9015 17.047 10.6813 16.5 10.6813C15.953 10.6813 15.4284 10.9015 15.0416 11.2935C14.6548 11.6855 14.4375 12.2171 14.4375 12.7715C14.4375 13.3258 14.6548 13.8575 15.0416 14.2495C15.4284 14.6414 15.953 14.8617 16.5 14.8617ZM25.1625 12.7715C25.1625 13.3258 24.9452 13.8575 24.5584 14.2495C24.1716 14.6414 23.647 14.8617 23.1 14.8617C22.553 14.8617 22.0284 14.6414 21.6416 14.2495C21.2548 13.8575 21.0375 13.3258 21.0375 12.7715C21.0375 12.2171 21.2548 11.6855 21.6416 11.2935C22.0284 10.9015 22.553 10.6813 23.1 10.6813C23.647 10.6813 24.1716 10.9015 24.5584 11.2935C24.9452 11.6855 25.1625 12.2171 25.1625 12.7715ZM9.9 14.8617C10.447 14.8617 10.9716 14.6414 11.3584 14.2495C11.7452 13.8575 11.9625 13.3258 11.9625 12.7715C11.9625 12.2171 11.7452 11.6855 11.3584 11.2935C10.9716 10.9015 10.447 10.6813 9.9 10.6813C9.35299 10.6813 8.82839 10.9015 8.44159 11.2935C8.0548 11.6855 7.8375 12.2171 7.8375 12.7715C7.8375 13.3258 8.0548 13.8575 8.44159 14.2495C8.82839 14.6414 9.35299 14.8617 9.9 14.8617Z" fill="url(#paint0_linear_339_666)"/>
<defs>
<linearGradient id="paint0_linear_339_666" x1="16.5" y1="0.230347" x2="16.5" y2="30.329" gradientUnits="userSpaceOnUse">
<stop stop-color="white"/>
<stop offset="1" stop-color="#D0D0D0"/>
</linearGradient>
</defs>
</svg>
