<svg width="32" height="33" viewBox="0 0 32 33" fill="none" xmlns="http://www.w3.org/2000/svg">
<path d="M24.5 0H7.5C3.35786 0 0 3.36891 0 7.52467V24.5806C0 28.7364 3.35786 32.1053 7.5 32.1053H24.5C28.6421 32.1053 32 28.7364 32 24.5806V7.52467C32 3.36891 28.6421 0 24.5 0Z" fill="#4353FF"/>
<path d="M21.1381 12.972C21.1381 12.972 19.4113 18.4 19.2836 18.8609C19.2326 18.4086 17.9736 8.65332 17.9736 8.65332C15.0303 8.65332 13.465 10.7528 12.6313 12.972C12.6313 12.972 10.5301 18.4171 10.36 18.8694C10.3515 18.4427 10.0367 13.0231 10.0367 13.0231C9.858 10.3005 7.3825 8.65332 5.375 8.65332L7.791 23.427C10.8704 23.4185 12.5293 21.3275 13.3969 19.0999C13.3969 19.0999 15.2429 14.2948 15.3195 14.0815C15.3365 14.2863 16.6465 23.427 16.6465 23.427C19.7345 23.427 21.4019 21.4726 22.295 19.3303L26.625 8.65332C23.571 8.65332 21.9632 10.7443 21.1381 12.972Z" fill="white"/>
</svg>
