<svg width="34" height="35" viewBox="0 0 34 35" fill="none" xmlns="http://www.w3.org/2000/svg">
<path d="M26.0312 0.223694H7.96875C3.56773 0.223694 0 3.80316 0 8.21866V26.3406C0 30.7561 3.56773 34.3355 7.96875 34.3355H26.0312C30.4323 34.3355 34 30.7561 34 26.3406V8.21866C34 3.80316 30.4323 0.223694 26.0312 0.223694Z" fill="#470137"/>
<path d="M17.8286 14.6787L13.8443 21.2746L18.0943 28.2701C18.1208 28.3234 18.1341 28.3767 18.1208 28.43C18.1076 28.4833 18.0544 28.4434 17.9747 28.4567H14.9333C14.7208 28.4567 14.5747 28.4434 14.4818 28.3101C14.2029 27.7505 13.9107 27.2042 13.6318 26.6445C13.3529 26.0982 13.0474 25.5385 12.7286 24.9656C12.4099 24.3926 12.0911 23.8196 11.7724 23.2333H11.7458C11.4669 23.8063 11.1615 24.3793 10.856 24.9522C10.5505 25.5252 10.2451 26.0982 9.95287 26.6578C9.6474 27.2175 9.34193 27.7904 9.03646 28.3368C8.98334 28.47 8.87709 28.4833 8.73099 28.4833H5.80912C5.75599 28.4833 5.71615 28.51 5.71615 28.4434C5.70287 28.3901 5.71615 28.3368 5.74271 28.2968L9.87318 21.5011L5.84896 14.6654C5.80912 14.6121 5.79584 14.5588 5.8224 14.5321C5.84896 14.4922 5.90209 14.4788 5.95521 14.4788H8.97005C9.03646 14.4788 9.10287 14.4922 9.15599 14.5055C9.20912 14.5321 9.24896 14.5721 9.2888 14.6254C9.54115 15.1984 9.83333 15.7714 10.1388 16.3443C10.4576 16.9173 10.763 17.4769 11.0951 18.0366C11.4138 18.5962 11.706 19.1559 11.9849 19.7289H12.0115C12.2904 19.1426 12.5826 18.5696 12.8747 18.0099C13.1669 17.4503 13.4724 16.8906 13.7779 16.331C14.0833 15.7714 14.3755 15.1984 14.6677 14.6521C14.681 14.5988 14.7076 14.5455 14.7474 14.5188C14.8005 14.4922 14.8536 14.4788 14.9201 14.4922H17.7224C17.7888 14.4788 17.8552 14.5188 17.8685 14.5854C17.8818 14.5988 17.8552 14.6521 17.8286 14.6787ZM23.9646 28.7367C22.9818 28.75 21.999 28.5501 21.1091 28.137C20.2724 27.7506 19.5818 27.111 19.1037 26.3248C18.6122 25.512 18.3732 24.4993 18.3732 23.2868C18.3599 22.3007 18.6122 21.328 19.1037 20.4752C19.6083 19.6091 20.3388 18.8895 21.2154 18.4098C22.1451 17.8902 23.2607 17.637 24.5755 17.637C24.6419 17.637 24.7349 17.637 24.8544 17.6503C24.974 17.6636 25.1068 17.6636 25.2661 17.677V13.4663C25.2661 13.373 25.306 13.3197 25.399 13.3197H28.0951C28.1615 13.3064 28.2146 13.3597 28.2279 13.413V26.125C28.2279 26.3648 28.2411 26.6313 28.2544 26.9245C28.281 27.2043 28.2943 27.4708 28.3076 27.6973C28.3076 27.7906 28.2677 27.8705 28.1747 27.9105C27.4841 28.2037 26.7537 28.4169 26.0099 28.5501C25.3326 28.67 24.6552 28.7367 23.9646 28.7367ZM25.2661 26.0717V20.2087C25.1466 20.182 25.0271 20.1554 24.9076 20.1421C24.7615 20.1287 24.6154 20.1154 24.4693 20.1154C23.9513 20.1154 23.4333 20.222 22.9685 20.4619C22.5169 20.6884 22.1318 21.0215 21.8396 21.4479C21.5474 21.8743 21.4013 22.4473 21.4013 23.1402C21.388 23.6066 21.4677 24.0729 21.6271 24.5126C21.7599 24.8724 21.9591 25.1922 22.2247 25.4587C22.4771 25.6986 22.7826 25.8851 23.1279 25.9917C23.4865 26.1116 23.8583 26.1649 24.2302 26.1649C24.4294 26.1649 24.6154 26.1516 24.788 26.1383C24.9607 26.1516 25.1068 26.125 25.2661 26.0717Z" fill="#FF61F6"/>
</svg>
