<svg width="33" height="34" viewBox="0 0 33 34" fill="none" xmlns="http://www.w3.org/2000/svg">
<path d="M25.2656 0H7.73438C3.4628 0 0 3.47419 0 7.75982V25.3487C0 29.6344 3.4628 33.1086 7.73438 33.1086H25.2656C29.5372 33.1086 33 29.6344 33 25.3487V7.75982C33 3.47419 29.5372 0 25.2656 0Z" fill="#00005B"/>
<path d="M13.562 20.2402H8.44442L7.40028 23.4994C7.3745 23.6287 7.25848 23.7063 7.14246 23.6934H4.55145C4.39676 23.6934 4.35809 23.6158 4.39676 23.4476L8.83114 10.6698C8.86981 10.5275 8.90848 10.3853 8.97293 10.2171C9.03739 9.93261 9.08895 9.63515 9.08895 9.33769C9.07606 9.27303 9.12762 9.19543 9.20496 9.1825H12.7757C12.8659 9.1825 12.9432 9.22129 12.9561 9.29889L17.9577 23.4735C17.9964 23.6287 17.9577 23.6934 17.8159 23.6934H14.9413C14.8511 23.7063 14.7479 23.6416 14.7222 23.5382L13.562 20.2402ZM9.24364 17.4855H12.737C12.6597 17.201 12.5436 16.8518 12.4147 16.4897C12.2858 16.1146 12.1698 15.7137 12.0409 15.2998C11.8991 14.873 11.7831 14.4592 11.6413 14.0324C11.4995 13.6056 11.3835 13.2047 11.2675 12.8037C11.1514 12.4158 11.0612 12.0536 10.9581 11.7303H10.9323C10.8034 12.3252 10.6616 12.9201 10.4682 13.5151C10.262 14.1746 10.0557 14.873 9.8366 15.5585C9.66903 16.2569 9.44989 16.9035 9.24364 17.4855ZM28.5151 12.8037V21.2749C28.5151 21.6499 28.5151 21.9733 28.528 22.2707C28.5409 22.5552 28.5538 22.8139 28.5667 23.0338C28.5925 23.2536 28.6054 23.383 28.6182 23.5252C28.6311 23.6546 28.5796 23.7063 28.4636 23.7063H26.1046C25.9886 23.7192 25.8854 23.6546 25.8468 23.5511L25.7694 23.2019C25.7436 23.1114 25.7436 23.0079 25.7436 22.9174C25.3054 23.3183 24.7639 23.6028 24.1839 23.771C23.694 23.9132 23.1655 23.9779 22.6499 23.9779C22.1343 23.9779 21.6315 23.9132 21.1546 23.7451C20.7163 23.5899 20.3038 23.3312 19.9815 22.982C19.6206 22.594 19.3628 22.1414 19.2081 21.637C19.0147 21.0033 18.9245 20.3437 18.9374 19.6712V12.8167C18.9245 12.7391 18.9761 12.6485 19.0792 12.6356H21.7475C21.8249 12.6227 21.9151 12.6744 21.928 12.7779V19.3091C21.928 19.9169 22.0698 20.3954 22.3276 20.7446C22.5854 21.0938 23.1268 21.2749 23.7456 21.2749C24.0679 21.2749 24.3772 21.2231 24.6866 21.1067C25.0089 20.9903 25.2925 20.8481 25.5503 20.6541V12.8037C25.5503 12.7132 25.6147 12.6485 25.7436 12.6485H28.3733C28.4378 12.6356 28.528 12.6873 28.528 12.7649C28.5151 12.7779 28.5151 12.7908 28.5151 12.8037Z" fill="#9999FF"/>
</svg>
