<svg width="34" height="34" viewBox="0 0 34 34" fill="none" xmlns="http://www.w3.org/2000/svg">
<g clip-path="url(#clip0_339_624)">
<path d="M15.7754 0.0404011C15.6468 0.053948 15.2455 0.101495 14.8914 0.143198C13.4639 0.306026 11.8452 0.734745 10.4246 1.3332C5.28346 3.48131 1.4141 8.19429 0.346555 13.6C0.0952734 14.8857 0.0341797 15.5173 0.0341797 17C0.0341797 18.9112 0.224102 20.23 0.727461 21.8966C2.37301 27.3498 6.65701 31.6269 12.1244 33.2789C13.7699 33.7758 15.0959 33.9658 16.9999 33.9658C18.9111 33.9658 20.2299 33.7758 21.8964 33.2725C27.3497 31.6269 31.6268 27.3429 33.2787 21.8756C33.7757 20.23 33.9656 18.904 33.9656 17C33.9656 16.1907 33.9253 15.2663 33.8775 14.9258C33.3266 10.9956 31.7078 7.69067 29.0091 4.99085C26.3154 2.31176 23.0243 0.686932 19.1754 0.136026C18.6452 0.0611199 16.1903 -0.00741141 15.7754 0.0404011ZM10.2336 10.7504C10.5949 10.8593 10.7638 10.9613 11.0087 11.2059C11.485 11.6894 11.5939 11.9542 11.5939 12.6815C11.5939 13.2263 11.5732 13.328 11.4104 13.6133C11.0969 14.1435 10.3696 14.6333 9.86655 14.6466C9.51248 14.654 9.52709 14.4973 9.91437 14.0896C10.431 13.5522 10.5056 13.3485 10.5056 12.5455C10.4993 11.7707 10.4039 11.5058 10.0437 11.288C9.7441 11.1045 9.41818 11.118 8.94191 11.3419C7.7041 11.9343 6.36455 13.906 5.84154 15.9261C5.14746 18.6187 6.3781 20.7738 8.40456 20.4064C8.99584 20.2975 10.1112 19.7269 10.5949 19.2775C10.9955 18.9112 10.9955 18.904 11.0358 18.4487C11.1251 17.4959 11.7974 16.5445 12.696 16.1025C13.1098 15.8979 13.2126 15.8783 13.7699 15.8783C14.3001 15.8783 14.4226 15.9054 14.681 16.0475C15.5036 16.5177 15.3336 17.612 14.4433 17.612C13.9266 17.612 13.661 17.3464 14.0355 17.2046C14.4029 17.0686 14.2658 16.558 13.8384 16.4427C13.3351 16.3131 12.7635 16.6534 12.4033 17.306C11.9676 18.0949 11.9477 19.0337 12.3618 19.4613C12.7635 19.8898 13.2666 19.5506 13.6546 18.577C13.8581 18.0811 14.1506 17.8155 14.4911 17.8155C14.7899 17.8155 14.8449 17.9993 14.715 18.5574C14.5243 19.4207 14.6539 19.6449 15.1913 19.3803C15.3676 19.2982 15.6604 19.1086 15.8367 18.9726L16.1698 18.7069L16.3951 17.5302C16.64 16.2114 16.7343 16.0339 17.2376 15.9397C17.7211 15.8504 17.83 16.0889 17.6526 16.8433L17.5569 17.2657L17.911 16.9044C18.7472 16.0475 19.7744 15.6262 20.1282 15.98C20.3181 16.1699 20.2974 16.4085 20.0256 17.251C19.8968 17.6527 19.7194 18.2857 19.6386 18.6456C19.5162 19.1893 19.5087 19.3189 19.5775 19.4074C19.7954 19.6656 20.4613 19.4 21.0528 18.8219L21.3995 18.4827L21.4409 17.7273C21.4813 16.8569 21.5623 16.5445 21.7936 16.2653C22.0115 16.0071 22.4059 15.8172 22.6166 15.8711C22.8272 15.9261 22.8272 16.1296 22.6373 16.7283C22.3716 17.5509 22.3995 19.4478 22.6715 19.4478C22.7804 19.4478 23.3375 18.8634 23.6915 18.3738L23.9561 18.0126L23.7455 17.7958C23.3781 17.408 23.2899 17.1567 23.2899 16.5238C23.2899 16.0621 23.3242 15.8918 23.4392 15.6666C23.6302 15.3138 23.929 15.0557 24.2828 14.9529C24.6563 14.8376 25.119 15.0275 25.3089 15.3678C25.4999 15.7144 25.4524 16.4895 25.2072 17.0207L25.0308 17.4078H25.2686C25.5953 17.4078 25.7241 17.3267 26.3093 16.7758C26.6153 16.4834 26.9691 16.2313 27.2336 16.1089C28.2744 15.6201 29.4989 15.8711 29.7021 16.6191C29.8721 17.2178 29.4989 17.6391 28.8452 17.5913C28.3761 17.5573 28.2879 17.4346 28.5599 17.2046C29.0495 16.7955 28.5599 16.2727 27.8595 16.4627C27.4786 16.5652 27.0501 16.9929 26.8262 17.4898C26.3767 18.4827 26.6153 19.652 27.2607 19.652C27.5192 19.652 27.9755 19.1418 28.1519 18.6456C28.3626 18.0739 28.8046 17.714 29.1376 17.8434C29.3215 17.9111 29.335 18.0947 29.2197 18.6727C29.0901 19.3057 29.0702 19.8972 29.1719 20.1689C29.2126 20.2704 29.335 20.4614 29.4511 20.5902C29.6678 20.8349 29.6753 20.9233 29.4915 21.0394C29.4033 21.1005 29.2869 21.0737 29.0019 20.9172C28.6075 20.7127 28.2672 20.3453 28.1447 19.9987L28.0701 19.7952L27.7981 19.9987C27.6414 20.1076 27.3967 20.23 27.2544 20.2704C26.6899 20.4199 25.9958 20.0329 25.6702 19.3803C25.5403 19.1279 25.4999 18.3874 25.5953 18.1018C25.6495 17.9451 25.6495 17.9451 25.4314 18.054C25.3164 18.1154 25.0715 18.1829 24.8815 18.2036C24.5681 18.2381 24.5203 18.2721 24.2082 18.6663C23.7662 19.2161 22.9836 19.9583 22.6641 20.115C21.9846 20.4542 21.7604 20.3589 21.583 19.6581L21.4606 19.1893L21.1678 19.4478C20.7944 19.7745 20.0464 20.1689 19.6176 20.2643C19.2099 20.3525 18.7743 20.2229 18.5976 19.9509C18.3334 19.5431 18.4215 18.6798 18.8426 17.5167C19.1549 16.6534 18.931 16.6401 18.1424 17.4627C17.5572 18.0811 17.3059 18.5231 17.1431 19.21C16.9731 19.924 16.7686 20.1822 16.3069 20.2911C16.0277 20.3525 15.8978 20.1822 15.9531 19.8087L15.9935 19.5089L15.735 19.6863C15.3676 19.9376 14.9049 20.1689 14.5854 20.2571C14.2658 20.3453 13.8446 20.2507 13.7428 20.0733C13.5593 19.7612 13.5593 19.7612 13.274 19.9851C12.6546 20.4885 11.7706 20.3453 11.3222 19.6791L11.1787 19.4685L10.7306 19.8834C9.43783 21.0665 7.82018 21.5967 6.62301 21.2293C5.09965 20.7677 4.25709 19.4613 4.27063 17.578C4.27701 15.6876 5.1132 13.6954 6.52127 12.2198C7.31709 11.3898 8.06509 10.8999 8.8269 10.7164C9.37674 10.5804 9.7109 10.5873 10.2336 10.7504Z" fill="#00C4CC"/>
<path d="M24.0172 15.5859C23.8676 15.7351 23.9226 16.3339 24.1128 16.7148C24.2081 16.9119 24.3099 17.0686 24.3439 17.0686C24.371 17.0686 24.4321 16.9119 24.4799 16.7209C24.6499 16.0143 24.3439 15.2589 24.0172 15.5859Z" fill="#00C4CC"/>
</g>
<defs>
<clipPath id="clip0_339_624">
<rect width="34" height="34" fill="white"/>
</clipPath>
</defs>
</svg>
