<svg width="99" height="22" fill="none" xmlns="http://www.w3.org/2000/svg"><path d="M81.25 1.5a2.75 2.75 0 0 0-2.75 2.75v13.5a2.75 2.75 0 0 0 2.75 2.75h13.5a2.75 2.75 0 0 0 2.75-2.75v-4.5a.75.75 0 1 1 1.5 0v4.5A4.25 4.25 0 0 1 94.75 22h-13.5A4.25 4.25 0 0 1 77 17.75V4.25A4.25 4.25 0 0 1 81.25 0h4.5a.75.75 0 1 1 0 1.5h-4.5ZM89.5.75a.75.75 0 0 1 .75-.75h8a.75.75 0 0 1 .75.75v8a.75.75 0 1 1-1.5 0V2.56l-6.22 6.22a.75.75 0 1 1-1.06-1.06l6.22-6.22h-6.19a.75.75 0 0 1-.75-.75Z" fill="url(#a)"/><path d="M8.473 11.707H2.479V18H2.02V5.203H9.29v.475H2.479v5.537h5.994v.492ZM13.37 8.49h3.964v9.035h3.375V18h-7.339v-.475h3.49v-8.56h-3.49V8.49Zm3.085-2.707c0-.082.009-.16.027-.237a.573.573 0 0 1 .096-.22.5.5 0 0 1 .185-.14.783.783 0 0 1 .307-.053c.117 0 .214.017.29.053.082.035.15.082.203.14.046.065.079.138.096.22a.804.804 0 0 1 .035.237.715.715 0 0 1-.14.43c-.088.13-.25.194-.484.194-.24 0-.404-.064-.492-.193a.786.786 0 0 1-.123-.43Zm7.65 7.365c0-.533.058-1.069.175-1.608a5.4 5.4 0 0 1 .598-1.53c.287-.48.674-.881 1.16-1.203.486-.328 1.096-.493 1.828-.493.305 0 .604.044.897.132.299.082.58.202.844.36a3.778 3.778 0 0 1 1.3 1.31V8.49h.484v9.378c0 .545-.082 1.058-.246 1.538-.159.48-.39.9-.695 1.257-.304.363-.68.648-1.125.853-.44.21-.949.316-1.529.316-.375 0-.733-.053-1.072-.158a3.66 3.66 0 0 1-.95-.43 4.531 4.531 0 0 1-.58-.45 4.695 4.695 0 0 1-.51-.562l.335-.316c.14.17.287.328.44.475.157.152.321.287.491.404.258.176.54.313.844.413.305.106.633.158.984.158.516 0 .967-.09 1.354-.272.393-.182.72-.43.984-.747.258-.317.451-.689.58-1.117.135-.421.205-.875.211-1.362v-1.274a3.119 3.119 0 0 1-.597.676 3.745 3.745 0 0 1-.747.493 3.932 3.932 0 0 1-1.714.413c-.674 0-1.24-.14-1.697-.422a3.797 3.797 0 0 1-1.142-1.081 4.597 4.597 0 0 1-.694-1.591 7.624 7.624 0 0 1-.212-1.749v-.185Zm.483.185a8.6 8.6 0 0 0 .193 1.59c.123.546.32 1.026.59 1.442.233.393.559.715.975.967.416.246.914.37 1.494.37.316 0 .633-.045.95-.133.316-.088.614-.216.896-.386.275-.17.518-.378.73-.624.216-.252.38-.54.491-.862v-4.579a3.262 3.262 0 0 0-.457-.94 3.34 3.34 0 0 0-.694-.739 3.16 3.16 0 0 0-.888-.474 2.934 2.934 0 0 0-1.01-.176c-.657 0-1.199.15-1.627.448a3.29 3.29 0 0 0-.993 1.099c-.234.41-.401.864-.5 1.362-.1.498-.15.982-.15 1.45v.185Zm10.41-4.843.017 1.248c.181-.41.45-.747.808-1.01.364-.264.844-.402 1.442-.414.316 0 .589.041.817.123.235.077.434.182.598.317.164.135.296.293.395.475.1.175.176.36.229.553.094-.193.214-.378.36-.553a2.681 2.681 0 0 1 1.204-.791c.252-.083.53-.124.835-.124.475 0 .859.091 1.152.273.298.176.515.401.65.677.152.263.252.548.299.852.047.305.07.59.07.853L43.858 18h-.431l-.018-7.031a5.2 5.2 0 0 0-.052-.695 2.107 2.107 0 0 0-.22-.73 1.463 1.463 0 0 0-.519-.553c-.228-.152-.539-.222-.931-.21-.387.011-.712.075-.976.193a1.995 1.995 0 0 0-.642.448 2.24 2.24 0 0 0-.404.598 6.511 6.511 0 0 0-.237.632v.08a.197.197 0 0 1 .009.061L39.419 18h-.43l-.018-7.207a5.5 5.5 0 0 0-.062-.66 1.884 1.884 0 0 0-.228-.667 1.428 1.428 0 0 0-.528-.492c-.222-.135-.524-.2-.905-.194-.41.012-.747.088-1.01.229-.258.14-.47.32-.633.536-.164.223-.29.469-.378.738-.082.27-.153.533-.211.791L34.998 18h-.43V8.49h.43ZM53.774 18a5.95 5.95 0 0 1-.141-.888 14.825 14.825 0 0 1-.044-.887 3.808 3.808 0 0 1-.738.852 3.986 3.986 0 0 1-.923.607 4.659 4.659 0 0 1-1.064.369 5.368 5.368 0 0 1-1.151.123c-.38 0-.753-.059-1.116-.176a3.014 3.014 0 0 1-.967-.492 2.338 2.338 0 0 1-.932-1.916c0-.569.138-1.037.413-1.407a2.972 2.972 0 0 1 1.073-.896c.433-.217.92-.37 1.459-.457.539-.088 1.072-.135 1.6-.14h2.346v-1.39c-.012-.427-.1-.8-.264-1.115a2.292 2.292 0 0 0-.65-.783 2.846 2.846 0 0 0-.958-.457 3.986 3.986 0 0 0-1.134-.158c-.351 0-.712.047-1.08.14a3.502 3.502 0 0 0-.994.423 2.606 2.606 0 0 0-.747.73c-.2.286-.308.629-.325 1.027l-.475-.017c.023-.463.146-.867.37-1.213.228-.346.515-.636.86-.87.34-.229.718-.402 1.134-.519a4.68 4.68 0 0 1 1.257-.176c.469 0 .911.065 1.327.194.422.123.791.307 1.108.554.316.251.565.568.747.949.187.375.287.811.299 1.31v4.763c.006.322.035.63.088.923.052.293.108.598.166.914l.01.079h-.554Zm-4.061-.29a4.4 4.4 0 0 0 2.303-.571c.334-.194.636-.434.905-.721.27-.287.492-.618.668-.993v-2.25h-2.32c-.475.011-.973.052-1.495.123a4.03 4.03 0 0 0-1.397.44 2.553 2.553 0 0 0-.879.746c-.223.3-.33.68-.325 1.143 0 .334.076.633.229.896.152.258.351.475.597.65.24.177.51.311.809.405.304.088.606.132.905.132Z" fill="url(#b)"/><path d="M8.473 11.707v1h1v-1h-1Zm-5.994 0v-1h-1v1h1Zm0 6.293v1h1v-1h-1Zm-.458 0h-1v1h1v-1Zm0-12.797v-1h-1v1h1Zm7.269 0h1v-1h-1v1Zm0 .475v1h1v-1h-1Zm-6.811 0v-1h-1v1h1Zm0 5.537h-1v1h1v-1Zm5.994 0h1v-1h-1v1Zm0-.508H2.479v2h5.994v-2Zm-6.994 1V18h2v-6.293h-2Zm1 5.293H2.02v2h.458v-2Zm.542 1V5.203h-2V18h2Zm-1-11.797H9.29v-2H2.021v2Zm6.269-1v.475h2v-.475h-2Zm1-.525H2.479v2H9.29v-2Zm-7.811 1v5.537h2V5.678h-2Zm1 6.537h5.994v-2H2.479v2Zm4.994-1v.492h2v-.492h-2ZM13.37 8.49v-1h-1v1h1Zm3.964 0h1v-1h-1v1Zm0 9.035h-1v1h1v-1Zm3.375 0h1v-1h-1v1Zm0 .475v1h1v-1h-1Zm-7.339 0h-1v1h1v-1Zm0-.475v-1h-1v1h1Zm3.49 0v1h1v-1h-1Zm0-8.56h1v-1h-1v1Zm-3.49 0h-1v1h1v-1Zm3.112-3.42.974.226.002-.008.001-.008-.977-.21Zm.096-.219-.78-.625-.015.018-.014.019.81.588Zm.185-.14-.394-.92-.013.006-.012.006.419.908Zm.597 0-.419.908.013.005.012.006.394-.92Zm.203.14.808-.588-.03-.042-.035-.039-.743.67Zm.096.22-.978.21.01.042.012.042.956-.294Zm-.105.668-.809-.588-.009.012-.008.013.826.563Zm-.976 0-.844.537.009.013.009.013.826-.563ZM13.371 9.49h3.964v-2h-3.964v2Zm2.964-1v9.035h2V8.49h-2Zm1 10.035h3.375v-2h-3.375v2Zm2.375-1V18h2v-.475h-2Zm1-.525h-7.339v2h7.339v-2Zm-6.339 1v-.475h-2V18h2Zm-1 .525h3.49v-2h-3.49v2Zm4.49-1v-8.56h-2v8.56h2Zm-1-9.56h-3.49v2h3.49v-2Zm-2.49 1V8.49h-2v.475h2Zm3.085-3.182v-.012l-1.948-.45a2.053 2.053 0 0 0-.052.462h2Zm.004-.028a.43.43 0 0 1-.072.16L15.77 4.737a1.57 1.57 0 0 0-.265.598l1.955.42Zm-.1.196a.503.503 0 0 1-.177.143l-.838-1.816c-.2.092-.392.23-.547.423l1.562 1.25Zm-.202.154a.392.392 0 0 1-.087.027c-.013.002-.015 0 0 0v-2c-.21 0-.457.03-.701.134l.788 1.839Zm-.087.028c.01 0 .002 0-.018-.003a.468.468 0 0 1-.11-.036l.837-1.816a1.685 1.685 0 0 0-.709-.145v2Zm-.104-.028a.437.437 0 0 1-.147-.11l1.487-1.338a1.566 1.566 0 0 0-.552-.39l-.788 1.838Zm-.212-.19a.428.428 0 0 1-.073-.16l1.956-.419a1.574 1.574 0 0 0-.266-.598l-1.617 1.176Zm-.05-.075a.2.2 0 0 1-.01-.057h2c0-.179-.025-.357-.079-.531l-1.912.588Zm-.01-.057a.277.277 0 0 1 .051-.157l1.617 1.176c.218-.298.332-.648.332-1.019h-2Zm.034-.132a.604.604 0 0 1 .268-.22c.07-.029.106-.024.074-.024v2c.39 0 .955-.11 1.31-.63l-1.652-1.126Zm.342-.244c-.037 0-.006-.006.063.021.08.031.188.1.271.223l-1.652 1.126c.359.527.934.63 1.318.63v-2Zm.352.27a.224.224 0 0 1 .033.106h-2c0 .341.092.672.28.968l1.687-1.074Zm6.858 5.863-.975-.22-.002.008.977.212Zm.598-1.53-.859-.512-.006.01.865.503Zm1.16-1.203.552.833.007-.004-.559-.83Zm2.725-.36-.288.957.012.004.011.003.265-.965Zm2.144 1.67-.862.505 1.862 3.173v-3.679h-1Zm0-1.627v-1h-1v1h1Zm.484 0h1v-1h-1v1Zm-.246 10.916-.947-.323-.003.01.95.313Zm-.695 1.257-.76-.649-.006.006.766.643Zm-1.125.853-.418-.909-.007.004-.008.003.433.902Zm-2.601.158.296-.955-.008-.003-.007-.002-.281.96Zm-.95-.43-.543.839.004.002.54-.842Zm-.58-.45-.683.731.006.006.006.005.671-.741Zm-.51-.562-.687-.726-.656.622.552.715.792-.61Zm.335-.316.77-.638-.682-.823-.776.735.688.726Zm.44.475.693-.72v-.001l-.694.72Zm.491.404-.567.823.004.003.563-.826Zm.844.413.327-.945-.008-.003-.008-.003-.311.951Zm2.338-.114-.42-.908-.005.003.425.905Zm.984-.747.768.64.007-.009-.775-.631Zm.58-1.117-.952-.304-.003.008-.002.008.957.288Zm.211-1.362 1 .012v-.012h-1Zm0-1.274h1v-3.369l-1.838 2.823.838.546Zm-.597.676.646.764.001-.002-.647-.762Zm-5.3-.597.822-.57-.002-.002-.82.572Zm-.422-3.34h-1v.023l1-.023Zm.193 1.59-.978.209.003.012.975-.22Zm.59 1.442.858-.512-.01-.016-.01-.015-.839.543Zm.975.967-.518.855.009.006.509-.861Zm3.34-.15.517.857.008-.005-.525-.851Zm.73-.623-.759-.653-.001.002.76.65Zm.491-.862.945.327.055-.159v-.168h-1Zm0-4.579h1v-.149l-.043-.143-.957.292Zm-.457-.94-.821.57.005.008.816-.578Zm-.694-.739.614-.789-.009-.006-.605.795Zm-.888-.474-.341.94.007.002.008.003.326-.945Zm-2.636.272-.573-.82-.006.004.579.816Zm-.994 1.099.869.496.006-.011-.875-.485Zm-.134 2.812c0-.459.051-.924.154-1.396l-1.955-.424a8.549 8.549 0 0 0-.198 1.82h2Zm.152-1.388c.1-.447.263-.862.487-1.247l-1.73-1.004a6.397 6.397 0 0 0-.708 1.81l1.95.441Zm.48-1.236c.208-.347.488-.64.855-.884l-1.105-1.667c-.606.401-1.1.91-1.466 1.525l1.716 1.026Zm.861-.888c.285-.192.687-.322 1.27-.322v-2c-.883 0-1.7.2-2.388.664l1.118 1.658Zm1.27-.322c.206 0 .408.03.608.09l.575-1.916a4.103 4.103 0 0 0-1.184-.174v2Zm.631.097c.212.058.409.142.594.253l1.029-1.715a4.363 4.363 0 0 0-1.093-.467l-.53 1.929Zm.594.253c.192.115.37.255.537.421l1.414-1.414c-.279-.28-.587-.52-.922-.722l-1.029 1.715Zm.537.421c.163.163.301.342.416.537L31.77 9.61a4.663 4.663 0 0 0-.727-.94l-1.414 1.415Zm2.278.031V8.49h-2v1.626h2Zm-1-.626h.484v-2h-.484v2Zm-.516-1v9.378h2V8.49h-2Zm0 9.378c0 .443-.067.846-.193 1.215l1.893.646c.202-.591.3-1.214.3-1.86h-2Zm-.196 1.226c-.121.366-.292.669-.506.92l1.522 1.298c.395-.464.688-.999.883-1.593l-1.9-.626Zm-.51.926a2.186 2.186 0 0 1-.778.587l.837 1.817a4.187 4.187 0 0 0 1.472-1.118l-1.532-1.286Zm-.793.594c-.28.135-.638.218-1.096.218v2c.702 0 1.364-.128 1.962-.415l-.866-1.803Zm-1.096.218c-.28 0-.537-.04-.776-.113l-.593 1.91c.441.137.899.203 1.369.203v-2Zm-.791-.118a2.662 2.662 0 0 1-.692-.313l-1.078 1.684c.375.24.778.423 1.207.549l.563-1.92Zm-.687-.31a3.522 3.522 0 0 1-.452-.35l-1.343 1.482c.225.204.46.387.708.547l1.087-1.68Zm-.44-.34a3.704 3.704 0 0 1-.402-.442l-1.583 1.221c.19.246.396.474.618.682l1.366-1.46Zm-.506.894.334-.316-1.375-1.452-.334.316 1.375 1.452Zm-1.124-.404c.164.197.336.384.517.558l1.386-1.442a4.683 4.683 0 0 1-.362-.392l-1.54 1.276Zm.516.557c.195.188.401.357.619.507l1.135-1.646a2.915 2.915 0 0 1-.366-.302l-1.388 1.44Zm.623.51c.338.23.704.41 1.096.538l.622-1.901a2.322 2.322 0 0 1-.591-.29l-1.127 1.653Zm1.08.532c.419.145.858.213 1.311.213v-2c-.25 0-.466-.037-.657-.103l-.654 1.89Zm1.311.213c.633 0 1.235-.111 1.779-.367l-.85-1.81c-.23.107-.53.177-.929.177v2Zm1.774-.365c.52-.24.97-.578 1.332-1.014l-1.536-1.28a1.781 1.781 0 0 1-.636.48l.84 1.814Zm1.34-1.023c.347-.427.599-.918.762-1.459l-1.915-.577c-.095.314-.23.567-.398.773l1.55 1.263Zm.757-1.443a5.635 5.635 0 0 0 .258-1.655l-2-.024a3.644 3.644 0 0 1-.163 1.07l1.905.609Zm.258-1.667v-1.274h-2v1.274h2Zm-1.838-1.82a2.12 2.12 0 0 1-.407.46l1.295 1.524c.307-.26.57-.558.788-.893l-1.676-1.09Zm-.405.46c-.168.14-.35.26-.549.36l.895 1.79c.34-.171.656-.379.946-.624l-1.292-1.527Zm-.549.36c-.201.101-.41.177-.63.23l.467 1.945c.367-.088.72-.217 1.058-.386l-.895-1.789Zm-.63.23c-.22.053-.432.078-.636.078v2c.37 0 .737-.045 1.103-.133l-.467-1.945Zm-.636.078c-.536 0-.909-.111-1.173-.274l-1.048 1.704c.65.4 1.409.57 2.22.57v-2Zm-1.173-.274c-.34-.209-.619-.473-.844-.799l-1.644 1.14c.384.553.866 1.01 1.44 1.363l1.048-1.704Zm-.846-.8a3.598 3.598 0 0 1-.541-1.249l-1.947.458c.167.71.447 1.358.847 1.933l1.641-1.142Zm-.541-1.249a6.623 6.623 0 0 1-.184-1.52h-2c0 .651.08 1.311.237 1.978l1.947-.458Zm-.184-1.52v-.185h-2v.185h2Zm-1.517.023c.014.578.086 1.17.215 1.776l1.956-.416a7.597 7.597 0 0 1-.171-1.406l-2 .046Zm.218 1.788c.146.646.384 1.238.725 1.765l1.678-1.087a3.419 3.419 0 0 1-.452-1.118l-1.951.44Zm.706 1.734c.323.542.769.978 1.316 1.31l1.036-1.711a1.803 1.803 0 0 1-.635-.624l-1.717 1.025Zm1.325 1.315c.598.354 1.28.508 2.003.508v-2c-.437 0-.752-.091-.985-.23l-1.018 1.722Zm2.003.508c.41 0 .816-.057 1.217-.168l-.535-1.927a2.533 2.533 0 0 1-.682.095v2Zm1.217-.168a4.577 4.577 0 0 0 1.146-.495l-1.035-1.711a2.576 2.576 0 0 1-.646.279l.535 1.927Zm1.154-.5c.363-.224.685-.5.963-.824l-1.518-1.301a2.097 2.097 0 0 1-.495.424l1.05 1.702Zm.962-.822c.302-.35.528-.749.68-1.187l-1.89-.653a1.62 1.62 0 0 1-.306.535l1.516 1.305Zm.734-1.514v-4.579h-2v4.58h2Zm-.043-4.87a4.261 4.261 0 0 0-.598-1.227l-1.632 1.156c.135.19.241.406.317.654l1.913-.584Zm-.592-1.22a4.337 4.337 0 0 0-.902-.957l-1.228 1.579c.18.14.342.311.487.519l1.643-1.14Zm-.91-.963a4.16 4.16 0 0 0-1.167-.624l-.653 1.89c.222.077.424.185.608.325l1.211-1.591Zm-1.152-.619a3.935 3.935 0 0 0-1.352-.236v2c.237 0 .458.04.668.116l.684-1.88Zm-1.352-.236c-.809 0-1.565.185-2.2.629l1.146 1.64c.221-.155.549-.269 1.053-.269v-2Zm-2.205.632a4.29 4.29 0 0 0-1.29 1.43l1.75.97a2.29 2.29 0 0 1 .697-.768l-1.157-1.632ZM24.371 9.84a5.504 5.504 0 0 0-.613 1.662l1.96.392c.081-.4.212-.752.39-1.062L24.37 9.84Zm-.613 1.662a8.385 8.385 0 0 0-.17 1.646h2c0-.397.043-.815.13-1.254l-1.96-.392Zm-.17 1.646v.185h2v-.185h-2Zm11.41-4.658 1-.014-.014-.986h-.986v1Zm.018 1.248-1 .014 1.914.391-.914-.405Zm.808-1.01-.587-.81-.006.005.593.805Zm1.442-.414v-1h-.02l.02 1Zm.817.123-.338.942.015.005.014.005.31-.951Zm.993.792-.877.48.007.013.87-.493Zm.229.553-.965.263.701 2.572 1.164-2.399-.9-.436Zm.888-1.02.549.836.01-.007-.56-.828Zm2.663-.175-.527.85.01.006.01.006.507-.862Zm.65.677-.898.44.015.03.017.03.866-.5Zm.37 1.705 1 .002v-.002h-1ZM43.857 18v1h.997l.003-.997-1-.003Zm-.431 0-1 .003.002.997h.998v-1Zm-.018-7.031h-1v.002l1-.002Zm-.052-.695-.994.113.001.011.002.011.99-.135Zm-.22-.73.89-.455-.005-.01-.885.466Zm-.519-.553-.554.832.007.005.008.005.54-.842Zm-.931-.21-.03-1 .03 1Zm-.976.193-.406-.914-.008.003.414.91Zm-1.046 1.046-.908-.418-.005.01-.005.01.918.398Zm-.237.632-.954-.3-.046.147v.153h1Zm0 .08h-1v.162l.051.154.949-.317Zm.009.061 1 .002v-.002h-1ZM39.419 18v1h.998l.002-.998-1-.002Zm-.43 0-1 .002.002.998h.997v-1Zm-.018-7.207 1-.002v-.027l-1 .029Zm-.062-.66-.99.146.001.003.99-.148Zm-.228-.667.868-.496-.008-.015-.01-.015-.85.526Zm-.528-.492-.517.855.013.008.013.008.491-.871Zm-.905-.194-.015-1h-.013l.028 1Zm-1.01.229-.471-.883-.008.005.478.878Zm-.633.536-.798-.604-.007.01.805.594Zm-.378.738-.951-.31-.003.01-.003.009.957.291Zm-.211.791-.975-.221-.025.108v.11l1 .003ZM34.998 18v1h.998l.002-.997-1-.003Zm-.43 0h-1v1h1v-1Zm0-9.51v-1h-1v1h1Zm-.57.014.018 1.248 2-.028-.018-1.248-2 .028Zm1.932 1.64c.112-.254.272-.452.488-.612l-1.187-1.61a3.484 3.484 0 0 0-1.13 1.411l1.83.81Zm.482-.607c.15-.11.413-.214.873-.223l-.039-2c-.735.015-1.434.187-2.01.604l1.176 1.619Zm.854-.223c.234 0 .386.031.48.065l.675-1.883a3.415 3.415 0 0 0-1.155-.182v2Zm.508.075a.822.822 0 0 1 .272.138l1.27-1.546a2.81 2.81 0 0 0-.924-.495l-.618 1.903Zm.272.138a.616.616 0 0 1 .154.182l1.753-.961a2.615 2.615 0 0 0-.638-.767l-1.269 1.546Zm.16.195c.06.104.103.21.134.323l1.93-.526a3.4 3.4 0 0 0-.324-.784l-1.74.987Zm1.999.497c.056-.116.13-.233.228-.35l-1.536-1.28c-.195.233-.36.486-.492.757l1.8.873Zm.228-.35c.08-.095.18-.186.309-.27l-1.099-1.672a3.387 3.387 0 0 0-.746.661l1.536 1.28Zm.32-.278c.114-.077.254-.147.426-.203l-.62-1.901a3.681 3.681 0 0 0-.927.447l1.12 1.657Zm.426-.203c.138-.045.31-.074.525-.074v-2c-.394 0-.779.054-1.144.173l.619 1.901Zm.525-.074c.356 0 .539.07.625.123l1.053-1.7c-.5-.31-1.084-.423-1.678-.423v2Zm.645.135a.61.61 0 0 1 .259.254l1.796-.879a2.6 2.6 0 0 0-1.041-1.099l-1.014 1.724Zm.291.315c.09.155.148.32.176.504l1.977-.304a3.425 3.425 0 0 0-.421-1.2l-1.732 1Zm.176.504c.04.263.06.496.06.7h2a6.63 6.63 0 0 0-.083-1.004l-1.977.304Zm.06.698-.018 7.031 2 .006.017-7.032-2-.005ZM43.857 17h-.431v2h.43v-2Zm.569.997-.018-7.03-2 .004.018 7.032 2-.006Zm-.018-7.028c0-.26-.022-.538-.062-.83l-1.981.27c.03.225.043.41.043.56h2Zm-.059-.807a3.109 3.109 0 0 0-.323-1.073l-1.78.912c.062.12.1.247.116.386l1.987-.226Zm-.328-1.083a2.463 2.463 0 0 0-.864-.93l-1.08 1.684c.095.06.144.12.174.178l1.77-.932Zm-.849-.92c-.461-.307-1.002-.394-1.516-.378l.06 1.999c.27-.008.35.046.347.043l1.109-1.664Zm-1.517-.378c-.474.014-.936.094-1.351.279l.812 1.827c.112-.05.301-.098.6-.107l-.06-2Zm-1.359.282c-.36.164-.687.386-.958.676l1.46 1.366c.07-.074.171-.15.326-.221l-.828-1.82Zm-.958.676c-.24.256-.436.545-.582.863l1.817.835c.053-.115.126-.225.226-.332l-1.46-1.366Zm-.592.884a7.52 7.52 0 0 0-.273.73l1.908.6c.053-.17.12-.348.201-.537l-1.836-.793Zm-.32 1.03V10.732h2V10.652h-2Zm.052.395a.807.807 0 0 1-.042-.255h2c0-.104-.013-.235-.06-.378l-1.898.633Zm-.042-.258-.018 7.208 2 .004.018-7.207-2-.005Zm.982 6.21h-.43v2h.43v-2Zm.57.998-.018-7.208-2 .005.017 7.207 2-.004Zm-.019-7.234a6.509 6.509 0 0 0-.072-.779l-1.978.297c.03.2.047.38.051.54l2-.058ZM39.9 9.99a2.883 2.883 0 0 0-.35-1.02l-1.736.993c.053.094.09.197.107.317l1.979-.29Zm-.367-1.049a2.427 2.427 0 0 0-.887-.837l-.983 1.742c.1.056.144.107.168.146l1.702-1.05Zm-.86-.822c-.442-.267-.953-.345-1.44-.338l.032 2c.275-.004.368.047.372.05l1.035-1.712Zm-1.452-.337c-.51.014-1.012.11-1.453.345l.941 1.765c.086-.046.259-.102.569-.111l-.057-2Zm-1.461.35a2.952 2.952 0 0 0-.952.81l1.595 1.207a.955.955 0 0 1 .314-.261L35.76 8.13Zm-.96.82c-.228.312-.403.654-.523 1.022l1.901.62c.056-.17.134-.32.233-.455L34.8 8.952Zm-.529 1.041c-.089.291-.165.578-.23.86l1.95.444c.054-.233.118-.474.193-.722l-1.913-.582Zm-.254 1.08-.018 6.925 2 .006.018-6.926-2-.005ZM34.998 17h-.43v2h.43v-2Zm.57 1V8.49h-2V18h2Zm-1-8.51h.43v-2h-.43v2ZM53.775 18l-.974.229.182.771h.792v-1Zm-.185-1.775 1-.02-.065-3.312-1.779 2.795.844.537Zm-.738.852-.651-.76-.008.008.659.752Zm-.923.607-.428-.904-.007.003-.006.003.44.898ZM48.598 18l.307-.952-.007-.002-.007-.002-.293.956Zm-1.486-3.815.802.598.005-.005-.806-.593Zm1.073-.896-.448-.894-.004.002.452.892Zm3.058-.598v-1h-.01l.01 1Zm2.347 0v1h1v-1h-1Zm0-1.388h1v-.028l-1 .028Zm-.914-1.899.605-.796-.008-.006-.597.802Zm-.958-.457-.283.96.01.002.008.003.265-.965Zm-2.215-.017-.246-.97-.004.001.25.969Zm-.993.422-.532-.848-.011.008.543.84Zm-.747.73.822.57.005-.009-.827-.562Zm-.325 1.027-.037 1 .992.036.044-.992-1-.044Zm-.475-.017-.999-.05-.05 1.012 1.012.037.037-1Zm.37-1.213-.835-.552-.006.01.84.542Zm.86-.87-.557-.83-.004.002.562.828Zm1.134-.519-.267-.963h-.004l.271.963Zm2.584.018-.296.955.008.002.008.003.28-.96Zm1.108.554.623-.783-.01-.007-.613.79Zm.747.949-.903.43.004.009.004.008.895-.447Zm.299 1.31h1v-.024l-1 .023Zm0 4.763h-1V16.102l1-.018Zm.255 1.837.993-.11-.004-.037-.006-.035-.983.182Zm.008.079v1h1.117l-.123-1.11-.994.11Zm-4.614-.29.014-1h-.014v1Zm1.204-.132.236.972.01-.003-.246-.969Zm1.099-.44.494.87.007-.004-.501-.865Zm1.573-1.713.905.424.095-.201v-.223h-1Zm0-2.25h1v-1h-1v1Zm-2.32 0v-1h-.025l.025 1Zm-2.892.562.47.883.007-.004-.477-.879Zm-.879.747.802.598.006-.008-.808-.59Zm-.325 1.143h1v-.013l-1 .013Zm.229.896-.866.5.005.01.86-.51Zm.597.65.59-.806-.009-.007-.58.814Zm.809.405-.3.954.011.004.012.003.277-.96Zm5.939.193a4.933 4.933 0 0 1-.117-.738l-1.994.159c.028.346.083.691.164 1.037l1.947-.458Zm-.117-.738a13.793 13.793 0 0 1-.041-.828l-2 .04c.006.318.022.634.047.947l1.994-.16Zm-1.885-1.345c-.152.24-.334.449-.545.63l1.301 1.518c.363-.31.674-.67.932-1.074l-1.688-1.074Zm-.553.637a2.991 2.991 0 0 1-.692.455l.856 1.807a4.986 4.986 0 0 0 1.153-.757l-1.317-1.505Zm-.705.461c-.26.127-.538.224-.836.29l.427 1.954a5.661 5.661 0 0 0 1.29-.449l-.881-1.795Zm-.836.29c-.303.066-.616.1-.938.1v2c.463 0 .918-.049 1.365-.146l-.427-1.954Zm-.938.1c-.276 0-.545-.042-.81-.128l-.613 1.904c.462.149.938.224 1.423.224v-2Zm-.823-.132a2.015 2.015 0 0 1-.65-.328l-1.22 1.584c.382.295.814.512 1.284.656l.586-1.912Zm-.65-.328a1.45 1.45 0 0 1-.402-.483l-1.77.933c.236.445.554.827.951 1.134l1.221-1.584Zm-.402-.483a1.345 1.345 0 0 1-.14-.641h-2c0 .555.115 1.088.37 1.574l1.77-.933Zm-.14-.641c0-.405.096-.65.215-.809l-1.603-1.195c-.432.579-.612 1.271-.612 2.004h2Zm.22-.815c.177-.24.41-.44.718-.596l-.904-1.784a3.971 3.971 0 0 0-1.426 1.197l1.611 1.184Zm.713-.593a4.07 4.07 0 0 1 1.173-.365l-.322-1.974a6.064 6.064 0 0 0-1.745.55l.894 1.789Zm1.173-.365a9.67 9.67 0 0 1 1.45-.128l-.023-2c-.58.007-1.162.058-1.75.154l.323 1.974Zm1.438-.128h2.347v-2h-2.347v2Zm3.347-1v-1.388h-2v1.388h2Zm0-1.416a3.544 3.544 0 0 0-.376-1.549l-1.775.92c.082.159.143.377.151.684l2-.055Zm-.376-1.549a3.293 3.293 0 0 0-.932-1.118L52.07 10.2c.146.11.269.255.369.447l1.775-.92Zm-.94-1.124a3.845 3.845 0 0 0-1.292-.62l-.529 1.93c.255.07.46.17.626.294l1.194-1.604ZM52 7.988c-.456-.134-.93-.199-1.417-.199v2c.31 0 .591.04.85.117l.567-1.918Zm-1.417-.199c-.441 0-.884.059-1.327.171l.492 1.939c.296-.075.573-.11.835-.11v-2Zm-1.33.172a4.5 4.5 0 0 0-1.276.543l1.063 1.695c.207-.13.442-.231.712-.301l-.5-1.937Zm-1.287.551c-.41.266-.756.603-1.031 1.007l1.654 1.124c.123-.182.276-.33.463-.452l-1.086-1.679Zm-1.026.999a2.91 2.91 0 0 0-.502 1.554l1.998.088c.01-.237.07-.39.147-.502l-1.643-1.14Zm.534.6L47 10.091l-.074 2 .475.017.074-1.999Zm.487 1.031c.015-.31.094-.54.21-.722l-1.68-1.083a3.423 3.423 0 0 0-.528 1.704l1.998.101Zm.204-.712c.156-.235.35-.432.589-.594l-1.123-1.655c-.453.307-.833.69-1.134 1.146l1.668 1.103Zm.586-.591c.247-.167.527-.296.846-.386l-.542-1.925c-.512.144-.988.36-1.42.651l1.115 1.66Zm.843-.385c.34-.095.668-.14.99-.14v-2c-.512 0-1.02.073-1.525.213l.535 1.927Zm.99-.14c.375 0 .717.052 1.03.149l.592-1.91a5.46 5.46 0 0 0-1.623-.239v2Zm1.046.154c.313.09.566.221.774.383l1.228-1.579c-.425-.33-.91-.57-1.442-.724l-.56 1.92Zm.765.376c.192.153.348.347.467.597l1.805-.86a3.655 3.655 0 0 0-1.026-1.302l-1.246 1.565Zm.475.614c.11.22.185.508.194.886l2-.047c-.015-.618-.14-1.204-.405-1.733l-1.789.894Zm.194.862v4.764h2V11.32h-2Zm0 4.782c.007.371.04.732.103 1.082l1.969-.354a4.8 4.8 0 0 1-.073-.764l-2 .036Zm.103 1.082.168.919 1.967-.364c-.058-.315-.114-.618-.166-.91l-1.969.355Zm.158.847.008.08 1.988-.221-.009-.08-1.987.221ZM54.328 17h-.553v2h.553v-2ZM49.7 18.71c.496.007.982-.046 1.454-.16l-.472-1.944a3.808 3.808 0 0 1-.954.104l-.028 2Zm1.464-.163c.477-.12.927-.3 1.347-.54l-.989-1.738c-.259.148-.541.262-.85.34l.492 1.938Zm1.354-.543c.42-.243.798-.545 1.133-.902l-1.458-1.369c-.204.218-.43.397-.677.54l1.002 1.731Zm1.133-.902c.345-.367.626-.787.844-1.253L52.685 15a2.786 2.786 0 0 1-.492.733l1.458 1.37Zm.939-1.677v-2.25h-2v2.25h2Zm-1-3.25h-2.32v2h2.32v-2Zm-2.345 0a14.75 14.75 0 0 0-1.603.132l.267 1.982c.49-.066.95-.104 1.385-.114l-.049-2Zm-1.603.132a5.03 5.03 0 0 0-1.741.551l.954 1.758c.29-.158.638-.271 1.054-.327l-.267-1.982Zm-1.734.548a3.552 3.552 0 0 0-1.216 1.04l1.615 1.18c.125-.173.299-.326.54-.455l-.939-1.765Zm-1.21 1.032c-.384.514-.532 1.124-.524 1.753l2-.026c-.004-.297.065-.449.127-.532l-1.604-1.195Zm-.524 1.74c0 .492.114.966.363 1.397l1.731-1a.762.762 0 0 1-.094-.397h-2Zm.368 1.405c.224.38.518.7.877.956l1.162-1.628a1.113 1.113 0 0 1-.318-.345l-1.721 1.017Zm.868.949c.333.244.702.426 1.1.551l.598-1.908c-.2-.063-.37-.15-.517-.257L47.41 17.98Zm1.122.558c.389.112.784.171 1.182.171v-2c-.2 0-.408-.03-.628-.093l-.554 1.922Z" fill="url(#c)"/><defs><linearGradient id="a" x1="88" y1="0" x2="88" y2="22" gradientUnits="userSpaceOnUse"><stop stop-color="#fff"/><stop offset="1" stop-color="#D0D0D0"/></linearGradient><linearGradient id="b" x1="49.5" y1="5" x2="49.5" y2="18" gradientUnits="userSpaceOnUse"><stop stop-color="#fff"/><stop offset="1" stop-color="#D0D0D0"/></linearGradient><linearGradient id="c" x1="49.5" y1="5" x2="49.5" y2="18" gradientUnits="userSpaceOnUse"><stop stop-color="#fff"/><stop offset="1" stop-color="#D0D0D0"/></linearGradient></defs></svg>