<svg width="34" height="36" viewBox="0 0 34 36" fill="none" xmlns="http://www.w3.org/2000/svg">
<path d="M4.21031 0.721581C4.29857 0.508057 4.44819 0.325519 4.64024 0.19707C4.83229 0.0686212 5.05813 3.75054e-05 5.28918 0L28.6413 0C28.951 0 29.248 0.123015 29.4669 0.341984C29.6859 0.560953 29.8089 0.857938 29.8089 1.16761V12.8437C29.8089 13.1533 29.6859 13.4503 29.4669 13.6693C29.248 13.8883 28.951 14.0113 28.6413 14.0113H19.7839L29.468 23.6931C29.6317 23.8564 29.7432 24.0646 29.7885 24.2914C29.8337 24.5182 29.8106 24.7532 29.722 24.9669C29.6335 25.1805 29.4835 25.363 29.2911 25.4912C29.0987 25.6195 28.8726 25.6878 28.6413 25.6874H18.1329V33.8606C18.1333 34.0918 18.065 34.318 17.9367 34.5104C17.8085 34.7028 17.626 34.8528 17.4124 34.9413C17.1987 35.0299 16.9637 35.053 16.7369 35.0078C16.5101 34.9625 16.3019 34.851 16.1386 34.6873L4.46251 23.0112C4.35415 22.9026 4.26827 22.7736 4.20977 22.6318C4.15127 22.49 4.1213 22.338 4.12157 22.1845V12.8437C4.12157 12.534 4.24459 12.237 4.46356 12.0181C4.68252 11.7991 4.97951 11.6761 5.28918 11.6761H14.1466L4.46251 1.99427C4.29932 1.83086 4.18826 1.62272 4.14337 1.39618C4.09847 1.16964 4.12177 0.934879 4.21031 0.721581Z" fill="url(#paint0_linear_782_191)"/>
<defs>
<linearGradient id="paint0_linear_782_191" x1="16.9661" y1="0" x2="16.9661" y2="35.0303" gradientUnits="userSpaceOnUse">
<stop stop-color="white"/>
<stop offset="1" stop-color="#D0D0D0"/>
</linearGradient>
</defs>
</svg>
