<svg width="34" height="9" viewBox="0 0 34 9" fill="none" xmlns="http://www.w3.org/2000/svg">
<path d="M6.2493 2.38756C5.98475 2.11715 5.69736 1.91006 5.39266 1.76623C5.08796 1.6224 4.70274 1.55332 4.26006 1.55332C3.90364 1.55332 3.56439 1.61665 3.24827 1.74316C2.93214 1.86967 2.65604 2.04807 2.42036 2.27823C2.17887 2.50839 1.98917 2.7903 1.85119 3.11822C1.7132 3.44613 1.64425 3.80855 1.64425 4.21129C1.64425 4.61404 1.7132 4.97646 1.85119 5.30437C1.98917 5.63229 2.17887 5.90845 2.42036 6.13854C2.66185 6.36863 2.9435 6.55278 3.25976 6.67936C3.57602 6.80594 3.92088 6.8692 4.28304 6.8692C4.66819 6.8692 5.00744 6.81744 5.29483 6.70811C5.58223 6.59879 5.82953 6.4492 6.03654 6.26519C6.17452 6.13854 6.30101 5.98321 6.4102 5.79912C6.51945 5.60929 6.60571 5.4022 6.66893 5.17204H4.23707V3.7913H8.20392C8.22691 3.88338 8.24415 3.99264 8.26138 4.13072C8.27862 4.2688 8.28444 4.39538 8.28444 4.52771C8.28444 5.07421 8.20392 5.56896 8.04295 6.02353C7.88198 6.47809 7.63474 6.87495 7.31281 7.22593C6.95064 7.61136 6.51945 7.90477 6.01355 8.11761C5.50766 8.33044 4.92692 8.43409 4.2773 8.43409C3.69088 8.43409 3.13895 8.33051 2.62156 8.11761C2.10417 7.9047 1.64999 7.61136 1.25903 7.23743C0.873875 6.86345 0.569175 6.42045 0.339179 5.90845C0.109183 5.39645 0 4.8268 0 4.21704C0 3.60728 0.11493 3.04339 0.339179 2.52564C0.563429 2.00789 0.868129 1.56482 1.25903 1.1909C1.64418 0.816916 2.09842 0.529253 2.62156 0.316415C3.14469 0.103578 3.69663 0 4.2773 0C4.94423 0 5.53632 0.11501 6.04803 0.345168C6.55974 0.575325 7.00236 0.891741 7.37608 1.29448L6.2493 2.38756ZM16.4423 6.09253C16.4423 6.80019 16.1837 7.36977 15.6662 7.80126C15.1431 8.22118 14.5049 8.43409 13.7518 8.43409C13.0849 8.43409 12.4927 8.23844 11.9811 7.84726C11.4694 7.45609 11.1187 6.92102 10.9232 6.24787L11.912 5.83937C11.9811 6.08103 12.0731 6.29962 12.1938 6.49521C12.3144 6.69079 12.4525 6.8577 12.6135 6.99578C12.7744 7.13386 12.9526 7.24319 13.1481 7.32369C13.3437 7.4042 13.5505 7.44452 13.769 7.44452C14.2404 7.44452 14.6314 7.32369 14.9303 7.07635C15.2293 6.83469 15.3787 6.50678 15.3787 6.10404C15.3787 5.76462 15.2522 5.47696 15.0051 5.2353C14.7751 5.00521 14.3381 4.77505 13.7 4.55646C13.0561 4.3263 12.6537 4.16522 12.4927 4.08471C11.6361 3.64747 11.2107 3.00889 11.2107 2.1574C11.2107 1.56482 11.4464 1.05857 11.9179 0.638581C12.4008 0.218588 12.9871 0.00575052 13.6885 0.00575052C14.3037 0.00575052 14.8384 0.161151 15.2868 0.477498C15.7352 0.788163 16.0399 1.17365 16.1894 1.63965L15.2293 2.03657C15.1373 1.73741 14.959 1.48432 14.6946 1.28866C14.4302 1.0874 14.1025 0.989499 13.723 0.989499C13.3149 0.989499 12.9756 1.10458 12.6997 1.32899C12.4238 1.53607 12.2858 1.81223 12.2858 2.1459C12.2858 2.42206 12.395 2.66372 12.6135 2.86506C12.8549 3.06639 13.3781 3.30798 14.1772 3.58421C14.9936 3.86031 15.58 4.20554 15.9307 4.60822C16.2699 5.01096 16.4423 5.50571 16.4423 6.09253ZM22.1857 8.24994H21.1968V7.48478H21.1508C20.9956 7.75519 20.7484 7.97959 20.4265 8.16368C20.0988 8.34201 19.7595 8.43409 19.4089 8.43409C18.7304 8.43409 18.2131 8.23844 17.8509 7.85301C17.4887 7.46759 17.3047 6.91527 17.3047 6.20179V2.72705H18.3395V6.13286C18.3625 7.0361 18.8167 7.48491 19.7021 7.48491C20.116 7.48491 20.461 7.31801 20.7369 6.98434C21.0129 6.65068 21.1508 6.24794 21.1508 5.78194V2.72698H22.1857V8.24994ZM24.5485 0.822666C24.5485 1.02407 24.4795 1.19665 24.3358 1.34049C24.1921 1.48432 24.0196 1.55339 23.8184 1.55339C23.6172 1.55339 23.4447 1.48425 23.301 1.34049C23.1574 1.19672 23.0883 1.02407 23.0883 0.822666C23.0883 0.621261 23.1573 0.448746 23.301 0.304914C23.4447 0.161083 23.6172 0.0920083 23.8184 0.0920083C24.0196 0.0920083 24.1921 0.161151 24.3358 0.304914C24.4795 0.448677 24.5485 0.62133 24.5485 0.822666ZM24.3358 2.72698V8.24994H23.301V2.72698H24.3358ZM27.515 8.34201C27.0666 8.34201 26.6929 8.20393 26.394 7.92784C26.095 7.65175 25.9456 7.26037 25.9397 6.76569V3.67622H24.9682V2.72698H25.9341V1.03557H26.9689V2.72698H28.3199V3.67622H26.9688V6.4262C26.9688 6.79444 27.0379 7.04178 27.1816 7.17411C27.3253 7.30644 27.4863 7.36977 27.6646 7.36977C27.745 7.36977 27.8255 7.3582 27.906 7.34101C27.9865 7.32383 28.0555 7.29494 28.1244 7.26619L28.4521 8.19243C28.1935 8.29026 27.8773 8.34201 27.515 8.34201ZM31.3899 8.42827C30.5793 8.42827 29.9124 8.15218 29.3835 7.5941C28.8603 7.03603 28.5958 6.33419 28.5958 5.48846C28.5958 4.64847 28.8488 3.94663 29.3605 3.38856C29.8721 2.83049 30.5218 2.54857 31.3209 2.54857C32.1373 2.54857 32.7927 2.8133 33.2756 3.34256C33.7585 3.87181 34 4.61397 34 5.56903L33.9885 5.68404H29.6537C29.6709 6.22486 29.8492 6.66211 30.1941 6.99003C30.539 7.31794 30.953 7.48478 31.4359 7.48478C32.097 7.48478 32.6145 7.15686 32.9881 6.49528L33.9137 6.94402C33.6666 7.41002 33.3216 7.77244 32.8847 8.0371C32.442 8.29601 31.9418 8.42827 31.3899 8.42827ZM29.7342 4.82112H32.9019C32.8732 4.4357 32.7179 4.11922 32.4363 3.86613C32.1546 3.61304 31.7751 3.48639 31.3037 3.48639C30.9128 3.48639 30.5793 3.60722 30.2976 3.84881C30.0102 4.09622 29.8262 4.41838 29.7342 4.82112Z" fill="#737373"/>
</svg>
