<svg width="32" height="19" viewBox="0 0 32 19" fill="none" xmlns="http://www.w3.org/2000/svg">
<g clip-path="url(#clip0_519_224)">
<path fill-rule="evenodd" clip-rule="evenodd" d="M4.24483 0H27.6042C27.7518 0.000678594 27.8932 0.059071 27.9975 0.162476C28.1019 0.26588 28.1608 0.405932 28.1615 0.552167V10.197L27.2865 9.61132V2.29898H4.63025V15.8296H27.2865V14.3899L28.1615 14.7795V16.1186C28.1606 16.2321 28.1252 16.3427 28.0599 16.436H31.1224C31.3452 16.4481 31.5549 16.5443 31.7083 16.7048C31.8617 16.8653 31.9472 17.078 31.9472 17.2991C31.9472 17.5202 31.8617 17.7328 31.7083 17.8934C31.5549 18.0539 31.3452 18.1501 31.1224 18.1622H0.872435C0.754035 18.1686 0.635557 18.151 0.524239 18.1105C0.412921 18.0701 0.311099 18.0075 0.224993 17.9268C0.138888 17.846 0.0703052 17.7487 0.0234355 17.6407C-0.0234343 17.5328 -0.0476074 17.4166 -0.0476074 17.2991C-0.0476074 17.1816 -0.0234343 17.0653 0.0234355 16.9574C0.0703052 16.8495 0.138888 16.7522 0.224993 16.6714C0.311099 16.5906 0.412921 16.5281 0.524239 16.4876C0.635557 16.4471 0.754035 16.4296 0.872435 16.436H3.7891C3.72279 16.3432 3.68729 16.2323 3.68754 16.1186V0.552167C3.68754 0.479655 3.70195 0.407854 3.72996 0.340862C3.75797 0.27387 3.79902 0.212999 3.85077 0.161726C3.90252 0.110453 3.96395 0.0697802 4.03156 0.0420312C4.09918 0.0142822 4.17165 0 4.24483 0ZM7.48441 0.890176C7.55086 0.890176 7.61581 0.909697 7.67105 0.946271C7.7263 0.982845 7.76935 1.03483 7.79478 1.09565C7.82021 1.15647 7.82686 1.22339 7.8139 1.28796C7.80093 1.35253 7.76894 1.41183 7.72196 1.45838C7.67498 1.50493 7.61512 1.53663 7.54995 1.54948C7.48479 1.56232 7.41724 1.55573 7.35586 1.53054C7.29447 1.50534 7.24201 1.46268 7.20509 1.40794C7.16818 1.35321 7.14848 1.28886 7.14848 1.22302C7.14848 1.13475 7.18387 1.05009 7.24687 0.987665C7.30987 0.925243 7.39532 0.890176 7.48441 0.890176ZM6.30994 0.890176C6.37638 0.890176 6.44133 0.909697 6.49657 0.946271C6.55182 0.982845 6.59487 1.03483 6.6203 1.09565C6.64573 1.15647 6.65238 1.22339 6.63942 1.28796C6.62646 1.35253 6.59446 1.41183 6.54748 1.45838C6.5005 1.50493 6.44064 1.53663 6.37547 1.54948C6.31031 1.56232 6.24276 1.55573 6.18138 1.53054C6.11999 1.50534 6.06753 1.46268 6.03061 1.40794C5.9937 1.35321 5.974 1.28886 5.974 1.22302C5.974 1.13475 6.00939 1.05009 6.07239 0.987665C6.13539 0.925243 6.22084 0.890176 6.30994 0.890176ZM5.13546 0.890176C5.2019 0.890176 5.26685 0.909697 5.32209 0.946271C5.37734 0.982845 5.4204 1.03483 5.44582 1.09565C5.47125 1.15647 5.4779 1.22339 5.46494 1.28796C5.45198 1.35253 5.41998 1.41183 5.373 1.45838C5.32602 1.50493 5.26616 1.53663 5.20099 1.54948C5.13583 1.56232 5.06828 1.55573 5.0069 1.53054C4.94551 1.50534 4.89305 1.46268 4.85613 1.40794C4.81922 1.35321 4.79952 1.28886 4.79952 1.22302C4.79952 1.13475 4.83491 1.05009 4.89791 0.987665C4.96091 0.925243 5.04636 0.890176 5.13546 0.890176ZM15.0834 16.8875H16.9063C16.9473 16.8875 16.988 16.8955 17.0259 16.9111C17.0638 16.9267 17.0982 16.9495 17.1273 16.9782C17.1563 17.007 17.1793 17.0411 17.195 17.0787C17.2107 17.1162 17.2188 17.1565 17.2188 17.1972C17.2188 17.2378 17.2107 17.2781 17.195 17.3157C17.1793 17.3532 17.1563 17.3873 17.1273 17.4161C17.0982 17.4449 17.0638 17.4677 17.0259 17.4832C16.988 17.4988 16.9473 17.5068 16.9063 17.5068H15.0834C15.0423 17.5068 15.0017 17.4988 14.9638 17.4832C14.9259 17.4677 14.8914 17.4449 14.8624 17.4161C14.8334 17.3873 14.8104 17.3532 14.7947 17.3157C14.779 17.2781 14.7709 17.2378 14.7709 17.1972C14.7709 17.1565 14.779 17.1162 14.7947 17.0787C14.8104 17.0411 14.8334 17.007 14.8624 16.9782C14.8914 16.9495 14.9259 16.9267 14.9638 16.9111C15.0017 16.8955 15.0423 16.8875 15.0834 16.8875Z" fill="#333333"/>
<path fill-rule="evenodd" clip-rule="evenodd" d="M9.70056 11.6238C9.46098 11.6238 9.46098 10.7413 9.70056 10.7413H19.3151C19.7143 11.0127 20.1788 11.1747 20.6615 11.2109C21.0237 11.2473 21.3896 11.2149 21.7396 11.1155L22.2318 11.6315L9.70056 11.6238ZM6.60421 11.6238C6.36723 11.6238 6.36723 10.7413 6.60421 10.7413H8.85421C9.09119 10.7413 9.09119 11.6238 8.85421 11.6238H6.60421ZM6.52869 9.77892C6.2891 9.77892 6.2891 8.89648 6.52869 8.89648H8.77608C9.01306 8.89648 9.01306 9.77892 8.77608 9.77892H6.52869ZM9.70056 9.77892C9.46098 9.77892 9.46098 8.89648 9.70056 8.89648H18.0469L18.073 8.95325C18.2058 9.23707 18.3334 9.51574 18.487 9.77892H9.70056Z" fill="#CCCCCC"/>
<path fill-rule="evenodd" clip-rule="evenodd" d="M20.3542 3.35472H24.7813C24.8767 3.35232 24.9716 3.3687 25.0605 3.4029C25.1495 3.43709 25.2307 3.48844 25.2995 3.55395C25.3683 3.61946 25.4233 3.69785 25.4613 3.78456C25.4993 3.87127 25.5195 3.9646 25.5209 4.05912V6.85866C25.5202 7.04732 25.4442 7.22806 25.3096 7.36147C25.175 7.49487 24.9925 7.57012 24.8021 7.5708H23.3099C23.1886 7.33687 23.0352 7.12067 22.8542 6.92833C22.3068 6.36774 21.6033 5.98147 20.8334 5.81883C20.4381 5.73328 20.0348 5.69003 19.6302 5.68982V4.05912C19.633 3.87091 19.7106 3.69137 19.8461 3.55949C19.9816 3.4276 20.1642 3.35402 20.3542 3.35472Z" fill="#83B3D7"/>
<path fill-rule="evenodd" clip-rule="evenodd" d="M13.7187 3.35449H18.1458C18.3358 3.35585 18.5175 3.4314 18.6516 3.56473C18.7857 3.69806 18.8613 3.87842 18.8619 4.06663V5.73087C18.5 5.767 18.1666 5.8186 17.888 5.87021C17.5838 5.92905 17.3152 6.10414 17.1403 6.35762C16.9653 6.6111 16.8981 6.92262 16.9531 7.22482C16.975 7.34781 17.0172 7.46637 17.0781 7.57573H13.7187C13.5285 7.57505 13.3464 7.49972 13.2122 7.36624C13.0779 7.23276 13.0026 7.05202 13.0026 6.86359V4.05889C13.0046 3.87181 13.0809 3.69304 13.2149 3.56123C13.3489 3.42942 13.5299 3.35516 13.7187 3.35449Z" fill="#3A91BE"/>
<path fill-rule="evenodd" clip-rule="evenodd" d="M7.08329 3.35453H11.5104C11.7012 3.35247 11.8852 3.42544 12.0218 3.55747C12.1585 3.6895 12.2368 3.86983 12.2395 4.05893V6.85847C12.2382 7.04693 12.162 7.22728 12.0275 7.36054C11.893 7.4938 11.711 7.56926 11.5208 7.57061H7.09371C6.90354 7.56993 6.72139 7.4946 6.58716 7.36112C6.45293 7.22764 6.37756 7.0469 6.37756 6.85847V4.05893C6.37957 3.87362 6.4544 3.69638 6.58617 3.56485C6.71795 3.43333 6.89628 3.35788 7.08329 3.35453Z" fill="#E99688"/>
<path fill-rule="evenodd" clip-rule="evenodd" d="M18.1119 7.01051C19.3203 7.8078 19.1536 9.87972 20.7838 10.05C21.0151 10.0719 21.2485 10.0464 21.4694 9.97489C21.6903 9.90341 21.894 9.78757 22.0677 9.6346C22.268 9.45392 22.3925 9.20528 22.4166 8.93794C22.5208 7.86715 21.5312 7.16791 20.5937 6.95633C19.7751 6.81479 18.9364 6.8332 18.125 7.01051H18.1119ZM23.0599 9.12887C22.9984 9.53717 22.7812 9.90656 22.4531 10.161L23.6979 11.4511C24.2715 10.8691 24.6871 10.1528 24.9062 9.36883C24.2834 9.35657 23.664 9.27433 23.0599 9.12371V9.12887ZM25.2187 9.62686C24.9856 10.3852 24.5873 11.0837 24.052 11.673L29.8255 14.2403C29.9459 14.3022 30.0736 14.349 30.2057 14.3796C30.308 14.3997 30.4138 14.3937 30.5131 14.3621C30.6124 14.3305 30.702 14.2743 30.7734 14.199C30.8447 14.1236 30.8956 14.0315 30.9211 13.9313C30.9466 13.8311 30.946 13.7261 30.9192 13.6262C30.8617 13.4688 30.7501 13.3364 30.6041 13.2521L25.2187 9.63976V9.62686Z" fill="#333333"/>
</g>
<defs>
<clipPath id="clip0_519_224">
<rect width="32" height="18.1622" fill="white"/>
</clipPath>
</defs>
</svg>
