<svg width="34" height="33" viewBox="0 0 34 33" fill="none" xmlns="http://www.w3.org/2000/svg">
<g clip-path="url(#clip0_337_292)">
<path d="M28.3555 0H5.64453C2.52714 0 0 2.51168 0 5.61V27.3372C0 30.4355 2.52714 32.9472 5.64453 32.9472H28.3555C31.4729 32.9472 34 30.4355 34 27.3372V5.61C34 2.51168 31.4729 0 28.3555 0Z" fill="#49021F"/>
<path d="M12.3475 8.61921V23.0592C12.3475 23.2105 12.2791 23.286 12.1421 23.286H9.3823C9.26051 23.286 9.19969 23.2104 9.19995 23.0592V8.61921C9.19995 8.49843 9.26835 8.43797 9.40515 8.43784H12.165C12.1882 8.43457 12.2118 8.43637 12.2343 8.44311C12.2567 8.44984 12.2774 8.46136 12.2949 8.47685C12.3124 8.49234 12.3263 8.51143 12.3357 8.5328C12.345 8.55417 12.3495 8.57731 12.3489 8.60059L12.3475 8.61921ZM20.6597 23.5112L20.5128 23.5126C19.463 23.5285 18.4228 23.3117 17.4679 22.878C16.5783 22.4688 15.8347 21.8008 15.3354 20.9624C14.8308 20.1296 14.5725 19.0916 14.5603 17.8485L14.5599 17.7548C14.5513 16.7144 14.8189 15.6901 15.3355 14.7852C15.8533 13.8882 16.6086 13.1494 17.5193 12.649L17.5934 12.6089C18.5816 12.0649 19.7753 11.7929 21.1743 11.7929L21.2038 11.793L21.2693 11.7945L21.3434 11.7974L21.4261 11.8016L21.5174 11.8073L21.6171 11.8145L21.8425 11.8329L21.9041 11.8382V7.3726C21.9041 7.267 21.9498 7.2138 22.0409 7.2138H24.9149C24.9334 7.21115 24.9524 7.21284 24.9702 7.21874C24.988 7.22463 25.0042 7.23457 25.0175 7.24777C25.0308 7.26096 25.0408 7.27705 25.0467 7.29475C25.0526 7.31246 25.0543 7.33129 25.0517 7.34976V20.7471C25.0526 21.027 25.064 21.3068 25.0859 21.5858L25.1074 21.8781L25.1264 22.1501L25.1429 22.4019C25.1457 22.4489 25.1342 22.4958 25.1098 22.5363C25.0854 22.5767 25.0492 22.6089 25.0061 22.6286C24.2647 22.9359 23.4925 23.1638 22.7025 23.3086C22.0284 23.4322 21.3452 23.5 20.6598 23.5112H20.6597ZM21.9041 20.7017V14.5131C21.7809 14.48 21.655 14.4572 21.5279 14.4452C21.3725 14.4296 21.2164 14.422 21.0602 14.4225C20.5067 14.417 19.9598 14.5413 19.4637 14.7852C18.9805 15.0239 18.5679 15.3832 18.2663 15.828C17.9544 16.2813 17.7985 16.8783 17.7986 17.6188C17.7875 18.1129 17.8687 18.6048 18.0381 19.0695C18.1759 19.444 18.3938 19.7843 18.6768 20.067C18.9477 20.3271 19.2756 20.5211 19.6348 20.6337C20.0141 20.7558 20.4106 20.8171 20.8094 20.8152C21.0221 20.8152 21.2197 20.8076 21.4024 20.7924C21.548 20.7815 21.6924 20.7576 21.8337 20.7211L21.9041 20.7017Z" fill="#FF3366"/>
</g>
<defs>
<clipPath id="clip0_337_292">
<rect width="34" height="33" fill="white"/>
</clipPath>
</defs>
</svg>
