<svg width="34" height="34" viewBox="0 0 34 34" fill="none" xmlns="http://www.w3.org/2000/svg">
<g clip-path="url(#clip0_769_191)">
<path d="M32.4936 0H16.1642C16.1642 1.95501 16.9408 3.82994 18.3232 5.21234C19.7056 6.59474 21.5805 7.37136 23.5355 7.37136H26.5436V10.2757C26.5463 14.3431 29.8428 17.6398 33.9102 17.6424V1.41658C33.9102 0.634445 33.2761 0 32.4936 0Z" fill="#2684FF"/>
<path d="M24.4139 8.13647H8.08459C8.08712 12.2039 11.3837 15.5005 15.4512 15.5032H18.4592V18.4168C18.4644 22.4842 21.7632 25.7786 25.8306 25.7786V9.55332C25.8306 8.77092 25.1963 8.13647 24.4139 8.13647Z" fill="url(#paint0_linear_769_191)"/>
<path d="M16.3294 16.2681H0C0 20.3392 3.30039 23.6394 7.37136 23.6394H10.3889V26.5436C10.3915 30.6073 13.6823 33.9025 17.7461 33.9102V17.6848C17.7461 16.9024 17.1118 16.2681 16.3294 16.2681Z" fill="url(#paint1_linear_769_191)"/>
</g>
<defs>
<linearGradient id="paint0_linear_769_191" x1="1747.74" y1="10.9769" x2="1057.34" y2="731.386" gradientUnits="userSpaceOnUse">
<stop offset="0.18" stop-color="#0052CC"/>
<stop offset="1" stop-color="#2684FF"/>
</linearGradient>
<linearGradient id="paint1_linear_769_191" x1="1786.42" y1="24.2952" x2="987.788" y2="810.041" gradientUnits="userSpaceOnUse">
<stop offset="0.18" stop-color="#0052CC"/>
<stop offset="1" stop-color="#2684FF"/>
</linearGradient>
<clipPath id="clip0_769_191">
<rect width="34" height="34" fill="white"/>
</clipPath>
</defs>
</svg>
