<svg width="32" height="32" viewBox="0 0 32 32" fill="none" xmlns="http://www.w3.org/2000/svg">
<g clip-path="url(#clip0_519_210)">
<mask id="mask0_519_210" style="mask-type:luminance" maskUnits="userSpaceOnUse" x="0" y="0" width="32" height="32">
<path d="M0 0H32V32H0V0Z" fill="white"/>
</mask>
<g mask="url(#mask0_519_210)">
<path d="M17.7347 7.468C16.8974 5.43067 17.0147 3.13867 18.224 1.29467L19.128 0C17.456 3.13333 19.048 6.98133 21.608 8.99867C22.2931 9.53481 23.0567 9.96206 23.872 10.2653C24.0907 10.3453 24.3387 10.4307 24.5654 10.488C27.4267 11.208 29.7587 10.7107 31.1467 8.636C31.104 8.7 31.0494 8.80133 30.98 8.92933C30.3614 10.076 28.5507 13.432 23.3 12.3787C23.2 12.3587 23.104 12.3253 23.008 12.2947L22.9227 12.2653L22.8614 12.2453C22.8331 12.2355 22.8046 12.2262 22.776 12.2173C22.6983 12.1906 22.6209 12.1626 22.544 12.1333C20.4307 11.328 18.6187 9.632 17.7347 7.468Z" fill="url(#paint0_linear_519_210)"/>
<path d="M10.8266 3.95431C8.77729 7.01431 8.88929 11.1116 10.488 14.349C10.7835 14.9514 11.1231 15.5312 11.504 16.0836C11.7826 16.501 12.0893 16.9636 12.448 17.2863C12.596 17.4556 12.7506 17.6196 12.908 17.781L12.9986 17.8743L13.0293 17.905C13.1885 18.0659 13.3516 18.2228 13.5186 18.3756L13.52 18.377L13.5226 18.3796C13.7242 18.562 13.9309 18.7385 14.1426 18.909L14.196 18.9516C14.3826 19.101 14.5733 19.2476 14.7693 19.3876L14.7773 19.393L14.7866 19.3996C14.8493 19.445 14.9133 19.489 14.9773 19.5316L15.048 19.5796C15.0898 19.6073 15.1311 19.6358 15.172 19.665C15.312 19.7583 15.4533 19.8476 15.5973 19.9356L15.6373 19.9583L15.6573 19.9716C15.8117 20.0637 15.9677 20.1531 16.1253 20.2396L16.1666 20.261L16.22 20.2903C16.2893 20.3276 16.3586 20.3663 16.4306 20.4023L16.4706 20.4223C16.6769 20.5273 16.8858 20.6269 17.0973 20.721L17.14 20.7383C17.3384 20.8257 17.5389 20.9084 17.7413 20.9863L17.7813 21.001C17.9186 21.0543 18.056 21.1023 18.1946 21.1503L18.264 21.1743L18.3813 21.213C18.4333 21.229 18.4853 21.2476 18.536 21.265C18.6813 21.3156 18.8266 21.365 18.9786 21.3916C29.5573 23.2103 32 14.757 32 14.757C29.7986 18.0476 25.5346 19.6183 20.9853 18.3916C20.7838 18.3366 20.5838 18.2766 20.3853 18.2116C20.3316 18.1951 20.2782 18.1773 20.2253 18.1583L20.2053 18.1516C20.0648 18.1045 19.9252 18.0547 19.7866 18.0023L19.7826 17.9996C19.5525 17.9126 19.3249 17.8192 19.1 17.7196L19.0253 17.6863C18.7631 17.5678 18.5052 17.4402 18.252 17.3036L18.196 17.2743L18.036 17.189C17.8899 17.1074 17.7454 17.0229 17.6026 16.9356C17.3206 16.7634 17.0449 16.5811 16.776 16.389C16.5818 16.2488 16.391 16.1039 16.204 15.9543L16.1573 15.9156C16.13 15.8936 16.1029 15.8714 16.076 15.849C14.084 14.217 12.5053 11.9863 11.756 9.45831C10.9693 6.83431 11.1386 3.89031 12.5013 1.50098L10.8266 3.95431Z" fill="url(#paint1_linear_519_210)"/>
<path d="M2.03201 7.51552C-0.799987 11.7422 -0.447987 17.2422 1.71601 21.7328C1.75601 21.8195 1.80001 21.9048 1.84268 21.9888L1.87468 22.0528L1.91468 22.1315C1.94822 22.2014 1.98379 22.2703 2.02135 22.3382L2.03868 22.3715L2.13201 22.5448L2.15201 22.5808C2.21868 22.7035 2.28801 22.8262 2.35868 22.9488L2.38135 22.9888C2.4882 23.1752 2.59979 23.3588 2.71601 23.5395L2.74001 23.5795L2.81868 23.7035C2.93068 23.8768 3.04535 24.0515 3.16535 24.2235V24.2248C3.16819 24.2291 3.1713 24.2331 3.17468 24.2368L3.20668 24.2808L3.23335 24.3182C3.33735 24.4648 3.44268 24.6115 3.55068 24.7555L3.67068 24.9128C3.93203 25.2515 4.20235 25.5832 4.48135 25.9075L4.48935 25.9168L4.49601 25.9235L4.50535 25.9342C4.78822 26.2529 5.0808 26.5628 5.38268 26.8635L5.42268 26.9035L5.51735 26.9968C5.66845 27.1445 5.82225 27.2895 5.97868 27.4315L6.02268 27.4715L6.05735 27.5008C6.22422 27.6498 6.39312 27.7965 6.56401 27.9408L6.63868 28.0035C6.75201 28.0968 6.86668 28.1902 6.98268 28.2808L7.16535 28.4262C7.29335 28.5235 7.42135 28.6195 7.55068 28.7128L7.57201 28.7288L7.69201 28.8168L7.72935 28.8435C7.84668 28.9288 7.96535 29.0088 8.08535 29.0888L8.10401 29.1022C8.15782 29.1384 8.21116 29.1753 8.26401 29.2128C8.4866 29.3589 8.71197 29.5008 8.94001 29.6382L9.01201 29.6808C9.2139 29.8001 9.41793 29.9157 9.62401 30.0275L9.69468 30.0662L9.77335 30.1088C9.85201 30.1515 9.92935 30.1942 10.0093 30.2355L10.0427 30.2515L10.0827 30.2715L10.128 30.2942C10.1547 30.3075 10.1827 30.3208 10.2107 30.3368C10.376 30.4182 10.5413 30.4982 10.7093 30.5768L10.772 30.6048L10.8147 30.6248C11.2313 30.8146 11.6552 30.9881 12.0853 31.1448L12.0987 31.1488L12.1547 31.1702C12.4586 31.2795 12.7654 31.3809 13.0747 31.4742C13.2293 31.5262 13.3853 31.5768 13.5453 31.6075C27.248 34.2022 31.228 23.0608 31.228 23.0608C27.8853 27.5808 21.952 28.7742 16.3293 27.4462C16.1178 27.3949 15.9087 27.3339 15.7027 27.2635L15.5453 27.2142C15.3427 27.1502 15.1413 27.0808 14.9413 27.0102L14.8587 26.9795C14.6787 26.9128 14.5027 26.8462 14.3253 26.7742L14.176 26.7128C13.9829 26.6337 13.7914 26.551 13.6013 26.4648L13.54 26.4382C13.3593 26.3543 13.1798 26.2681 13.0013 26.1795L12.9467 26.1502C12.9181 26.1366 12.8897 26.1228 12.8613 26.1088L12.576 25.9582L12.4853 25.9102C12.4557 25.894 12.4259 25.878 12.396 25.8622L12.236 25.7742C12.084 25.6902 11.9347 25.6008 11.7853 25.5115L11.728 25.4782L11.6347 25.4248C11.4026 25.2816 11.1732 25.1341 10.9467 24.9822L10.8893 24.9422C10.3203 24.5628 9.77485 24.1491 9.25601 23.7035C9.09749 23.5695 8.94103 23.433 8.78668 23.2942L8.76535 23.2742C8.56266 23.0877 8.36352 22.8975 8.16801 22.7035C8.0551 22.592 7.94397 22.4786 7.83468 22.3635L7.78935 22.3182C7.61666 22.1377 7.44773 21.9537 7.28268 21.7662L7.27468 21.7582L7.27201 21.7542C7.13068 21.5942 6.99201 21.4288 6.85601 21.2635L6.74668 21.1288C6.6071 20.9557 6.47064 20.7802 6.33735 20.6022C6.22001 20.4422 6.10401 20.2848 5.99068 20.1235C2.87068 15.7048 1.74935 9.60885 4.24401 4.60352L2.03201 7.51552Z" fill="url(#paint2_linear_519_210)"/>
</g>
</g>
<defs>
<linearGradient id="paint0_linear_519_210" x1="24.1708" y1="0" x2="24.1708" y2="12.5805" gradientUnits="userSpaceOnUse">
<stop stop-color="white"/>
<stop offset="1" stop-color="#D0D0D0"/>
</linearGradient>
<linearGradient id="paint1_linear_519_210" x1="20.644" y1="1.50098" x2="20.644" y2="21.648" gradientUnits="userSpaceOnUse">
<stop stop-color="white"/>
<stop offset="1" stop-color="#D0D0D0"/>
</linearGradient>
<linearGradient id="paint2_linear_519_210" x1="15.6143" y1="4.60352" x2="15.6143" y2="31.9993" gradientUnits="userSpaceOnUse">
<stop stop-color="white"/>
<stop offset="1" stop-color="#D0D0D0"/>
</linearGradient>
<clipPath id="clip0_519_210">
<rect width="32" height="32" fill="white"/>
</clipPath>
</defs>
</svg>
