<svg width="34" height="30" viewBox="0 0 34 30" fill="none" xmlns="http://www.w3.org/2000/svg">
<path d="M28.6571 19.8991C28.8007 19.8173 28.9202 19.6995 29.0034 19.5575C29.0866 19.4155 29.1307 19.2542 29.1312 19.09L29.1482 13.6706C29.1487 13.5064 29.1928 13.3451 29.276 13.2031C29.3593 13.0611 29.4787 12.9432 29.6224 12.8614L32.5851 11.174C32.7287 11.0922 32.8915 11.0493 33.0571 11.0495C33.2227 11.0498 33.3853 11.0932 33.5286 11.1755C33.6719 11.2577 33.7909 11.3759 33.8737 11.5181C33.9564 11.6603 34 11.8216 34 11.9858V21.8385C34 22.0032 33.9562 22.165 33.8729 22.3076C33.7897 22.4502 33.6699 22.5684 33.5259 22.6505L22.3444 29.0185C22.2015 29.0998 22.0397 29.1427 21.875 29.1429C21.7103 29.143 21.5484 29.1005 21.4054 29.0194L12.6305 24.0429C12.4859 23.9611 12.3657 23.8428 12.2821 23.7001C12.1985 23.5573 12.1544 23.3952 12.1543 23.2301V18.2621C12.1543 18.2565 12.161 18.2529 12.1667 18.2555C12.1713 18.2584 12.178 18.2555 12.178 18.2489V18.2434C12.178 18.2397 12.1798 18.2359 12.1837 18.234L19.4108 14.1173C19.4175 14.1135 19.4145 14.1032 19.407 14.1032C19.405 14.1032 19.403 14.1025 19.4016 14.101C19.4002 14.0996 19.3994 14.0977 19.3994 14.0957L19.4136 9.22513C19.4143 9.06042 19.3711 8.89845 19.2885 8.75556C19.2059 8.61266 19.0867 8.49391 18.943 8.41127C18.7993 8.32863 18.6362 8.28503 18.4701 8.28487C18.304 8.28472 18.1407 8.32801 17.9969 8.41037L12.6257 11.4794C12.4823 11.5612 12.3198 11.6043 12.1544 11.6043C11.989 11.6043 11.8265 11.5612 11.6831 11.4794L6.29491 8.40313C6.15137 8.32116 5.9886 8.27806 5.82295 8.27817C5.6573 8.27827 5.49459 8.32158 5.35115 8.40374C5.20771 8.4859 5.08859 8.60402 5.00574 8.74625C4.92289 8.88848 4.87923 9.04982 4.87913 9.21407V18.0169C4.87926 18.1809 4.8359 18.3422 4.75341 18.4844C4.67092 18.6266 4.55219 18.7449 4.40911 18.8273C4.26603 18.9097 4.10363 18.9534 3.93815 18.954C3.77268 18.9546 3.60996 18.9121 3.46627 18.8307L0.476001 17.1354C0.331203 17.0533 0.210886 16.9348 0.127279 16.7917C0.0436731 16.6487 -0.000241065 16.4862 9.95308e-07 16.3209L0.0265635 0.934447C0.0269871 0.770472 0.0708283 0.609482 0.153701 0.467581C0.236575 0.32568 0.355574 0.207844 0.498796 0.125859C0.642018 0.0438752 0.80444 0.00061759 0.969816 0.000413758C1.13519 0.000209925 1.29772 0.0430671 1.44115 0.124698L11.684 5.95769C11.8272 6.03919 11.9893 6.08208 12.1544 6.08208C12.3195 6.08208 12.4816 6.03919 12.6248 5.95769L22.8646 0.124435C23.0083 0.0426112 23.1711 -0.000302447 23.3368 1.60452e-06C23.5024 0.000305656 23.6651 0.0438167 23.8085 0.126167C23.9518 0.208517 24.0708 0.326809 24.1535 0.469167C24.2361 0.611526 24.2796 0.772942 24.2795 0.937213V16.3272C24.2795 16.4918 24.2359 16.6536 24.1528 16.7961C24.0697 16.9387 23.9503 17.057 23.8064 17.1392L18.4437 20.2015C18.2996 20.2838 18.18 20.4023 18.097 20.5452C18.014 20.688 17.9705 20.85 17.9708 21.0149C17.9712 21.1798 18.0155 21.3416 18.0992 21.4841C18.1828 21.6265 18.303 21.7445 18.4474 21.8262L21.4055 23.496C21.5485 23.5767 21.7102 23.6189 21.8747 23.6186C22.0392 23.6183 22.2007 23.5753 22.3433 23.494L28.6572 19.899L28.6571 19.8991ZM29.2776 6.09359C29.2777 6.25921 29.3221 6.42184 29.4063 6.56488C29.4905 6.70793 29.6115 6.82628 29.7568 6.90786C29.9022 6.98944 30.0668 7.03133 30.2338 7.02927C30.4008 7.0272 30.5643 6.98125 30.7076 6.89609L33.541 5.21049C33.6809 5.12739 33.7967 5.0098 33.8771 4.86917C33.9575 4.72854 33.9999 4.56965 34 4.40798V0.9729C33.9997 0.807356 33.9552 0.644845 33.8709 0.501927C33.7867 0.359009 33.6657 0.240792 33.5204 0.159322C33.375 0.077851 33.2105 0.036039 33.0436 0.0381459C32.8766 0.0402528 32.7132 0.0862034 32.57 0.171316L29.7367 1.85692C29.5968 1.94002 29.481 2.05762 29.4005 2.19827C29.3201 2.33893 29.2777 2.49785 29.2776 2.65956V6.09451V6.09359Z" fill="#007FFF"/>
</svg>
