<svg width="34" height="36" viewBox="0 0 34 36" fill="none" xmlns="http://www.w3.org/2000/svg">
<g opacity="0.2">
<path d="M9.94762 27.2866C8.90921 27.2866 8.10156 28.152 8.10156 29.1327C8.10156 29.7673 8.4477 30.4019 9.02459 30.748L15.6012 34.4401C16.1204 34.7286 16.755 34.9016 17.3896 34.9016C17.7357 34.9016 18.0818 34.8439 18.3703 34.7862L28.2352 31.9595C29.7351 31.4979 30.7735 30.1134 30.7735 28.5558V27.2866H9.94762Z" fill="white"/>
</g>
<g opacity="0.12">
<path d="M9.94762 27.2866C8.90921 27.2866 8.10156 28.152 8.10156 29.1327C8.10156 29.7673 8.4477 30.4019 9.02459 30.748L15.6012 34.4401C16.1204 34.7286 16.755 34.9016 17.3896 34.9016C17.7357 34.9016 18.0818 34.8439 18.3703 34.7862L28.2352 31.9595C29.7351 31.4979 30.7735 30.1134 30.7735 28.5558V27.2866H9.94762Z" fill="white"/>
</g>
<path d="M18.3125 0.172852L20.9662 6.23024V27.2869L18.3702 34.7865L28.2351 31.9597C29.735 31.4982 30.7734 30.1137 30.7734 28.5561V6.34562C30.7734 4.78801 29.735 3.40346 28.2351 2.94195L18.3125 0.172852Z" fill="url(#paint0_linear_780_213)"/>
<path d="M5.79392 27.0563L8.6784 25.4987C9.48605 25.0371 10.0053 24.2295 10.0053 23.3065V11.9416C10.0053 10.9032 10.6975 9.92251 11.6782 9.57638L20.9662 6.23039V3.69205C20.9662 2.07675 19.8701 0.634512 18.3125 0.172996C17.9664 0.0576172 17.6779 0.0576172 17.3318 0.0576172C16.6972 0.0576172 16.0626 0.230685 15.5434 0.519133L4.87089 6.57652C3.77479 7.21111 3.08252 8.3649 3.08252 9.63407V25.441C3.08252 26.4794 3.89017 27.287 4.92858 27.287C5.21703 27.287 5.56317 27.2293 5.79392 27.0563Z" fill="url(#paint1_linear_780_213)"/>
<path d="M20.9663 27.2871H9.94762C8.90921 27.2871 8.10156 28.1525 8.10156 29.1332C8.10156 29.7678 8.4477 30.4023 9.02459 30.7485L15.6012 34.4406C16.1204 34.729 16.755 34.9021 17.3896 34.9021C17.7357 34.9021 18.0818 34.8444 18.3703 34.7867C19.9279 34.3252 20.9663 32.9407 20.9663 31.3254V27.2871Z" fill="url(#paint2_linear_780_213)"/>
<path d="M5.79392 27.0563L8.6784 25.4987C9.48605 25.0371 10.0053 24.2295 10.0053 23.3065V11.9416C10.0053 10.9032 10.6975 9.92251 11.6782 9.57638L20.9662 6.23039V3.69205C20.9662 2.07675 19.8701 0.634512 18.3125 0.172996C17.9664 0.0576172 17.6779 0.0576172 17.3318 0.0576172C16.6972 0.0576172 16.0626 0.230685 15.5434 0.519133L4.87089 6.57652C3.77479 7.21111 3.08252 8.3649 3.08252 9.63407V25.441C3.08252 26.4794 3.89017 27.287 4.92858 27.287C5.21703 27.287 5.56317 27.2293 5.79392 27.0563Z" fill="url(#paint3_linear_780_213)"/>
<path d="M20.9663 27.2871H9.94762C8.90921 27.2871 8.10156 28.1525 8.10156 29.1332C8.10156 29.7678 8.4477 30.4023 9.02459 30.7485L15.6012 34.4406C16.1204 34.729 16.755 34.9021 17.3896 34.9021C17.7357 34.9021 18.0818 34.8444 18.3703 34.7867C19.9279 34.3252 20.9663 32.9407 20.9663 31.3254V27.2871Z" fill="url(#paint4_linear_780_213)"/>
<defs>
<linearGradient id="paint0_linear_780_213" x1="24.5429" y1="-1.79635" x2="24.5429" y2="138.859" gradientUnits="userSpaceOnUse">
<stop stop-color="#FFB900"/>
<stop offset="0.17" stop-color="#EF8400"/>
<stop offset="0.31" stop-color="#E25C01"/>
<stop offset="0.43" stop-color="#DB4401"/>
<stop offset="0.5" stop-color="#D83B01"/>
<stop offset="1" stop-color="#D83B01"/>
</linearGradient>
<linearGradient id="paint1_linear_780_213" x1="18.3926" y1="-0.595323" x2="-56.0917" y2="105.763" gradientUnits="userSpaceOnUse">
<stop stop-color="#800600"/>
<stop offset="0.6" stop-color="#C72127"/>
<stop offset="0.73" stop-color="#C13959"/>
<stop offset="0.85" stop-color="#BC4B81"/>
<stop offset="0.94" stop-color="#B95799"/>
<stop offset="1" stop-color="#B85BA2"/>
</linearGradient>
<linearGradient id="paint2_linear_780_213" x1="9.14076" y1="31.1099" x2="106.379" y2="31.1099" gradientUnits="userSpaceOnUse">
<stop stop-color="#F32B44"/>
<stop offset="0.6" stop-color="#A4070A"/>
<stop offset="1" stop-color="#A4070A"/>
</linearGradient>
<linearGradient id="paint3_linear_780_213" x1="18.7513" y1="-1.11792" x2="2.98035" y2="21.3984" gradientUnits="userSpaceOnUse">
<stop stop-opacity="0.4"/>
<stop offset="1" stop-opacity="0"/>
</linearGradient>
<linearGradient id="paint4_linear_780_213" x1="25.1865" y1="31.6413" x2="-18.3497" y2="27.8411" gradientUnits="userSpaceOnUse">
<stop stop-opacity="0.4"/>
<stop offset="1" stop-opacity="0"/>
</linearGradient>
</defs>
</svg>
