<svg width="35" height="39" viewBox="0 0 35 39" fill="none" xmlns="http://www.w3.org/2000/svg">
<path d="M17.585 38.3402C17.0677 38.3404 16.5596 38.2044 16.1116 37.9458L11.4231 35.1702C10.7233 34.7786 11.0643 34.6403 11.2957 34.5595C12.0399 34.3296 12.7524 34.0076 13.4168 33.601C13.4724 33.5753 13.5336 33.5642 13.5947 33.5687C13.6558 33.5733 13.7148 33.5933 13.766 33.627L17.3686 35.7672C17.4357 35.8027 17.5104 35.8213 17.5863 35.8213C17.6622 35.8213 17.737 35.8027 17.8041 35.7672L31.8532 27.6582C31.9189 27.6188 31.9733 27.563 32.011 27.4963C32.0487 27.4295 32.0684 27.3541 32.0682 27.2775V11.0567C32.0682 10.9788 32.0482 10.9022 32.0101 10.8344C31.9719 10.7665 31.917 10.7096 31.8504 10.6691L17.8013 2.56693C17.7351 2.52961 17.6603 2.51001 17.5843 2.51001C17.5082 2.51001 17.4335 2.52961 17.3672 2.56693L3.32633 10.6719C3.25936 10.7115 3.20374 10.7677 3.16488 10.8351C3.12602 10.9025 3.10522 10.9788 3.1045 11.0567V27.2707C3.10469 27.3471 3.12521 27.4222 3.16395 27.4881C3.20269 27.554 3.25826 27.6085 3.32496 27.6459L7.1782 29.8696C9.2664 30.913 10.5453 29.6834 10.5453 28.4483V12.4397C10.5453 12.3307 10.5886 12.2262 10.6657 12.1492C10.7427 12.0721 10.8472 12.0289 10.9561 12.0289H12.7362C12.8452 12.0289 12.9497 12.0721 13.0267 12.1492C13.1037 12.2262 13.147 12.3307 13.147 12.4397V28.4496C13.147 31.2362 11.6298 32.8314 8.98706 32.8314C7.84694 32.8513 6.7247 32.5464 5.75138 31.9523L2.05835 29.834C1.61002 29.5729 1.23802 29.1988 0.97948 28.749C0.720941 28.2992 0.584911 27.7895 0.584971 27.2707V11.0567C0.583638 10.537 0.719092 10.0262 0.977722 9.57555C1.23635 9.12487 1.60904 8.7502 2.05835 8.48919L16.1088 0.377397C16.5614 0.129781 17.0691 0 17.585 0C18.1009 0 18.6085 0.129781 19.0611 0.377397L33.1102 8.48919C33.5585 8.74976 33.9306 9.12335 34.1894 9.57266C34.4481 10.022 34.5845 10.5313 34.585 11.0498V27.2707C34.5842 27.7895 34.4477 28.299 34.1889 28.7487C33.9302 29.1984 33.5583 29.5726 33.1102 29.834L19.0611 37.9458C18.6123 38.2048 18.1031 38.3408 17.585 38.3402Z" fill="#83CD29"/>
<path d="M14.9204 21.8444C14.9204 21.7355 14.9637 21.631 15.0407 21.5539C15.1178 21.4769 15.2223 21.4336 15.3312 21.4336H17.1483C17.2454 21.4339 17.3392 21.4686 17.4132 21.5316C17.4871 21.5945 17.5364 21.6815 17.5522 21.7773C17.8261 23.6273 18.6477 24.5598 22.3626 24.5598C25.3217 24.5598 26.5828 23.8902 26.5828 22.3196C26.5828 21.4145 26.2254 20.7421 21.6259 20.2916C17.7809 19.911 15.4038 19.0592 15.4038 15.9865C15.4038 13.152 17.7932 11.4609 21.7985 11.4609C26.2994 11.4609 28.5273 13.0233 28.8093 16.3754C28.8136 16.4314 28.8064 16.4876 28.7882 16.5407C28.7699 16.5938 28.7409 16.6425 28.7031 16.684C28.6652 16.7254 28.6193 16.7586 28.5681 16.7816C28.5169 16.8046 28.4615 16.8169 28.4054 16.8177H26.576C26.4842 16.8164 26.3955 16.7844 26.324 16.7268C26.2526 16.6693 26.2024 16.5894 26.1816 16.5C25.7448 14.5542 24.6754 13.9325 21.7998 13.9325C18.5683 13.9325 18.1931 15.0581 18.1931 15.9016C18.1931 16.9231 18.6367 17.2216 22.9993 17.7981C27.3168 18.3691 29.368 19.177 29.368 22.2114C29.368 25.2732 26.8156 27.0259 22.364 27.0259C16.2089 27.0341 14.9204 24.212 14.9204 21.8444Z" fill="#83CD29"/>
</svg>
