<svg width="34" height="35" viewBox="0 0 34 35" fill="none" xmlns="http://www.w3.org/2000/svg">
<path d="M26.0312 0H7.96875C3.56773 0 0 3.57947 0 7.99496V26.1169C0 30.5324 3.56773 34.1118 7.96875 34.1118H26.0312C30.4323 34.1118 34 30.5324 34 26.1169V7.99496C34 3.57947 30.4323 0 26.0312 0Z" fill="#001E36"/>
<path d="M7.65002 23.7237V9.09827C7.65002 8.99873 7.69252 8.94197 7.79174 8.94197C8.03252 8.94197 8.25924 8.94197 8.58502 8.92771C8.92502 8.91345 9.27924 8.91345 9.66174 8.89933C10.0442 8.88507 10.455 8.88507 10.8942 8.87081C11.3333 8.85669 11.7583 8.85669 12.1833 8.85669C13.345 8.85669 14.3083 8.99873 15.1017 9.29721C15.8129 9.53953 16.4613 9.93767 17 10.4627C17.4565 10.9223 17.8092 11.4748 18.0342 12.0831C18.2467 12.68 18.36 13.2912 18.36 13.9308C18.36 15.1531 18.0767 16.1622 17.51 16.9583C16.9433 17.7542 16.15 18.3511 15.2292 18.6922C14.2658 19.0476 13.2033 19.1755 12.0417 19.1755C11.7017 19.1755 11.475 19.1755 11.3333 19.1613C11.1917 19.147 10.9933 19.147 10.7242 19.147V23.7095C10.7383 23.809 10.6675 23.8943 10.5683 23.9085H7.82002C7.70674 23.9085 7.65002 23.8516 7.65002 23.7237ZM10.7383 11.685V16.4607C10.9367 16.475 11.1208 16.4892 11.2908 16.4892H12.0417C12.5942 16.4892 13.1467 16.4039 13.6708 16.2334C14.1242 16.1055 14.5208 15.8354 14.8325 15.48C15.13 15.1247 15.2717 14.6414 15.2717 14.0161C15.285 13.5719 15.172 13.1331 14.9458 12.751C14.705 12.3815 14.365 12.0973 13.9542 11.9409C13.43 11.7277 12.8633 11.6424 12.2825 11.6567C11.9142 11.6567 11.5883 11.6567 11.3192 11.6709C11.0358 11.6567 10.8375 11.6709 10.7383 11.685ZM27.2 15.5938C26.775 15.3663 26.3217 15.21 25.84 15.1105C25.3158 14.9968 24.7917 14.9257 24.2533 14.9257C23.97 14.9115 23.6725 14.9542 23.4033 15.0252C23.2192 15.0678 23.0633 15.1674 22.9642 15.3094C22.8933 15.4232 22.8508 15.5653 22.8508 15.6932C22.8508 15.8211 22.9075 15.949 22.9925 16.0628C23.12 16.2191 23.29 16.347 23.4742 16.4466C23.8027 16.6172 24.1382 16.7737 24.48 16.9156C25.245 17.1715 25.9817 17.5267 26.6617 17.9531C27.1292 18.2516 27.5117 18.6496 27.7808 19.1329C28.0075 19.5877 28.1208 20.0851 28.1067 20.5968C28.1208 21.2649 27.9225 21.9329 27.5542 22.4872C27.1591 23.0545 26.6077 23.4941 25.9675 23.7521C25.2733 24.0506 24.4233 24.207 23.4033 24.207C22.7517 24.207 22.1142 24.1501 21.4767 24.0222C20.9771 23.9356 20.4912 23.7827 20.0317 23.5674C19.9325 23.5105 19.8617 23.411 19.8758 23.2973V20.8242C19.8758 20.7816 19.89 20.7247 19.9325 20.6963C19.975 20.6679 20.0175 20.682 20.06 20.7106C20.6125 21.0374 21.1933 21.2649 21.8167 21.4069C22.355 21.5491 22.9217 21.6201 23.4883 21.6201C24.0267 21.6201 24.4092 21.5491 24.6642 21.4212C24.8908 21.3216 25.0467 21.0801 25.0467 20.8242C25.0467 20.6253 24.9333 20.4405 24.7067 20.2556C24.48 20.071 24.0125 19.8578 23.3183 19.5877C22.6062 19.3359 21.93 18.9919 21.3067 18.5643C20.8628 18.2469 20.495 17.8341 20.23 17.3561C20.0033 16.9014 19.89 16.4039 19.9042 15.9064C19.9042 15.2953 20.0742 14.7125 20.3858 14.1867C20.74 13.6181 21.2642 13.1633 21.8733 12.879C22.5392 12.5378 23.375 12.3815 24.3808 12.3815C24.9617 12.3815 25.5567 12.4242 26.1375 12.5095C26.5625 12.5664 26.9733 12.68 27.3558 12.8363C27.4125 12.8506 27.4692 12.9075 27.4975 12.9642C27.5117 13.0211 27.5258 13.078 27.5258 13.1348V15.4516C27.5258 15.5085 27.4975 15.5653 27.455 15.5938C27.3275 15.6222 27.2567 15.6222 27.2 15.5938Z" fill="#31A8FF"/>
</svg>
