<svg width="33" height="34" viewBox="0 0 33 34" fill="none" xmlns="http://www.w3.org/2000/svg">
<g clip-path="url(#clip0_339_591)">
<path d="M5.84371 0H27.1563C30.3875 0 33 2.75631 33 6.16529V27.7803C33 31.1893 30.3875 33.9456 27.1563 33.9456H5.84371C2.61254 33.9456 0 31.1893 0 27.7803V6.16529C0 2.75631 2.61254 0 5.84371 0Z" fill="#00005B"/>
<path d="M7.8374 23.8054V8.87804C7.8374 8.77645 7.87865 8.71851 7.97495 8.71851L8.17449 8.7181L8.32892 8.71674L8.43785 8.71457L8.55386 8.71144L8.67852 8.70681L8.7449 8.70396C8.86865 8.69852 8.99434 8.69512 9.1226 8.69226L9.51641 8.68356C9.56114 8.68247 9.60638 8.68125 9.65189 8.67975L9.78982 8.67499C9.91357 8.67009 10.0404 8.66683 10.1703 8.66411L10.5691 8.65663L10.845 8.65024L10.9862 8.64589C11.2703 8.63637 11.5484 8.6331 11.8243 8.63201L12.2374 8.63147C13.3649 8.63147 14.2999 8.77645 15.0699 9.08109C15.7602 9.32841 16.3896 9.73477 16.9124 10.2707C17.3555 10.7396 17.6978 11.3036 17.9162 11.9244C18.1224 12.5337 18.2324 13.1575 18.2324 13.8103C18.2324 15.0579 17.9574 16.0878 17.4074 16.9003C16.8574 17.7126 16.0874 18.3219 15.1937 18.67C14.2898 19.0206 13.2961 19.1542 12.2124 19.1628H11.8193L11.6663 19.1611L11.5682 19.1587L11.5105 19.1561L11.4586 19.1528L11.4124 19.1488C11.3827 19.1457 11.3529 19.1433 11.3232 19.1417L11.2561 19.1386L11.1826 19.1365L11.0601 19.1348L10.8212 19.1342V23.7908C10.8349 23.8924 10.7662 23.9795 10.6699 23.994H8.0024C7.89245 23.994 7.8374 23.936 7.8374 23.8054ZM10.8349 11.5182V16.3924L10.9965 16.4047C11.1212 16.4147 11.2461 16.4204 11.3711 16.4215H12.0999C12.6362 16.4215 13.1724 16.3345 13.6811 16.1604C14.1212 16.0299 14.5061 15.7542 14.8087 15.3915C15.0974 15.0289 15.2349 14.5356 15.2349 13.8974C15.2479 13.444 15.1382 12.9962 14.9186 12.6062C14.6947 12.2449 14.3822 11.9633 14.0057 11.8L13.9562 11.7793C13.4474 11.5617 12.8974 11.4747 12.3337 11.4892L12.0158 11.4896L11.8664 11.4906L11.7237 11.4926L11.5882 11.4959C11.5222 11.4978 11.4589 11.5004 11.3987 11.5038C11.3691 11.5022 11.3396 11.501 11.31 11.5L11.2276 11.4981C11.2147 11.4979 11.2019 11.4978 11.189 11.4978L11.116 11.4982L11.0497 11.5001L11.0191 11.5015L10.9627 11.5049L10.9132 11.509L10.8909 11.5111L10.8519 11.5159L10.8349 11.5182ZM20.1574 12.3596H22.5637C22.6935 12.3596 22.7989 12.4502 22.8449 12.5703L22.8524 12.5918C22.8937 12.7078 22.9211 12.8238 22.9349 12.9544C22.9624 13.0995 22.9899 13.259 23.0036 13.4041L23.0152 13.5445C23.0242 13.6643 23.0312 13.7917 23.0312 13.9264C23.425 13.4413 23.8972 13.0338 24.426 12.7229L24.5024 12.6788C25.1349 12.3016 25.8637 12.1131 26.5924 12.1131C26.6887 12.0985 26.7712 12.171 26.7849 12.2726V15.1595C26.7849 15.2755 26.7161 15.319 26.5649 15.319C26.1029 15.3054 25.629 15.3425 25.1766 15.4418L25.0799 15.4641C24.6812 15.5511 24.2962 15.6817 23.9249 15.8558C23.6636 15.9863 23.4161 16.1604 23.2237 16.3924V23.7908C23.2237 23.936 23.1686 23.994 23.0449 23.994H20.3362C20.2262 24.0084 20.1299 23.936 20.1161 23.82V15.7252C20.1161 15.3771 20.1161 15.0144 20.1024 14.6372L20.0942 14.3543L20.0831 13.7886C20.0809 13.6942 20.0783 13.6 20.0749 13.5057C20.0749 13.172 20.0474 12.8529 20.0199 12.5192C20.0062 12.4467 20.0474 12.3742 20.1161 12.3596C20.1161 12.3473 20.1363 12.3455 20.1508 12.3542L20.1574 12.3596Z" fill="#9999FF"/>
</g>
<defs>
<clipPath id="clip0_339_591">
<rect width="33" height="34" fill="white"/>
</clipPath>
</defs>
</svg>
