<svg width="34" height="34" viewBox="0 0 34 34" fill="none" xmlns="http://www.w3.org/2000/svg">
<g clip-path="url(#clip0_339_606)">
<path d="M27.0813 0H6.91867C3.09759 0 0 3.12301 0 6.97545V27.0246C0 30.877 3.09759 34 6.91867 34H27.0813C30.9024 34 34 30.877 34 27.0246V6.97545C34 3.12301 30.9024 0 27.0813 0Z" fill="#10A37F"/>
<path d="M25.1467 15.2742C25.3074 14.7915 25.3893 14.286 25.3894 13.7773C25.3893 12.9355 25.1651 12.1089 24.7397 11.3824C23.885 9.89467 22.2995 8.97614 20.5836 8.97614C20.2455 8.97614 19.9084 9.01185 19.5778 9.08265C19.1332 8.58173 18.5875 8.18074 17.9766 7.90612C17.3657 7.63151 16.7035 7.48952 16.0337 7.4895H16.0037L15.9924 7.48957C13.9141 7.48957 12.071 8.83064 11.4321 10.8077C10.7707 10.9431 10.1459 11.2183 9.59956 11.6148C9.05318 12.0112 8.59779 12.5198 8.26388 13.1065C7.83982 13.8374 7.61635 14.6672 7.61609 15.5122C7.61625 16.6996 8.05704 17.8448 8.8531 18.7259C8.69241 19.2086 8.61046 19.714 8.61039 20.2228C8.61046 21.0646 8.8347 21.8912 9.26004 22.6176C9.76585 23.4983 10.5383 24.1956 11.466 24.6089C12.3937 25.0222 13.4286 25.1302 14.4217 24.9174C14.8663 25.4183 15.4121 25.8193 16.0231 26.0939C16.634 26.3685 17.2962 26.5105 17.966 26.5106H17.9961L18.0083 26.5105C20.0878 26.5105 21.9303 25.1694 22.5692 23.1905C23.2305 23.055 23.8553 22.7798 24.4017 22.3834C24.9481 21.9869 25.4035 21.4783 25.7374 20.8916C26.161 20.1614 26.3841 19.3323 26.384 18.4881C26.3838 17.3007 25.943 16.1555 25.1469 15.2744L25.1467 15.2742ZM17.9973 25.2671H17.9924C17.1603 25.2668 16.3547 24.9749 15.7155 24.4421C15.7535 24.4217 15.791 24.4004 15.828 24.3783L19.6153 22.1907C19.7098 22.1369 19.7884 22.0591 19.8431 21.965C19.8978 21.871 19.9266 21.7642 19.9266 21.6555V16.3125L21.5274 17.2368C21.5358 17.241 21.543 17.2472 21.5485 17.2549C21.5539 17.2625 21.5574 17.2714 21.5585 17.2807V21.7024C21.5564 23.6683 19.9633 25.2631 17.9973 25.2671ZM10.3387 21.9961C10.0259 21.4552 9.86109 20.8414 9.86089 20.2165C9.86089 20.0127 9.87868 19.8084 9.91335 19.6076C9.9415 19.6244 9.99064 19.6545 10.0259 19.6747L13.8132 21.8623C13.9076 21.9175 14.015 21.9465 14.1243 21.9465C14.2337 21.9465 14.341 21.9174 14.4354 21.8622L19.0593 19.1923V21.041L19.0593 21.0442C19.0593 21.0531 19.0573 21.0619 19.0533 21.0699C19.0493 21.0778 19.0436 21.0848 19.0364 21.0901L15.2078 23.3006C14.6661 23.6124 14.0521 23.7766 13.427 23.7768C12.8013 23.7767 12.1866 23.6121 11.6446 23.2995C11.1026 22.987 10.6522 22.5374 10.3387 21.9959V21.9961ZM9.34239 13.7281C9.75835 13.0056 10.4152 12.4524 11.1978 12.1653C11.1978 12.1979 11.196 12.2557 11.196 12.2958V16.6711L11.1959 16.6747C11.1959 16.7833 11.2247 16.89 11.2793 16.9839C11.3339 17.0779 11.4124 17.1557 11.5068 17.2095L16.1306 19.8789L14.5299 20.8032C14.522 20.8084 14.513 20.8116 14.5035 20.8125C14.4941 20.8133 14.4846 20.8118 14.4759 20.8081L10.6469 18.5957C10.1057 18.2822 9.65629 17.8319 9.34388 17.2899C9.03147 16.748 8.86699 16.1334 8.86692 15.5079C8.86716 14.8833 9.03117 14.2697 9.34258 13.7283L9.34239 13.7281ZM22.4945 16.7887L17.8706 14.1189L19.4714 13.1949C19.4793 13.1897 19.4884 13.1865 19.4978 13.1857C19.5072 13.1848 19.5167 13.1863 19.5254 13.19L23.3543 15.4005C23.896 15.7136 24.3459 16.1637 24.6587 16.7056C24.9714 17.2475 25.1362 17.8621 25.1363 18.4878C25.1363 19.9812 24.2044 21.3175 22.8033 21.8333V17.3272C22.8035 17.3255 22.8035 17.3238 22.8035 17.3221C22.8034 17.2139 22.7749 17.1076 22.7206 17.0139C22.6663 16.9203 22.5883 16.8426 22.4945 16.7887ZM24.0878 14.3907C24.0505 14.3679 24.013 14.3455 23.9753 14.3236L20.188 12.1359C20.0936 12.0809 19.9862 12.0519 19.8769 12.0519C19.7676 12.0519 19.6603 12.0809 19.5659 12.1359L14.942 14.8058V12.9571L14.9419 12.9539C14.9419 12.9359 14.9505 12.9189 14.9649 12.9081L18.7935 10.6994C19.335 10.3872 19.9491 10.2228 20.5742 10.2228C22.5428 10.2228 24.1392 11.8192 24.1392 13.7877C24.1391 13.9897 24.1219 14.1914 24.0878 14.3905V14.3907ZM14.0716 17.6857L12.4705 16.7613C12.4621 16.7572 12.4549 16.751 12.4494 16.7433C12.444 16.7356 12.4406 16.7268 12.4394 16.7174V12.2957C12.4402 10.3282 14.0366 8.73309 16.0043 8.73309C16.8377 8.73326 17.6447 9.02521 18.2853 9.55826C18.2565 9.57399 18.2062 9.60175 18.1728 9.62201L14.3855 11.8096C14.291 11.8634 14.2125 11.9412 14.1578 12.0352C14.1031 12.1292 14.0743 12.2359 14.0743 12.3447V12.3482L14.0716 17.6857ZM14.9412 15.8108L17.0006 14.6213L19.06 15.81V18.1881L17.0006 19.3769L14.9412 18.1881V15.8108Z" fill="white"/>
</g>
<defs>
<clipPath id="clip0_339_606">
<rect width="34" height="34" fill="white"/>
</clipPath>
</defs>
</svg>
