<svg width="244" height="391" viewBox="0 0 244 391" fill="none" xmlns="http://www.w3.org/2000/svg">
<path d="M121.446 350.186C143.082 350.186 162.739 355.549 177.418 364.302C173.963 338.32 150.238 318.207 121.446 318.207C92.6529 318.207 68.928 338.32 65.4736 364.302C80.1421 355.549 99.809 350.186 121.446 350.186Z" fill="white"/>
<path d="M121.446 352.417C136.619 352.446 152 355.004 165.996 361.001C169.539 362.518 172.973 364.263 176.289 366.225C178.14 367.326 179.803 365.522 179.565 363.708C176.646 342.295 160.186 325.067 139.915 318.752C118.813 312.18 94.6524 317.513 78.8555 333.146C70.5711 341.344 64.9194 352.129 63.3358 363.708C63.0884 365.522 64.771 367.316 66.612 366.225C79.0337 358.85 93.2964 354.716 107.599 353.16C112.201 352.655 116.823 352.427 121.456 352.417C124.326 352.417 124.326 347.946 121.456 347.956C105.58 347.986 89.6441 350.771 75.0053 356.996C71.3431 358.553 67.7799 360.347 64.3652 362.379L67.6413 364.897C70.3533 345.002 85.2495 328.953 104.184 323.054C123.118 317.156 146.2 321.746 160.918 336.298C168.717 344.01 173.805 354.013 175.29 364.897L178.566 362.379C165.56 354.657 150.723 350.434 135.758 348.749C131.017 348.214 126.246 347.966 121.465 347.956C118.595 347.956 118.595 352.407 121.465 352.417H121.446Z" fill="#223068"/>
<path d="M238.734 219.206C229.104 124.438 180.981 74.5952 120.951 72.0079C60.9308 74.5853 12.8078 124.428 3.16733 219.206C-4.95875 299.134 60.0004 330.955 120.951 332.581C181.901 330.955 246.861 299.124 238.734 219.206Z" fill="white"/>
<path d="M120.951 335.059H120.881C79.3405 333.949 43.4314 319.555 22.3689 295.576C4.85974 275.621 -2.43493 249.847 0.712568 218.948C5.35463 173.309 19.3798 135.441 41.2737 109.429C62.1283 84.6668 89.6441 70.8679 120.852 69.5198H120.961H121.07C152.277 70.8679 179.793 84.6668 200.648 109.429C222.542 135.441 236.577 173.309 241.209 218.948C244.346 249.847 237.062 275.621 219.543 295.566C198.48 319.555 162.571 333.939 121.03 335.049H120.961L120.951 335.059ZM120.951 74.4862C91.208 75.7947 64.959 88.9889 45.0546 112.631C23.8041 137.87 10.1649 174.816 5.63176 219.454C2.63274 248.925 9.52159 273.43 26.0905 292.304C46.2325 315.243 80.8054 329.022 120.951 330.103C161.096 329.022 195.669 315.243 215.811 292.304C232.38 273.43 239.259 248.925 236.27 219.464C231.737 174.825 218.097 137.88 196.847 112.641C176.933 88.9988 150.694 75.8046 120.951 74.4961V74.4862Z" fill="#223068"/>
<g opacity="0.3">
<path d="M17.3804 244.851H16.0442C16.0442 350.176 225.877 344.357 225.877 244.851H224.382C206.557 326.365 34.3155 330.658 17.3804 244.851Z" fill="#223068"/>
</g>
<path d="M34.0089 162.86C90.4262 198.547 83.0029 241.669 26.7241 211.226Z" fill="white"/>
<path d="M32.8903 164.793C42.0359 170.602 50.7162 177.274 58.0406 185.313C62.8905 190.637 67.493 196.961 69.5715 203.583C69.9773 204.862 70.2841 206.17 70.4821 207.499C70.4029 206.953 70.5217 207.895 70.5316 208.014C70.5613 208.311 70.5712 208.609 70.591 208.906C70.6108 209.511 70.6009 210.106 70.5613 210.71C70.5514 210.849 70.5316 210.988 70.5217 211.127C70.4821 211.672 70.5811 210.76 70.5217 211.097C70.4821 211.335 70.4425 211.573 70.393 211.811C70.2742 212.366 70.1159 212.911 69.9278 213.456C69.8981 213.555 69.8585 213.645 69.8189 213.744C69.6408 214.239 70.0367 213.298 69.809 213.764C69.7002 213.982 69.5913 214.21 69.4725 214.428C69.3537 214.646 69.2251 214.854 69.0964 215.062C68.9776 215.241 68.5817 215.776 68.9281 215.33C68.6213 215.716 68.2848 216.083 67.9285 216.43C67.7404 216.599 67.5523 216.767 67.3643 216.926C66.9783 217.253 67.6612 216.718 67.394 216.906C67.2455 217.015 67.097 217.114 66.9486 217.213C66.523 217.491 66.0875 217.749 65.6322 217.967C65.5134 218.026 65.3847 218.086 65.2561 218.145C65.5728 218.026 64.7612 218.383 65.2561 218.145C64.9591 218.264 64.6622 218.373 64.3653 218.472C63.7912 218.661 63.2072 218.819 62.6134 218.948C62.2966 219.018 61.9898 219.067 61.6731 219.127C61.5444 219.146 61.4157 219.166 61.287 219.186C61.8116 219.117 60.9703 219.216 60.8812 219.226C59.4065 219.364 57.9218 219.364 56.447 219.275C52.379 219.018 48.0636 217.907 43.9956 216.529C38.4034 214.636 33.0685 212.108 27.8821 209.313C25.3581 207.955 23.1014 211.801 25.6353 213.169C34.5334 217.967 44.1243 222.269 54.2398 223.528C59.9607 224.242 66.5329 223.786 70.9869 219.692C75.0153 215.994 75.5992 210.284 74.5996 205.189C73.1446 197.784 68.6807 191.093 63.9792 185.363C55.962 175.599 45.7772 167.688 35.1668 160.957C32.7419 159.421 30.505 163.277 32.92 164.813L32.8903 164.793Z" fill="#223068"/>
<path d="M209.882 162.86C153.465 198.547 160.888 241.669 217.167 211.226Z" fill="white"/>
<path d="M208.754 160.937C199.024 167.113 189.721 174.26 182.04 182.895C176.863 188.714 172.043 195.425 169.856 202.998C168.351 208.173 168.302 214.091 171.825 218.472C175.349 222.854 181.763 224.043 187.236 223.736C198.193 223.112 208.774 218.284 218.295 213.159C220.819 211.801 218.573 207.945 216.049 209.303C207.853 213.724 198.935 217.828 189.612 219.057C188.434 219.216 186.533 219.345 185.069 219.325C184.396 219.315 183.722 219.285 183.049 219.216C182.436 219.156 182.228 219.137 181.307 218.938C180.714 218.809 180.13 218.661 179.556 218.462C179.308 218.383 179.071 218.284 178.823 218.195C178.694 218.155 178.338 217.977 178.813 218.195C178.665 218.125 178.516 218.056 178.358 217.987C177.883 217.749 177.418 217.491 176.972 217.194C176.863 217.124 176.18 216.599 176.675 216.995C176.438 216.807 176.21 216.609 175.992 216.401C175.646 216.073 175.339 215.726 175.032 215.36C174.824 215.112 175.339 215.816 175.072 215.399C175.022 215.32 174.953 215.241 174.904 215.161C174.745 214.914 174.587 214.666 174.438 214.408C174.32 214.19 174.221 213.962 174.102 213.744C173.874 213.298 174.23 214.101 174.122 213.793C174.072 213.674 174.023 213.556 173.983 213.437C173.805 212.921 173.656 212.406 173.538 211.87C173.478 211.613 173.439 211.345 173.399 211.087C173.34 210.75 173.449 211.652 173.399 211.117C173.399 211.008 173.379 210.899 173.369 210.79C173.32 210.165 173.31 209.531 173.33 208.906C173.34 208.609 173.359 208.312 173.389 208.014C173.399 207.865 173.518 206.953 173.439 207.499C173.528 206.854 173.656 206.22 173.795 205.585C174.527 202.423 175.587 200.024 177.131 197.229C178.991 193.858 181.238 190.716 183.713 187.772C191.413 178.622 200.964 171.168 211.021 164.794C213.436 163.257 211.199 159.401 208.774 160.937H208.754Z" fill="#223068"/>
<path d="M142.201 168.66C140.509 170.464 138.796 172.268 136.886 173.844C135.481 175.014 133.867 176.194 132.046 176.58C127.681 177.512 125.355 172.02 124.108 168.64C126.503 168.194 128.532 167.371 129.908 166.32L136.777 167.886C137.638 168.085 138.499 168.283 139.361 168.471C141.221 168.898 142.013 166.033 140.152 165.606C137.361 164.972 134.57 164.338 131.769 163.703C131.809 163.495 131.838 163.287 131.838 163.079C131.838 162.761 131.779 162.464 131.68 162.167C133.63 161.8 135.58 161.423 137.529 161.056C138.401 160.888 139.281 160.719 140.152 160.561C142.023 160.204 141.231 157.339 139.361 157.696L129.512 159.569C127.355 158.102 123.88 157.141 119.951 157.141C116.022 157.141 112.32 158.162 110.172 159.718L102.185 158.192C101.314 158.023 100.433 157.854 99.5616 157.696C97.6909 157.339 96.8991 160.204 98.7698 160.561C101.907 161.156 105.035 161.76 108.173 162.355C108.113 162.593 108.074 162.841 108.074 163.089C108.074 163.227 108.094 163.356 108.113 163.495C105.857 164.01 103.61 164.516 101.353 165.031C100.492 165.23 99.6309 165.428 98.7698 165.616C96.909 166.043 97.6909 168.907 99.5616 168.481C102.976 167.708 106.381 166.925 109.796 166.152C111.172 167.292 113.3 168.184 115.834 168.65C114.448 172.199 111.954 177.502 107.42 176.59C105.56 176.213 103.887 175.083 102.412 173.933C100.373 172.347 98.5323 170.513 96.7309 168.67C96.2162 168.144 95.2858 168.67 95.4936 169.393C96.7507 173.814 99.72 177.998 103.788 180.228C107.727 182.379 112.251 182.042 115.547 178.89C117.684 176.848 119.05 174.122 120.04 171.336C121.564 175.807 124.247 180.734 129.186 181.547C133.382 182.25 137.302 179.613 139.836 176.481C141.518 174.399 142.746 171.98 143.448 169.393C143.636 168.689 142.726 168.114 142.211 168.67L142.201 168.66Z" fill="#223068"/>
<path d="M188.127 44.896C186.919 32.2172 176.814 21.9375 164.184 20.5001C159.532 19.9747 155.088 20.6389 151.109 22.2051C146.239 10.6168 134.798 2.47827 121.455 2.47827C108.113 2.47827 96.2062 10.9539 91.5147 22.9288C87.417 20.9858 82.7651 20.0342 77.8558 20.391C64.2958 21.3823 53.3884 32.5642 52.7055 46.1648C52.171 56.7321 57.6643 66.0701 66.0279 71.0365V88.2157L77.5687 93.1722C105.55 105.187 137.272 104.969 165.095 92.5873L174.913 88.2157V71.0365C183.623 65.8718 189.206 55.9787 188.147 44.886L188.127 44.896Z" fill="white"/>
<path d="M120.644 104.483C105.629 104.483 90.6141 101.479 76.579 95.4522L63.5437 89.8513V72.4045C54.7643 66.6054 49.6868 56.6329 50.2212 46.0359C50.9735 31.0871 62.7716 19.0032 77.6678 17.9128C81.9535 17.5956 86.2294 18.2102 90.2083 19.6872C95.949 7.65283 107.955 0 121.446 0C134.936 0 146.556 7.43474 152.416 19.1222C156.306 17.9326 160.344 17.5658 164.471 18.0317C178.289 19.598 189.275 30.7997 190.601 44.658C191.67 55.82 186.623 66.3278 177.378 72.4144V89.8315L166.095 94.8574C151.683 101.271 136.174 104.483 120.654 104.483H120.644ZM68.4925 86.59L78.5289 90.9021C105.787 102.599 136.965 102.391 164.075 90.3272L172.419 86.6098V69.6288L173.627 68.9052C181.98 63.9487 186.583 54.8387 185.662 45.1239C184.564 33.5852 175.408 24.2571 163.897 22.9486C159.8 22.4827 155.801 22.9981 152 24.495L149.753 25.3773L148.813 23.1468C144.161 12.0839 133.412 4.93667 121.436 4.93667C109.459 4.93667 98.2948 12.3516 93.7913 23.8209L92.8213 26.2892L90.426 25.1592C86.5857 23.3451 82.2999 22.552 78.0142 22.8594C65.6123 23.7614 55.7838 33.833 55.1503 46.2837C54.6851 55.5226 59.3272 64.1866 67.2652 68.9052L68.4826 69.6288V86.59H68.4925Z" fill="#223068"/>
<path d="M99.1756 85.5888C97.8097 85.5888 96.7012 84.4785 96.7012 83.1105V61.9859C96.7012 60.6179 97.8097 59.5077 99.1756 59.5077C100.542 59.5077 101.65 60.6179 101.65 61.9859V83.1105C101.65 84.4785 100.542 85.5888 99.1756 85.5888Z" fill="#223068"/>
<path d="M142.726 85.5888C141.36 85.5888 140.251 84.4785 140.251 83.1105V61.9859C140.251 60.6179 141.36 59.5077 142.726 59.5077C144.092 59.5077 145.2 60.6179 145.2 61.9859V83.1105C145.2 84.4785 144.092 85.5888 142.726 85.5888Z" fill="#223068"/>
<path d="M120.951 88.5626C119.585 88.5626 118.476 87.4524 118.476 86.0844V64.9598C118.476 63.5918 119.585 62.4816 120.951 62.4816C122.317 62.4816 123.425 63.5918 123.425 64.9598V86.0844C123.425 87.4524 122.317 88.5626 120.951 88.5626Z" fill="#223068"/>
<path d="M85.3286 155.634C84.418 155.634 83.547 155.128 83.1115 154.266C82.4979 153.037 82.9927 151.55 84.2201 150.945L97.6118 144.244L84.2201 137.543C83.0026 136.928 82.4979 135.441 83.1115 134.222C83.7252 132.993 85.2098 132.497 86.4273 133.112L104.243 142.033C105.085 142.45 105.609 143.312 105.609 144.254C105.609 145.195 105.075 146.048 104.243 146.474L86.4273 155.396C86.071 155.574 85.6948 155.654 85.3187 155.654L85.3286 155.634Z" fill="#223068"/>
<path d="M152.624 155.634C152.248 155.634 151.871 155.555 151.515 155.376L133.699 146.454C132.858 146.038 132.333 145.176 132.333 144.234C132.333 143.292 132.868 142.44 133.699 142.013L151.515 133.092C152.742 132.477 154.227 132.973 154.831 134.202C155.445 135.431 154.95 136.918 153.722 137.523L140.331 144.224L153.722 150.925C154.94 151.54 155.445 153.027 154.831 154.246C154.395 155.118 153.524 155.614 152.614 155.614L152.624 155.634Z" fill="#223068"/>
<path fill-rule="evenodd" clip-rule="evenodd" d="M97.1466 173.15C97.2852 172.942 97.4535 172.823 97.6316 172.823C97.8098 172.823 97.978 172.942 98.1166 173.15C99.047 174.588 99.8982 176.184 100.66 177.928C101.719 180.377 102.808 183.698 102.808 187.167C102.808 189.715 102.264 192.153 101.294 193.957C100.324 195.762 99.0074 196.773 97.6316 196.773C96.2558 196.773 94.9394 195.762 93.9694 193.957C92.9995 192.153 92.4551 189.715 92.4551 187.167C92.4551 183.698 93.5438 180.377 94.6029 177.918C95.365 176.174 96.2162 174.578 97.1466 173.14V173.15Z" fill="#223068"/>
</svg>
