<svg width="32" height="25" viewBox="0 0 32 25" fill="none" xmlns="http://www.w3.org/2000/svg">
<path d="M27.5545 14.0376C26.4382 14.0435 25.4679 14.3171 24.6555 14.7215C24.3573 14.1208 24.0592 13.5856 24.0067 13.193C23.9482 12.7351 23.8781 12.4555 23.9482 11.9084C24.0184 11.3612 24.334 10.582 24.3281 10.5226C24.3223 10.4632 24.2579 10.1836 23.615 10.1777C22.9721 10.1717 22.4168 10.3026 22.3525 10.475C22.2882 10.6475 22.1655 11.04 22.0836 11.4444C21.9726 12.0392 20.7978 14.1623 20.1257 15.2745C19.9094 14.8405 19.7224 14.4598 19.6814 14.1565C19.623 13.6986 19.5528 13.419 19.623 12.8718C19.6932 12.3247 20.0088 11.5456 20.0029 11.4861C19.997 11.4266 19.9327 11.1471 19.2898 11.1412C18.6468 11.1352 18.0915 11.2661 18.0273 11.4385C17.963 11.6111 17.8928 12.0154 17.7585 12.408C17.624 12.8005 16.0634 16.3453 15.6543 17.2611C15.4889 17.6317 15.3155 17.9986 15.1341 18.3614C15.1341 18.3614 15.1282 18.3792 15.1106 18.409C15.0537 18.5227 14.9952 18.6357 14.9354 18.748V18.7538C14.8477 18.9146 14.7542 19.0631 14.7074 19.0631C14.6723 19.0631 14.608 18.635 14.7191 18.0521C14.9528 16.821 15.5081 14.9059 15.5023 14.8405C15.5023 14.8048 15.6075 14.4718 15.14 14.2992C14.684 14.1268 14.5204 14.4122 14.4794 14.4122C14.4385 14.4122 14.4092 14.5134 14.4092 14.5134C14.4092 14.5134 14.9179 12.3604 13.439 12.3604C12.5156 12.3604 11.2413 13.3893 10.6101 14.3171C9.8925 14.7144 9.17552 15.1129 8.45915 15.5125C8.11445 15.7088 7.75784 15.9051 7.42467 16.0894C7.40123 16.0657 7.37792 16.0359 7.35448 16.0121C5.56591 14.0673 2.25778 12.6934 2.39804 10.0826C2.45069 9.13095 2.77207 6.63297 8.75146 3.59982C13.6728 1.13157 17.589 1.81547 18.267 3.3321C19.2372 5.49706 16.1687 9.51754 11.0835 10.1003C9.14304 10.3204 8.12598 9.55912 7.8689 9.27367C7.60003 8.97623 7.55904 8.95838 7.45964 9.01794C7.29607 9.10722 7.40123 9.37481 7.45964 9.5294C7.61169 9.93372 8.23704 10.6475 9.29496 10.9985C10.2302 11.3076 12.5038 11.4802 15.2568 10.3977C18.3371 9.18439 20.7452 5.81222 20.038 2.98722C19.3307 0.120518 14.6548 -0.825102 10.2302 0.774697C7.60003 1.72644 4.74765 3.22509 2.69611 5.1759C0.258759 7.49531 -0.127057 9.51154 0.0307542 10.3561C0.59782 13.3536 4.66004 15.3044 6.2849 16.7496C6.20305 16.7972 6.12696 16.8389 6.06279 16.8746C5.25029 17.2849 2.15249 18.9323 1.38098 20.6749C0.504312 22.6495 1.52137 24.0651 2.19348 24.2552C4.28011 24.8441 6.42516 23.7855 7.57659 22.0369C8.72802 20.2883 8.58776 18.0164 8.05591 16.9756C8.05002 16.9637 8.04426 16.9518 8.03247 16.9399C8.24293 16.815 8.45915 16.6842 8.66961 16.5593C9.05641 16.3266 9.44812 16.1025 9.84448 15.8871C9.64568 16.4403 9.49952 17.1005 9.42946 18.0521C9.34171 19.1703 9.79171 20.6214 10.3821 21.1923C10.6452 21.4422 10.9549 21.4481 11.1537 21.4481C11.8434 21.4481 12.1532 20.8652 12.4981 20.1753C12.9188 19.3309 13.2988 18.3495 13.2988 18.3495C13.2988 18.3495 12.8253 21.0021 14.1113 21.0021C14.5788 21.0021 15.0522 20.3835 15.2627 20.0683V20.0742C15.2627 20.0742 15.2743 20.0563 15.2978 20.0148C15.3445 19.9375 15.3737 19.8898 15.3737 19.8898V19.878C15.5608 19.5449 15.9817 18.7896 16.607 17.5346C17.4136 15.917 18.191 13.8949 18.191 13.8949C18.191 13.8949 18.2612 14.3885 18.5008 15.2092C18.6411 15.691 18.9332 16.2203 19.1671 16.7317C18.9801 16.9995 18.8631 17.1481 18.8631 17.1481L18.869 17.154C18.717 17.3562 18.5534 17.5762 18.3721 17.7905C17.735 18.5635 16.9753 19.4499 16.87 19.7055C16.7472 20.0088 16.7765 20.2289 17.0104 20.4073C17.1799 20.5382 17.4837 20.5559 17.7936 20.5382C18.3664 20.4965 18.7696 20.3538 18.9683 20.2646C19.2782 20.1516 19.6405 19.979 19.9795 19.7233C20.6049 19.2534 20.9847 18.5814 20.9498 17.6953C20.9322 17.2076 20.7744 16.7199 20.5815 16.2619C20.64 16.1787 20.6926 16.0954 20.7511 16.0121C21.7388 14.5431 22.5046 12.9313 22.5046 12.9313C22.5046 12.9313 22.5748 13.4249 22.8143 14.2458C22.9312 14.6621 23.1709 15.1141 23.3812 15.5541C22.4519 16.3214 21.8791 17.2135 21.6745 17.7964C21.3064 18.8788 21.5927 19.3664 22.1363 19.4794C22.3817 19.533 22.7324 19.414 22.9897 19.301C23.3169 19.194 23.7027 19.0097 24.071 18.736C24.6965 18.2662 25.2984 17.6119 25.2633 16.7259C25.2458 16.3214 25.1406 15.9229 24.9944 15.5363C25.7835 15.2034 26.8005 15.0189 28.098 15.1735C30.8803 15.5065 31.4297 17.2729 31.3244 18.0165C31.2192 18.7598 30.6348 19.1643 30.442 19.2892C30.2489 19.4141 30.1848 19.4557 30.2023 19.5449C30.2256 19.6757 30.3191 19.6699 30.4828 19.646C30.7108 19.6044 31.9441 19.0453 31.9966 17.6774C32.0844 15.9288 30.4477 14.0198 27.5545 14.0376ZM6.09199 21.4005C5.16844 22.4234 3.88264 22.81 3.32736 22.483C2.73121 22.132 2.96498 20.6214 4.09886 19.539C4.78852 18.8788 5.67697 18.2661 6.26735 17.8915C6.40172 17.8082 6.60052 17.6894 6.84018 17.5406C6.88104 17.5168 6.90448 17.5049 6.90448 17.5049L7.04475 17.4156C7.45964 18.962 7.0623 20.3241 6.09199 21.4005ZM12.8137 16.7496C12.4922 17.5466 11.8201 19.5866 11.4109 19.4736C11.0602 19.3784 10.8439 17.8321 11.3407 16.3036C11.5921 15.5363 12.1239 14.6204 12.4338 14.2636C12.9364 13.6926 13.4917 13.5022 13.626 13.7343C13.7956 14.0376 13.0123 16.25 12.8137 16.7496ZM18.3605 19.4497C18.226 19.5212 18.0975 19.5687 18.039 19.533C17.9981 19.5092 18.0975 19.414 18.0975 19.414C18.0975 19.414 18.7931 18.6528 19.0677 18.3078C19.2256 18.1057 19.4125 17.8678 19.6113 17.6001V17.6774C19.6113 18.5874 18.7462 19.2 18.3604 19.4497H18.3605ZM22.6389 18.4565C22.5395 18.3851 22.5571 18.1472 22.8903 17.4038C23.0189 17.1123 23.3227 16.6247 23.843 16.1549C23.9014 16.3452 23.9424 16.5296 23.9365 16.702C23.9306 17.8499 23.1241 18.2781 22.6389 18.4565Z" fill="#CD6799"/>
</svg>
