<svg width="33" height="33" viewBox="0 0 33 33" fill="none" xmlns="http://www.w3.org/2000/svg">
<g clip-path="url(#clip0_339_677)">
<path d="M6.21704 0H26.783C27.5986 0.00055859 28.4061 0.162164 29.1591 0.475545C29.9122 0.788925 30.5959 1.24791 31.1711 1.82617C31.7492 2.40157 32.208 3.08535 32.5214 3.83835C32.8347 4.59134 32.9965 5.39876 32.9973 6.21436V26.783C32.9968 27.5986 32.8352 28.4061 32.5218 29.1591C32.2084 29.9122 31.7494 30.5959 31.1711 31.1711C30.5957 31.7492 29.912 32.208 29.159 32.5214C28.406 32.8347 27.5986 32.9965 26.783 32.9973H6.21704C5.4014 32.9968 4.5939 32.8352 3.84086 32.5218C3.08783 32.2084 2.40408 31.7494 1.82886 31.1711C1.25035 30.596 0.791024 29.9123 0.477195 29.1593C0.163366 28.4063 0.00120409 27.5987 0 26.783L0 6.21704C0.00055859 5.4014 0.162164 4.5939 0.475545 3.84086C0.788925 3.08783 1.24791 2.40408 1.82617 1.82886C2.40185 1.25027 3.086 0.790913 3.83945 0.477091C4.5929 0.163268 5.40085 0.00114409 6.21704 0ZM17.8025 20.6787L13.6023 18.7344C13.1595 19.2518 12.5725 19.6254 11.9164 19.8075C11.2602 19.9895 10.5646 19.9718 9.91853 19.7566C9.27246 19.5414 8.70525 19.1384 8.28938 18.5991C7.87351 18.0599 7.62788 17.4089 7.58388 16.7293C7.53987 16.0498 7.6995 15.3725 8.04235 14.7841C8.38521 14.1958 8.89571 13.723 9.50863 13.4262C10.1215 13.1295 10.809 13.0222 11.4832 13.1181C12.1574 13.2141 12.7877 13.5089 13.2935 13.9648L17.7595 12.1038C17.7305 11.9262 17.7162 11.7466 17.7166 11.5667C17.7173 10.659 18.0783 9.78876 18.7204 9.1472C19.3625 8.50564 20.233 8.14526 21.1406 8.14526C21.6916 8.14459 22.2346 8.27678 22.7236 8.53062C23.2126 8.78447 23.6332 9.15249 23.9497 9.60348C24.2663 10.0545 24.4694 10.5751 24.5418 11.1213C24.6143 11.6675 24.554 12.2231 24.366 12.741C24.1781 13.2589 23.868 13.7239 23.4621 14.0965C23.0562 14.4691 22.5664 14.7383 22.0344 14.8813C21.5023 15.0243 20.9435 15.0369 20.4055 14.9181C19.8675 14.7992 19.3661 14.5524 18.9438 14.1985L14.3999 16.0945C14.416 16.2237 14.424 16.3537 14.4241 16.4839L19.1533 18.6619C19.8022 18.1997 20.5925 17.9797 21.3868 18.0401C22.1812 18.1004 22.9292 18.4374 23.5007 18.9922C24.0723 19.5471 24.4313 20.2848 24.5151 21.077C24.599 21.8692 24.4025 22.6657 23.9598 23.328C23.5171 23.9902 22.8563 24.4763 22.0922 24.7017C21.3281 24.9271 20.5093 24.8774 19.778 24.5615C19.0468 24.2455 18.4494 23.6831 18.09 22.9722C17.7305 22.2613 17.6316 21.4469 17.8105 20.6707L17.8025 20.6787ZM26.783 2.5083H6.21704C5.73142 2.50652 5.25021 2.60048 4.80092 2.7848C4.35163 2.96912 3.94309 3.2402 3.59863 3.58252C3.25631 3.92697 2.98524 4.33552 2.80091 4.78481C2.61659 5.23409 2.52263 5.7153 2.52441 6.20093V26.783C2.52263 27.2686 2.61659 27.7498 2.80091 28.1991C2.98524 28.6484 3.25631 29.0569 3.59863 29.4014C3.94309 29.7437 4.35163 30.0148 4.80092 30.1991C5.25021 30.3834 5.73142 30.4774 6.21704 30.4756H26.783C27.2686 30.4774 27.7498 30.3834 28.1991 30.1991C28.6484 30.0148 29.0569 29.7437 29.4014 29.4014C29.7437 29.0569 30.0148 28.6484 30.1991 28.1991C30.3834 27.7498 30.4774 27.2686 30.4756 26.783V6.21704C30.4774 5.73142 30.3834 5.25021 30.1991 4.80092C30.0148 4.35163 29.7437 3.94309 29.4014 3.59863C29.0569 3.25631 28.6484 2.98524 28.1991 2.80091C27.7498 2.61659 27.2686 2.52263 26.783 2.52441V2.5083Z" fill="url(#paint0_linear_339_677)"/>
</g>
<defs>
<linearGradient id="paint0_linear_339_677" x1="16.4987" y1="0" x2="16.4987" y2="32.9973" gradientUnits="userSpaceOnUse">
<stop stop-color="white"/>
<stop offset="1" stop-color="#D0D0D0"/>
</linearGradient>
<clipPath id="clip0_339_677">
<rect width="33" height="33" fill="white"/>
</clipPath>
</defs>
</svg>
