<svg width="32" height="20" viewBox="0 0 32 20" fill="none" xmlns="http://www.w3.org/2000/svg">
<path d="M16 0C11.7334 0 9.06662 2.14933 8 6.44785C9.6 4.29853 11.4666 3.49255 13.6 4.02991C14.8171 4.33643 15.6871 5.22616 16.6501 6.21085C18.2189 7.81513 20.0344 9.67178 24 9.67178C28.2666 9.67178 30.9334 7.52246 32 3.22393C30.4 5.37325 28.5334 6.17924 26.4 5.64187C25.1829 5.33535 24.3129 4.44562 23.3499 3.46094C21.7811 1.85665 19.9656 0 16 0ZM8 9.67178C3.73338 9.67178 1.06662 11.8211 0 16.1196C1.6 13.9703 3.46662 13.1643 5.6 13.7017C6.81712 14.0082 7.68712 14.8979 8.65012 15.8826C10.2189 17.4869 12.0344 19.3436 16 19.3436C20.2666 19.3436 22.9334 17.1942 24 12.8957C22.4 15.045 20.5334 15.851 18.4 15.3137C17.1829 15.0071 16.3129 14.1174 15.3499 13.1327C13.7811 11.5284 11.9656 9.67178 8 9.67178Z" fill="url(#paint0_linear_519_220)"/>
<defs>
<linearGradient id="paint0_linear_519_220" x1="-88.896" y1="618.994" x2="2685.06" y2="2206.54" gradientUnits="userSpaceOnUse">
<stop stop-color="#2298BD"/>
<stop offset="1" stop-color="#0ED7B5"/>
</linearGradient>
</defs>
</svg>
