<svg width="34" height="34" viewBox="0 0 34 34" fill="none" xmlns="http://www.w3.org/2000/svg">
<g clip-path="url(#clip0_339_483)">
<path d="M2.49233 17C2.49233 14.9034 2.94886 12.9082 3.74357 11.082L10.6761 30.0535C8.22169 28.8685 6.15158 27.0148 4.70385 24.7056C3.25612 22.3964 2.48956 19.7255 2.49233 17ZM26.79 16.273C26.79 17.5073 26.2996 18.9445 25.6909 20.9566L24.2368 25.7925L18.9951 10.2366L20.6522 10.0675C21.4469 9.96605 21.3454 8.81627 20.5676 8.86699C20.5676 8.86699 18.2173 9.05299 16.6956 9.05299L12.8742 8.86699C12.0964 8.81627 12.0119 10.0168 12.7728 10.0675L14.3114 10.2366L16.5772 16.3913L13.3984 25.9109L8.10599 10.2366L9.77994 10.0675C10.5577 9.96605 10.4563 8.81627 9.67849 8.86699C9.67849 8.86699 7.32819 9.05299 5.80642 9.05299L4.87644 9.03608C7.48037 5.09638 11.9273 2.49245 16.9999 2.49245C20.7705 2.49245 24.2199 3.94659 26.79 6.29689H26.604C25.1837 6.29689 24.1692 7.53122 24.1692 8.86699C24.1692 10.0675 24.8624 11.082 25.5895 12.2656C26.1475 13.2294 26.79 14.4637 26.79 16.273ZM17.2535 18.2682L21.7174 30.4762L21.8189 30.6791C20.314 31.2202 18.6908 31.5076 16.9999 31.5076C15.5796 31.5076 14.21 31.3047 12.908 30.9158L17.2535 18.2682ZM29.7321 10.0337C30.9012 12.1692 31.5119 14.5655 31.5075 17C31.5075 22.3432 28.5992 27.0268 24.2875 29.5293L28.7176 16.7295C29.5461 14.6666 29.8335 13.0096 29.8335 11.5386L29.7321 10.0337ZM16.9999 0.0914307C19.2204 0.0914307 21.4191 0.528785 23.4706 1.37852C25.522 2.22826 27.386 3.47374 28.9561 5.04385C30.5262 6.61395 31.7717 8.47794 32.6214 10.5294C33.4712 12.5808 33.9085 14.7796 33.9085 17C33.9085 21.4845 32.1271 25.7852 28.9561 28.9562C25.7851 32.1272 21.4844 33.9086 16.9999 33.9086C14.7794 33.9086 12.5807 33.4713 10.5293 32.6215C8.47782 31.7718 6.61383 30.5263 5.04372 28.9562C1.87275 25.7852 0.0913086 21.4845 0.0913086 17C0.0913086 12.5156 1.87275 8.21482 5.04372 5.04385C8.2147 1.87287 12.5155 0.0914307 16.9999 0.0914307ZM16.9999 33.1308C25.8938 33.1308 33.1307 25.894 33.1307 17C33.1307 8.10611 25.8938 0.869226 16.9999 0.869226C8.10599 0.869226 0.869104 8.10611 0.869104 17C0.869104 25.894 8.10599 33.1308 16.9999 33.1308Z" fill="url(#paint0_linear_339_483)"/>
</g>
<defs>
<linearGradient id="paint0_linear_339_483" x1="16.9999" y1="0.0914307" x2="16.9999" y2="33.9086" gradientUnits="userSpaceOnUse">
<stop stop-color="white"/>
<stop offset="1" stop-color="#D0D0D0"/>
</linearGradient>
<clipPath id="clip0_339_483">
<rect width="34" height="34" fill="white"/>
</clipPath>
</defs>
</svg>
